<svg xmlns="http://www.w3.org/2000/svg" viewBox="0 0 486.58 442.27"><defs><style>.cls-1,.cls-2{fill:#cae7e2;}.cls-1,.cls-10,.cls-11,.cls-12,.cls-13,.cls-14,.cls-15,.cls-16,.cls-17,.cls-18,.cls-21,.cls-22,.cls-23,.cls-24,.cls-25,.cls-26,.cls-27,.cls-28,.cls-29,.cls-3,.cls-30,.cls-31,.cls-32,.cls-33,.cls-34,.cls-4,.cls-5,.cls-6,.cls-7,.cls-8,.cls-9{fill-rule:evenodd;}.cls-3{fill:#f1f8f7;}.cls-4{fill:#ecf6f5;}.cls-37,.cls-5{fill:#331c38;}.cls-36,.cls-6{fill:#3f2c44;}.cls-19,.cls-7{fill:#fff;}.cls-8{fill:#4f3f55;}.cls-9{fill:#65586b;}.cls-10{fill:#8e8293;}.cls-11{fill:#ef8871;}.cls-12{fill:#e8685b;}.cls-13{fill:#f5bbab;}.cls-14{fill:#facc6a;}.cls-15{fill:#dfae49;}.cls-16{fill:#f4ad85;}.cls-17{fill:#d64341;}.cls-18{fill:#f4b4a3;}.cls-20,.cls-21{fill:#fbe2d8;}.cls-22{fill:#fcede9;}.cls-23{fill:#d84f50;}.cls-24{fill:#c03e3e;}.cls-25{fill:#ed9072;}.cls-26{fill:#e37b64;}.cls-27{fill:#e67170;}.cls-28{fill:#cb6254;}.cls-29{fill:#05304b;}.cls-30{fill:#143949;}.cls-31{fill:#004268;}.cls-32{fill:#475f77;}.cls-33{fill:#324359;}.cls-34{fill:#fbe7e1;}.cls-35{fill:#e9e7ec;}.cls-38{fill:#f6f9fa;}</style></defs><title>billing</title><g id="OBJECTS"><path class="cls-1" d="M12.22,47.2H473.09a6.17,6.17,0,0,1,6.15,6.15h0a6.17,6.17,0,0,1-6.15,6.15H12.22a6.16,6.16,0,0,1-6.14-6.15h0A6.16,6.16,0,0,1,12.22,47.2Z" transform="translate(-6.08 -47.2)"/><rect class="cls-2" x="22.54" y="3.54" width="14.9" height="410.76" rx="7.45"/><path class="cls-1" d="M200.18,50.74h0a7.48,7.48,0,0,1,7.46,7.45V454.05a7.48,7.48,0,0,1-7.46,7.45h0a7.48,7.48,0,0,1-7.45-7.45V58.19A7.48,7.48,0,0,1,200.18,50.74Z" transform="translate(-6.08 -47.2)"/><path class="cls-1" d="M449.06,50.74h0a7.48,7.48,0,0,1,7.45,7.45V454.05a7.47,7.47,0,0,1-7.45,7.45h0a7.47,7.47,0,0,1-7.45-7.45V58.19A7.48,7.48,0,0,1,449.06,50.74Z" transform="translate(-6.08 -47.2)"/><path class="cls-1" d="M18.68,170.82A4.84,4.84,0,0,1,21,172.1h0a4.74,4.74,0,0,1,1.41,3.37v22A4.78,4.78,0,0,1,21,200.84h0a4.77,4.77,0,0,1-6.75,0h0a4.77,4.77,0,0,1-1.4-3.38v-22a4.73,4.73,0,0,1,1.4-3.37h0a4.84,4.84,0,0,1,2.32-1.28V53.16a1.06,1.06,0,0,1,2.11,0V170.82Zm-1.05,2a2.67,2.67,0,0,0-1.89.78,2.7,2.7,0,0,0-.78,1.89v22a2.67,2.67,0,0,0,4.55,1.89,2.64,2.64,0,0,0,.79-1.89v-22a2.68,2.68,0,0,0-2.67-2.67Z" transform="translate(-6.08 -47.2)"/><path class="cls-1" d="M467.62,170.82a4.84,4.84,0,0,1,2.32,1.28h0a4.74,4.74,0,0,1,1.41,3.37v22a4.78,4.78,0,0,1-1.41,3.38h0a4.77,4.77,0,0,1-6.75,0h0a4.78,4.78,0,0,1-1.41-3.38v-22a4.74,4.74,0,0,1,1.41-3.37h0a4.84,4.84,0,0,1,2.32-1.28V53.16a1.06,1.06,0,0,1,2.11,0V170.82Zm-1.05,2a2.67,2.67,0,0,0-1.89.78,2.7,2.7,0,0,0-.78,1.89v22a2.67,2.67,0,0,0,5.34,0v-22a2.71,2.71,0,0,0-.79-1.89A2.66,2.66,0,0,0,466.57,172.81Z" transform="translate(-6.08 -47.2)"/><path class="cls-1" d="M50.65,66.11H188.17c.6,0,.89.5.65,1.1L187.3,71a1.82,1.82,0,0,1-1.54,1.09H48.25c-.61,0-.9-.49-.66-1.09l1.52-3.77A1.83,1.83,0,0,1,50.65,66.11Z" transform="translate(-6.08 -47.2)"/><path class="cls-1" d="M50.65,76.82H188.17c.6,0,.89.5.65,1.1l-1.52,3.77a1.83,1.83,0,0,1-1.54,1.1H48.25c-.61,0-.9-.5-.66-1.1l1.52-3.77A1.83,1.83,0,0,1,50.65,76.82Z" transform="translate(-6.08 -47.2)"/><path class="cls-1" d="M50.65,87.54H188.17c.6,0,.89.49.65,1.09L187.3,92.4a1.83,1.83,0,0,1-1.54,1.1H48.25c-.61,0-.9-.5-.66-1.1l1.52-3.77A1.82,1.82,0,0,1,50.65,87.54Z" transform="translate(-6.08 -47.2)"/><path class="cls-1" d="M220.15,66.11H432.72c.6,0,.79.5.42,1.1L430.81,71A2.43,2.43,0,0,1,429,72.07H216.46c-.61,0-.8-.49-.42-1.09l2.33-3.77A2.41,2.41,0,0,1,220.15,66.11Z" transform="translate(-6.08 -47.2)"/><path class="cls-1" d="M220.15,76.82H432.72c.6,0,.79.5.42,1.1l-2.33,3.77a2.44,2.44,0,0,1-1.78,1.1H216.46c-.61,0-.8-.5-.42-1.1l2.33-3.77A2.41,2.41,0,0,1,220.15,76.82Z" transform="translate(-6.08 -47.2)"/><path class="cls-1" d="M220.15,87.54H432.72c.6,0,.79.49.42,1.09l-2.33,3.77A2.44,2.44,0,0,1,429,93.5H216.46c-.61,0-.8-.5-.42-1.1l2.33-3.77A2.4,2.4,0,0,1,220.15,87.54Z" transform="translate(-6.08 -47.2)"/><polygon class="cls-3" points="44.16 34.68 58.14 34.68 179.94 156.48 179.94 231.68 44.16 95.89 44.16 34.68"/><polygon class="cls-3" points="105.64 34.68 179.94 34.68 179.94 108.99 105.64 34.68"/><polygon class="cls-3" points="407.52 384.06 332.33 384.06 208.28 260.01 208.28 184.81 407.52 384.06"/><polygon class="cls-3" points="208.28 34.68 246.13 34.68 428.81 217.36 428.81 357.86 208.28 137.32 208.28 34.68"/><polygon class="cls-4" points="64 40.54 44.16 40.54 44.16 34.68 58.14 34.68 64 40.54"/><path class="cls-4" d="M50.65,92.5H74.83l6,6H50.24V92.57A1.14,1.14,0,0,1,50.65,92.5Z" transform="translate(-6.08 -47.2)"/><path class="cls-4" d="M50.65,103.21H85.54l6,6H50.24v-5.89A1.14,1.14,0,0,1,50.65,103.21Z" transform="translate(-6.08 -47.2)"/><path class="cls-4" d="M186,87.72a1.15,1.15,0,0,1-.26,0H117.57l-5.86-5.86H186Z" transform="translate(-6.08 -47.2)"/><path class="cls-4" d="M122.32,92.5H186v5.93a1.15,1.15,0,0,1-.26,0H128.28Z" transform="translate(-6.08 -47.2)"/><path class="cls-4" d="M133,103.21h53v5.93a1.15,1.15,0,0,1-.26,0H139Z" transform="translate(-6.08 -47.2)"/><path class="cls-4" d="M258.07,87.75H216.46c-.61,0-.8-.5-.42-1.1l2.33-3.77a2.54,2.54,0,0,1,1.25-1h32.59Z" transform="translate(-6.08 -47.2)"/><path class="cls-4" d="M220.15,92.5h42.67l6,6H216.46c-.61,0-.8-.5-.42-1.1l2.33-3.77A2.4,2.4,0,0,1,220.15,92.5Z" transform="translate(-6.08 -47.2)"/><path class="cls-4" d="M220.15,103.21h53.38l6,6h-63c-.61,0-.8-.5-.42-1.1l2.33-3.77A2.4,2.4,0,0,1,220.15,103.21Z" transform="translate(-6.08 -47.2)"/><path class="cls-5" d="M303,229.87l20.54.74a4,4,0,0,1,2.87,2.13l3.76,6s-1.63,2.87-2.79,2.87H305.53a3.32,3.32,0,0,1-2.87-2.13l-2.35-6.7c-.49-1.4,1.16-3.46,1.73-3.81C302.28,228.79,302.67,229.86,303,229.87Z" transform="translate(-6.08 -47.2)"/><path class="cls-5" d="M296.91,252.75l23,1.63a7.55,7.55,0,0,1,6.25,4.63L339,295.67c.9,2.54-.46,4.62-3,4.62H309.3a7.21,7.21,0,0,1-6.25-4.62L290.56,260c-.63-1.8,2.92-9.43,3.82-10.53C294.79,248.93,296.09,252.69,296.91,252.75Z" transform="translate(-6.08 -47.2)"/><path class="cls-5" d="M341.3,276.58l8.21,23.47c1.14,3.25-.59,5.91-3.84,5.91H297.5a9.22,9.22,0,0,1-8-5.91l-8.22-23.47a2,2,0,0,1,.33-2.11l3.24-4.94,3.88,2.39a20,20,0,0,1-.21,2h49.21A4.11,4.11,0,0,1,341.3,276.58Z" transform="translate(-6.08 -47.2)"/><polygon class="cls-6" points="309 189.35 312.47 189.35 317.37 203.34 313.89 203.34 309 189.35"/><path class="cls-6" d="M303.09,228.57h21.85a3.32,3.32,0,0,1,2.87,2.13l2.35,6.7a1.47,1.47,0,0,1-1.39,2.13H306.92a3.32,3.32,0,0,1-2.86-2.13l-2.35-6.7A1.46,1.46,0,0,1,303.09,228.57Z" transform="translate(-6.08 -47.2)"/><path class="cls-7" d="M303.65,230.17a.37.37,0,0,0-.35.53l2.35,6.7a.84.84,0,0,0,.72.54h21.85a.38.38,0,0,0,.35-.54l-2.35-6.7a.83.83,0,0,0-.72-.53Z" transform="translate(-6.08 -47.2)"/><path class="cls-8" d="M297.48,288.07l-7.13-20.37c-.43-1.1,2.35-5.14,2.69-5.12l37.87,2.49,6,17.1c1.14,3.25-.59,5.91-3.84,5.91H297.48Z" transform="translate(-6.08 -47.2)"/><path class="cls-8" d="M297.09,248.2h26.66a7.22,7.22,0,0,1,6.25,4.63l12.82,36.66c.89,2.54-.46,4.62-3,4.62H313.15a7.21,7.21,0,0,1-6.25-4.62l-12.82-36.66C293.18,250.29,294.54,248.2,297.09,248.2Z" transform="translate(-6.08 -47.2)"/><path class="cls-6" d="M344.74,271.39,353,294.86c1.14,3.25-.59,5.91-3.85,5.91H300.94a9.22,9.22,0,0,1-8-5.91l-8.21-23.47a1.8,1.8,0,0,1,1.7-2.63h54.74A4.11,4.11,0,0,1,344.74,271.39Z" transform="translate(-6.08 -47.2)"/><path class="cls-8" d="M339.72,264.73l8.21,23.47c1.14,3.25-.59,5.91-3.84,5.91H308.88a9.22,9.22,0,0,1-8-5.91l-8.21-23.47a1.81,1.81,0,0,1,1.71-2.63h41.78A4.09,4.09,0,0,1,339.72,264.73Z" transform="translate(-6.08 -47.2)"/><path class="cls-9" d="M299.81,285.09l-7.13-20.36a1.81,1.81,0,0,1,1.71-2.63h38.85l6,17.09c1.14,3.25-.59,5.92-3.84,5.92H300.17Z" transform="translate(-6.08 -47.2)"/><path class="cls-6" d="M322.5,248.2l.82,2.35,1,2.74c.89,2.54-.47,4.63-3,4.63H295.85l1.47,4.18h35.92L330,252.83a7.22,7.22,0,0,0-6.25-4.63H322.5Z" transform="translate(-6.08 -47.2)"/><path class="cls-5" d="M292.07,268.76l5.77,16.47a1.81,1.81,0,0,1-1.71,2.63h-5.57l.78,2.25h10.52a7.72,7.72,0,0,1-1-1.91l-1.09-3.11-5.71-16.33Z" transform="translate(-6.08 -47.2)"/><path class="cls-10" d="M296,264.67h19.92a1.87,1.87,0,0,1,1.63,1.21h0a.82.82,0,0,1-.78,1.2H296.81a1.87,1.87,0,0,1-1.62-1.2h0A.83.83,0,0,1,296,264.67Z" transform="translate(-6.08 -47.2)"/><path class="cls-7" d="M321.05,264.67H320a.83.83,0,0,0-.78,1.21h0a1.87,1.87,0,0,0,1.62,1.2h1.09a.82.82,0,0,0,.78-1.2h0A1.87,1.87,0,0,0,321.05,264.67Z" transform="translate(-6.08 -47.2)"/><path class="cls-7" d="M298.58,270.61h8.07a2.19,2.19,0,0,1,1.88,1.39l3.07,8.79a1,1,0,0,1-.9,1.39h-8.07a2.18,2.18,0,0,1-1.88-1.39L297.68,272A1,1,0,0,1,298.58,270.61Z" transform="translate(-6.08 -47.2)"/><path class="cls-10" d="M310.76,270.61h21.15a.92.92,0,0,1,.79.59h0a.41.41,0,0,1-.39.59H311.17a.9.9,0,0,1-.79-.59h0A.4.4,0,0,1,310.76,270.61Z" transform="translate(-6.08 -47.2)"/><path class="cls-10" d="M312,274.07h21.15a1,1,0,0,1,.8.59h0a.41.41,0,0,1-.39.59H312.39a.91.91,0,0,1-.8-.59h0A.4.4,0,0,1,312,274.07Z" transform="translate(-6.08 -47.2)"/><path class="cls-10" d="M313.18,277.54h21.15a.92.92,0,0,1,.8.59h0a.41.41,0,0,1-.39.59H313.6a.92.92,0,0,1-.8-.59h0A.4.4,0,0,1,313.18,277.54Z" transform="translate(-6.08 -47.2)"/><path class="cls-10" d="M314.4,281h21.14a.92.92,0,0,1,.8.59h0a.4.4,0,0,1-.38.59H314.81a.91.91,0,0,1-.8-.59h0A.41.41,0,0,1,314.4,281Z" transform="translate(-6.08 -47.2)"/><polygon class="cls-10" points="474.47 242.91 453.25 242.91 445.81 209.86 467.03 209.86 474.47 242.91"/><polygon class="cls-7" points="438.37 242.91 459.59 242.91 467.03 209.86 445.81 209.86 438.37 242.91"/><path class="cls-10" d="M454.12,262a.51.51,0,0,1-.51-.66.88.88,0,0,1,.81-.66h14.52a.51.51,0,0,1,.51.66.86.86,0,0,1-.81.66Zm-5.51,24.49a.51.51,0,0,1-.51-.66.87.87,0,0,1,.81-.66h14.51a.52.52,0,0,1,.52.66.88.88,0,0,1-.81.66Zm1.1-4.9a.51.51,0,0,1-.51-.66.88.88,0,0,1,.81-.66h14.52a.51.51,0,0,1,.51.66.87.87,0,0,1-.81.66Zm1.11-4.89a.52.52,0,0,1-.52-.66.88.88,0,0,1,.81-.66h14.52a.51.51,0,0,1,.51.66.87.87,0,0,1-.81.66Zm1.1-4.9a.51.51,0,0,1-.51-.66.86.86,0,0,1,.81-.66h14.51a.51.51,0,0,1,.52.66.88.88,0,0,1-.81.66Zm1.1-4.9a.51.51,0,0,1-.51-.66.87.87,0,0,1,.81-.66h14.52a.51.51,0,0,1,.51.66.87.87,0,0,1-.81.66Z" transform="translate(-6.08 -47.2)"/><path class="cls-5" d="M190.3,119A14.13,14.13,0,1,1,175,131.83,14.12,14.12,0,0,1,190.3,119Z" transform="translate(-6.08 -47.2)"/><path class="cls-6" d="M190.3,119a14.13,14.13,0,0,1,12.53,11v.1a11.36,11.36,0,1,1-17.09-10.82A13.91,13.91,0,0,1,190.3,119Z" transform="translate(-6.08 -47.2)"/><path class="cls-11" d="M180.28,437.1l.86-1.1s.19-7.59.51-8.85,6.81-.94,6.89-.15-2.74,8.1-2.9,10.33,1.64,7.89,1.64,7.89.95,1.35,0,1.59-3.22,1-4.12.12S179.45,440.07,180.28,437.1Z" transform="translate(-6.08 -47.2)"/><path class="cls-11" d="M220.35,429.11s1.41,9.52,1.37,10.34a5.92,5.92,0,0,1-.75,2l.28,2s3.8,2.66,5.95,3a20.31,20.31,0,0,0,6.26.19c1-.31.9-.93.9-.93s-5.28-3.14-6.77-5.18-1.45-11.74-1.45-12.29S220.35,429.11,220.35,429.11Z" transform="translate(-6.08 -47.2)"/><path class="cls-6" d="M205.61,278.25s0,.28,0,.82c.59,8.73,5.64,85,3.43,121.52,0,0-.85,19.82-1.17,23s-.71,4.26.55,5.21,15.9,4.87,20.53,4.67c0,0,3.1.18,2.93-3.5s-1-45.08,1.2-88.22-.34-87.85-5.85-94.39-25.93-3.06-25.93-3.06S203.21,258,205.61,278.25Z" transform="translate(-6.08 -47.2)"/><path class="cls-5" d="M205.61,278.25s0,.28,0,.82c.59,8.73,5.64,85,3.43,121.52,0,0-.85,19.82-1.17,23s-.71,4.26.55,5.21c.69.51,5.39,1.92,10.26,3.07-2.36-12.7-5-46.19-4.26-52.56.81-7.2,2.41-51.55,4.95-78.74,1.49-16,7.83-25.72,12.8-31a114.51,114.51,0,0,0-2.57-16.41c-2.05-2.6-4.3-5.46-6.56-8.38-8-2.78-21.74-.44-21.74-.44S203.21,258,205.61,278.25Z" transform="translate(-6.08 -47.2)"/><path class="cls-12" d="M217.12,290.37c-.44-1.22-.81-1.91-.3-2.52s2.2.09,2.2.09S218.08,290.37,217.12,290.37Z" transform="translate(-6.08 -47.2)"/><path class="cls-5" d="M211.57,290.69s0,.28-.11.81c-5.76,41.8-13.24,95.09-11.87,137.05.1,3.23.43,4.33-.91,5.15-4.23,2.6-19.76-.76-22.18-2.6a3.15,3.15,0,0,1-1-3.1c.42-3.65,3.48-32.63,4.22-75.83s6.42-87.61,12.37-93.75,26.08-1.27,26.08-1.27S215.36,270.6,211.57,290.69Z" transform="translate(-6.08 -47.2)"/><path class="cls-6" d="M211.57,290.69s0,.28-.11.81c-5.76,41.8-13.24,95.09-11.87,137.05.1,3.23.43,4.33-.91,5.15-2.25,1.38-7.67,1.08-12.63.22-.75-14.45-.25-43-.4-47.33-.18-5.59,5.8-85.06,7.9-90.21,1.26-3.05,10.92-6.35,18.56-8.53C211.93,288.78,211.75,289.73,211.57,290.69Z" transform="translate(-6.08 -47.2)"/><path class="cls-12" d="M210.6,289.74c.44-1.22.81-1.9.3-2.52s-2.2.09-2.2.09S209.64,289.74,210.6,289.74Z" transform="translate(-6.08 -47.2)"/><path class="cls-13" d="M230.46,304.36c-.49-9.45-4.7-15.22-10.09-17.79a16.34,16.34,0,0,0-7.62-1.55,18.35,18.35,0,0,0-7.62,2c-5.89,3-10.54,9.16-10.71,17.92l2.54.05c.15-7.7,4.19-13.12,9.31-15.69a15.7,15.7,0,0,1,6.56-1.7,14,14,0,0,1,6.45,1.32c4.61,2.2,8.21,7.24,8.65,15.62Z" transform="translate(-6.08 -47.2)"/><path class="cls-11" d="M221.15,280s-.37,1.89-1.49,2.36c-.86.37-4.45,1.95-4.86,2.26s.51.92,1,1.16c1.21.61,3.54-.84,1.37,4-.9,2,4.77,3.21,6.39,2.44a5.11,5.11,0,0,0,2.21-3.63c0-2.84-.94-3.71-.23-5.72S221.15,280,221.15,280Z" transform="translate(-6.08 -47.2)"/><path class="cls-8" d="M232.8,142.38C230,129.69,219,127.29,215.26,129.55c0,0-14.23-9.38-23.88-1.13-4.13,3.55-7.53,9-10.08,15.39h0l0,.06h0l0,.08h0l0,.11h0l0,.13h0l0,.15-.05.19-.06.2h0L181,145v0c0,.16-.09.33-.14.52v0c-.11.46-.23,1-.35,1.58v.09l-.06.31v0l-.06.35V148l-.05.33v.08l-.05.31,0,.13,0,.32v.08l0,.36v.09c0,.12,0,.24,0,.37v.08l0,.35v.13l0,.31v.17l0,.32v.15c0,.12,0,.24,0,.36V152c0,.12,0,.24,0,.36v.14c0,.12,0,.25,0,.37V153c0,.14,0,.28,0,.43v.06c0,.15,0,.29,0,.44v.08l0,.49v0c0,.18,0,.35,0,.53h0c.07.7.17,1.41.31,2.12l0,.09.09.43,0,.14.09.38.05.18.09.34.06.2c0,.11.07.22.1.33a1.59,1.59,0,0,1,.07.2c0,.11.07.21.11.31a1.8,1.8,0,0,0,.08.21l.12.32.08.19c0,.1.09.21.13.32a1.86,1.86,0,0,0,.1.2c0,.1.09.2.14.31l.1.2.15.29.12.22.15.28c0,.07.09.14.13.22l.17.27.13.21.18.27.15.22c.07.08.13.17.19.25l.17.22.19.25.18.21c.07.08.14.17.22.25s.11.13.17.2l.24.25c.06.06.12.13.19.19l.24.24c.07.07.14.13.2.2l.26.22.22.2.26.21.24.19.28.22c.08,0,.16.12.24.18l.3.2.26.18.31.19.27.17.34.19.27.16.39.2.25.13.46.22.21.1.71.3c14.6,5.9,22.34,6,23.24,5.94.38-6,2.76-8.74,12.37-9.6,9.81-.88,8.48-14.42,7.79-18.75-.25-1.48-.53-2.9-.83-4.27Zm-19.35,37v.38h0V180l0-.07C213.47,179.72,213.46,179.54,213.45,179.35Z" transform="translate(-6.08 -47.2)"/><path class="cls-6" d="M225.38,165.45l.46,0c4.66-.41,6.8-3.68,7.7-7.46-9.07-.25-11.37-8.67-11.37-8.67s-3.4,11.32-3.29,11.94C218.88,161.21,222.53,163.83,225.38,165.45Z" transform="translate(-6.08 -47.2)"/><path class="cls-5" d="M213.47,180l.61-2a12.64,12.64,0,0,0,3.28.07l3.1-13.31.77-19.62S198.67,165,180,154.77c.43,5.36,2.79,11.28,10.24,14.29,15.57,6.29,23.33,5.94,23.33,5.94A43.42,43.42,0,0,0,213.47,180Z" transform="translate(-6.08 -47.2)"/><path class="cls-14" d="M183.35,200.94c9.77-6.64,18.3-5.13,31.65-5.74,8.06.93,12.17,6.19,14.06,13.55h0c1.31,10.24,9.49,14-.8,26.55h0c-.81,9-.89,15.43-.94,22.13-.08,11.31-37.63,6.19-36.39,1,3.92-16.6.58-23.52-4.06-30.7h0C180.21,212.42,182.67,203,183.35,200.94Z" transform="translate(-6.08 -47.2)"/><path class="cls-15" d="M183.47,200.62c6.34-4.61,10.64-4.47,17.4-4.77l6.52,2.59s-13.1-5-13.62,8.1,8.41,27.39,14.67,29.28,10.93-7.24,16.29-3.18c5.16,3.9,8-1.61,8.16-2a22.59,22.59,0,0,1-3.15,5.19h0c-.07.78-.15,1.54-.23,2.28-10.7-1.19-26,.45-25.76,10.21.18,9.2,7.85,13.7,13.19,15.73-10.78,1.18-26.94-2.26-26-5.62,4.51-16.11,1-22.9-3.82-30.12-.08-.19-.15-.39-.24-.59C179.72,211.32,183.08,201.64,183.47,200.62Z" transform="translate(-6.08 -47.2)"/><path class="cls-12" d="M200.7,176.92l0,4.59s-.47,9.38-.54,10.8-1.56,3.85-5.71,3.83c-3.39,0,7.39,6.33,14.38,5.89,7.24-.46,9.68-6,7-6.76a4.87,4.87,0,0,1-2.11-1.57c-1.48-1.78-1-9.4.65-11.32S200.7,176.92,200.7,176.92Z" transform="translate(-6.08 -47.2)"/><path class="cls-11" d="M206.57,279.32s.37,1.89,1.49,2.36c.86.37,4.44,1.95,4.86,2.26s-.51.93-1,1.16c-1.21.61-3.54-.84-1.37,4,.9,2-4.77,3.21-6.39,2.44a5.11,5.11,0,0,1-2.21-3.63c0-2.84.94-3.71.23-5.72S206.57,279.32,206.57,279.32Z" transform="translate(-6.08 -47.2)"/><path class="cls-14" d="M178.6,223.24c5.1,17,20.37,45.8,23,58.47,0,0,.4.8,1.07.6,2.52-.76,5.27-.76,4.67-2.5,0-.1-14.42-51.84-17.94-71.14C186.11,190.54,173.36,205.78,178.6,223.24Z" transform="translate(-6.08 -47.2)"/><path class="cls-15" d="M225.37,201l-1-1.34s19.14,24.55,9.33,55.87-7.58,26.17-8.79,26.61-2.08-.95-3.18-.86-.9-.71-.55-2c.11-.41,3.82-10.32,4.82-17.68C228.26,245.23,228.35,221.58,225.37,201Z" transform="translate(-6.08 -47.2)"/><path class="cls-14" d="M225.76,205a29,29,0,0,1,.92,2.95h0c3.8,10.26,11.85,15.57,1.73,27.88h0c-.29,3.18-.84,6-1.21,8.63-4.07,1.31-5.15-1.59-9.49-2.81a14.44,14.44,0,0,1-9-8.59c-1.11-3.34-2.09-12.39-1.83-14.66s11.81-14.22,11.81-14.22Z" transform="translate(-6.08 -47.2)"/><path class="cls-15" d="M201.62,231c6.13,4,30.91.88,31.45-.24a21.87,21.87,0,0,1-3.33,5h0c-.07.78-.15,1.54-.23,2.28a46.68,46.68,0,0,0-16.71.93C211.76,238.12,200.49,235.87,201.62,231Z" transform="translate(-6.08 -47.2)"/><path class="cls-12" d="M190.61,163.69a5.38,5.38,0,1,0,5,5.75A5.38,5.38,0,0,0,190.61,163.69Z" transform="translate(-6.08 -47.2)"/><path class="cls-16" d="M212.14,138h0A18.46,18.46,0,0,0,192.46,155l-1.19,16.69a18.47,18.47,0,0,0,17.06,19.68h0A18.46,18.46,0,0,0,228,174.34l1.19-16.69A18.47,18.47,0,0,0,212.14,138Z" transform="translate(-6.08 -47.2)"/><path class="cls-11" d="M193.2,151a18.51,18.51,0,0,0-.74,4l-1.19,16.69a18.47,18.47,0,0,0,17.06,19.68c-19.36-5.27-9.36-27.61-3.16-29.35s11.86-9.17,15-8.34,8.62,8.84,8.6,9.56l.4-5.62a18.35,18.35,0,0,0-.56-6c-1.67-.37-4-7.43-7.56-7.62-4.22-.23-9.9,6.42-14.72,6.08a47.07,47.07,0,0,0-13.16.89Zm15.13,40.4" transform="translate(-6.08 -47.2)"/><path class="cls-5" d="M222.9,166.32h0A1.81,1.81,0,0,0,221,168l-.17,2.34a1.81,1.81,0,0,0,1.67,1.93h0a1.81,1.81,0,0,0,1.93-1.67l.17-2.35A1.8,1.8,0,0,0,222.9,166.32Z" transform="translate(-6.08 -47.2)"/><path class="cls-5" d="M202.38,164.86h0a1.81,1.81,0,0,0-1.93,1.67l-.17,2.34A1.81,1.81,0,0,0,202,170.8h0a1.81,1.81,0,0,0,1.93-1.67l.17-2.35A1.8,1.8,0,0,0,202.38,164.86Z" transform="translate(-6.08 -47.2)"/><path class="cls-12" d="M223.56,173.5a2.66,2.66,0,1,0,2.47,2.84A2.65,2.65,0,0,0,223.56,173.5Z" transform="translate(-6.08 -47.2)"/><path class="cls-12" d="M200.7,171.87a2.66,2.66,0,1,0,2.47,2.84A2.67,2.67,0,0,0,200.7,171.87Z" transform="translate(-6.08 -47.2)"/><path class="cls-5" d="M189.47,163.73l4.06-1.37s1.78,4.94-2,6.33l.16-2.29A2.28,2.28,0,0,0,189.47,163.73Z" transform="translate(-6.08 -47.2)"/><path class="cls-8" d="M221.23,145.1s-2.94,13.61-30.62,18.59l1.71-19.85L206.93,135l13.45,2.79s7,5.31,7.56,6.39,3.92,14.26,3.92,14.26l-2.86,2S223.34,157.4,221.23,145.1Z" transform="translate(-6.08 -47.2)"/><path class="cls-6" d="M231.68,157.76l.18.7-2.86,2s-4.33-2.34-6.82-11.15C222.34,149.86,224.46,156.58,231.68,157.76Z" transform="translate(-6.08 -47.2)"/><path class="cls-5" d="M221.23,145.1s-2.94,13.61-30.62,18.59l.52-6C206.59,158,221.23,145.1,221.23,145.1Z" transform="translate(-6.08 -47.2)"/><path class="cls-5" d="M207.3,178.16a4.76,4.76,0,0,0,9.49.87h0a.83.83,0,0,0-.75-.89l-7.83-.72a.83.83,0,0,0-.9.74Z" transform="translate(-6.08 -47.2)"/><path class="cls-17" d="M208.73,182a4.76,4.76,0,0,0,2.88,1.32,4.69,4.69,0,0,0,2.58-.49,3,3,0,0,0-2.56-2A3,3,0,0,0,208.73,182Z" transform="translate(-6.08 -47.2)"/><path class="cls-7" d="M216.15,178.15l-7.37-.67a1.68,1.68,0,0,0,.64,1.89c.65.28,6,.63,6.41.24A2.88,2.88,0,0,0,216.15,178.15Z" transform="translate(-6.08 -47.2)"/><path class="cls-5" d="M206.55,160.15a.76.76,0,0,1-.87,1.25,5,5,0,0,0-4.48-.55.77.77,0,0,1-1-.43.78.78,0,0,1,.43-1A6.6,6.6,0,0,1,206.55,160.15Z" transform="translate(-6.08 -47.2)"/><path class="cls-5" d="M220.27,160.56a.77.77,0,0,0-.43,1,.76.76,0,0,0,1,.43,5,5,0,0,1,4.48.53.76.76,0,0,0,.88-1.25A6.64,6.64,0,0,0,220.27,160.56Z" transform="translate(-6.08 -47.2)"/><path class="cls-10" d="M227.11,132.23c-3.58-3.1-7.87-3.88-10.54-3.21C208,154.1,188,151.11,180.18,148.85c-.09.69-.17,1.43-.22,2.19C202.58,162.45,221.21,140.42,227.11,132.23Z" transform="translate(-6.08 -47.2)"/><path class="cls-14" d="M181.14,436a1.44,1.44,0,0,0-1.14-.35,9.56,9.56,0,0,0-4.48,4.48,1.8,1.8,0,0,0,.31,1.43c.51.73,6.3,8.32,6.3,8.32a3.25,3.25,0,0,0,2,.66h10.69s.68-.44.53-.91-.27-.8-1.84-1.15-4.5-1.24-5.36-3.24a1.8,1.8,0,0,0-.91,0,20.05,20.05,0,0,1-3.17.65C183.56,445.81,180.35,440.23,181.14,436Z" transform="translate(-6.08 -47.2)"/><path class="cls-15" d="M176.06,439.09a6.84,6.84,0,0,0-.54,1,1.8,1.8,0,0,0,.31,1.43c.51.73,6.3,8.32,6.3,8.32a3.25,3.25,0,0,0,2,.66h10.69s.68-.44.53-.91c-.75,0-11.58-.53-12.11-1S176.07,439.09,176.06,439.09Z" transform="translate(-6.08 -47.2)"/><path class="cls-14" d="M221.6,450.54h21.07s.74-.34.58-1a1.77,1.77,0,0,0-1.15-1.31,14.93,14.93,0,0,1-7.36-2.53s-3.53.83-4.19.91-6.37-1.84-9.58-5.1a3.46,3.46,0,0,0-.78,1.26C220.07,443.3,219.68,448.18,221.6,450.54Z" transform="translate(-6.08 -47.2)"/><path class="cls-15" d="M221.6,450.54h21.07s.74-.34.58-1a1.87,1.87,0,0,0-.32-.7,3.22,3.22,0,0,1-1.67.55c-.7.05-20.54-.49-20.56-.49A5.59,5.59,0,0,0,221.6,450.54Z" transform="translate(-6.08 -47.2)"/><path class="cls-7" d="M210.68,201.78c-2.62,20.51-26.69-8.95-13-6.3C197.7,195.48,199.8,201.12,210.68,201.78Z" transform="translate(-6.08 -47.2)"/><path class="cls-7" d="M216,195.33s.47,4.74-5.32,6.45c0,0,2.82,6.59,6.71,5.52S220.74,194.17,216,195.33Z" transform="translate(-6.08 -47.2)"/><path class="cls-16" d="M84.46,276.57a15.3,15.3,0,0,0,3,.9c1.83.35-.43,3.22-3.37,2.47s-4.93-1.79-4.51-2.88S81.11,274.89,84.46,276.57Z" transform="translate(-6.08 -47.2)"/><path class="cls-11" d="M88.09,277.84c.44.85-1.53,2.72-4,2.1-.49-.13-.94-.26-1.37-.4a10.35,10.35,0,0,1-.2-1.25A6,6,0,0,0,88.09,277.84Z" transform="translate(-6.08 -47.2)"/><path class="cls-16" d="M130.42,211.6a167.21,167.21,0,0,0,5.57,21c4.33,11.84,12.48,28.1,14.32,32.89h0l1.47,2.54s3.37,1.4,3.72,3.54l-10.06,0a9.58,9.58,0,0,0-.35-3.65h0c-4.25-5.63-16.67-27.77-21.81-48.66-.69-2.81-1.27-5.36-1.76-7.68Z" transform="translate(-6.08 -47.2)"/><path class="cls-11" d="M131.15,215c.51,2.27,1,4.55,1.61,6.78-1.07,3.56-2.38,9.22-1.55,13.66,1.31,7,11.37,25.8,13.47,29.2,1.1,1.8,1.28,3.53,3.41,4.59,1.58.79,4.61.44,6.69.92a14.8,14.8,0,0,1,1.94,3.05c-.56.87-2,.09-3.27-.54l-8-1a9.58,9.58,0,0,0-.35-3.65h0c-4-5.3-15.23-25.23-20.83-45,.92-4.93,1.71-9.07,2.15-11.37h2Z" transform="translate(-6.08 -47.2)"/><path class="cls-18" d="M72.59,214.7l-3.5.45s.22,6.77,10.54,12.19c0,0,.4-4.59.44-5.42S72.59,214.7,72.59,214.7Z" transform="translate(-6.08 -47.2)"/><path class="cls-5" d="M159.77,271h-18a1.85,1.85,0,0,0-1.32.55,1.88,1.88,0,0,0-.56,1.33v11.91a1.91,1.91,0,0,0,.55,1.32l.06.05a1.85,1.85,0,0,0,1.27.5h18a1.88,1.88,0,0,0,1.88-1.87V272.92a1.88,1.88,0,0,0-1.88-1.88Zm-18,1.5h18a.41.41,0,0,1,.27.11.39.39,0,0,1,.11.27v11.91a.35.35,0,0,1-.11.26.37.37,0,0,1-.27.11h-18a.38.38,0,0,1-.25-.09l0,0a.39.39,0,0,1-.11-.26V272.92a.44.44,0,0,1,.11-.27A.41.41,0,0,1,141.82,272.54Z" transform="translate(-6.08 -47.2)"/><path class="cls-19" d="M123.19,228.69h42.51a2.66,2.66,0,0,1,2.66,2.66v28.2a2.67,2.67,0,0,1-2.67,2.67H123.19a2.67,2.67,0,0,1-2.67-2.67v-28.2A2.67,2.67,0,0,1,123.19,228.69Z"/><rect class="cls-20" x="132.1" y="233.33" width="24.7" height="3.46" rx="1.1"/><path class="cls-21" d="M169.86,306.89H127.34a3.07,3.07,0,0,1-.74-.1,2.68,2.68,0,0,0,2.67,2.64h42.51a2.68,2.68,0,0,0,2.67-2.67v-28.2a2.68,2.68,0,0,0-1.16-2.2,2.59,2.59,0,0,0-.77-.36v28.22A2.67,2.67,0,0,1,169.86,306.89Z" transform="translate(-6.08 -47.2)"/><path class="cls-22" d="M165,275.89v21.95a2.67,2.67,0,0,1-2.66,2.67H126.6v6.28a3.07,3.07,0,0,0,.74.1h42.52a2.67,2.67,0,0,0,2.66-2.67V276a2.55,2.55,0,0,0-.74-.11Z" transform="translate(-6.08 -47.2)"/><path class="cls-16" d="M113.13,324.51s-.87,112.78-.91,113.7a6.54,6.54,0,0,1-.83,2.26l.31,2.22s4.22,3,6.62,3.35,5.83.57,7,.22,1-1,1-1-7-4-8.68-6.24,9.47-112.94,9.47-113.55S113.13,324.51,113.13,324.51Z" transform="translate(-6.08 -47.2)"/><path class="cls-11" d="M113.13,324.51s-.87,112.78-.91,113.7a6.54,6.54,0,0,1-.83,2.26l.31,2.22s4.22,3,6.62,3.35,5.83.57,7,.22a2.2,2.2,0,0,0,.34-.13c0-.07-.09-.15-.42-.21-3.15-.56-11.28-5.46-11.55-6.6s2.89-97.77,3.94-99.35c.77-1.15,5.73-2.16,8.32-2.62l.52-5.4-6.35-7.2C116.6,324.59,113.13,324.51,113.13,324.51Z" transform="translate(-6.08 -47.2)"/><path class="cls-16" d="M80.4,434.48l1-1.31s7.36-120.49,7.73-122,13.72,2.56,13.81,3.49S86.21,431.67,86,434.34s2.75,9.85,2.75,9.85,1.12,1.61,0,1.89-3.84,1.17-4.91.14S79.41,438,80.4,434.48Z" transform="translate(-6.08 -47.2)"/><path class="cls-11" d="M80.4,434.48l1-1.31s5.43-89,7.2-115c4.76.2,10,.52,13.75,1-.54,3.93-1.42,10.15-2.5,17.74-2.48.17-6.91.53-8.08,1-1.66.7-9,94.53-9,96s4.42,10.58,5,11.76c.24.52-1.71.52-4,.35C82.63,444.87,79.43,438,80.4,434.48Z" transform="translate(-6.08 -47.2)"/><path class="cls-6" d="M84.83,320.26a46.77,46.77,0,0,0-.54,4.7h0v0a1.62,1.62,0,0,0,0,.22c-.15,2.87-.77,4.88,1.35,7s33.31,5.61,41.56,1.42a3,3,0,0,0,1.62-2.57c2.61-22.77,4.73-64.95-.65-86.44-.24-1-25.14-.84-30.1,3.62a2.66,2.66,0,0,0-1.94,0s.11,1.15-1.45,3.31-3.32,10-3.69,19.4S86.25,308.34,84.83,320.26Z" transform="translate(-6.08 -47.2)"/><path class="cls-5" d="M84.83,320.26a46.77,46.77,0,0,0-.54,4.7h0v0a1.62,1.62,0,0,0,0,.22c-.15,2.87-.77,4.88,1.35,7s33.31,5.61,41.56,1.42a3,3,0,0,0,1.62-2.57l.13-1.16c-20.59,2.72-42.49-69.12-15.57-74.66,8.57-1.77,13.68-.8,16.79.81a92.75,92.75,0,0,0-2-11.43c-.24-1-25.14-.84-30.1,3.62a2.66,2.66,0,0,0-1.94,0s.11,1.15-1.45,3.31-3.32,10-3.69,19.4S86.25,308.34,84.83,320.26Z" transform="translate(-6.08 -47.2)"/><path class="cls-8" d="M125.61,132c-3.92-11.67-14.59-12.78-17.86-10.27,0,0-14.38-7.36-22.62,1.42C69.28,140.06,71.44,191,92.27,200.22c-.88-5.7,1.26-8.93,1.26-8.93-1.51,3.4-.45,9.22-.41,9.46.64.37,1.29.72,2,1a17.86,17.86,0,0,1,1.4-9.75c-.28,3.73,1.36,8.4,2.56,11.24C138.22,215,134.86,159.55,125.61,132Z" transform="translate(-6.08 -47.2)"/><path class="cls-6" d="M78.13,146.6c-4.14,19.33-1,45.19,12,54.82-.53-5.74,3.58-10.78,3.58-10.78-1.73,3.3-1,9.17-1,9.41a21.48,21.48,0,0,0,1.9,1.17,17.94,17.94,0,0,1,2-9.65c-.51,3.71.84,8.47,1.86,11.38,14.87,5.48,15.33,6.37,22.36-4.71L113.43,184l5.28-28.77-.14-18.62S96.7,157.76,78.13,146.6Z" transform="translate(-6.08 -47.2)"/><path class="cls-5" d="M97.67,159.2l-6.23-3.36c-19.66.08-8,32.72,2.57,40.43,6.92,5,20.7-2,21.46-3,10.31-13.71,8.86-32.86,8.76-35.42C123.9,149.45,97.67,159.2,97.67,159.2Z" transform="translate(-6.08 -47.2)"/><path class="cls-23" d="M85.79,190.73a23.29,23.29,0,0,1,11-4c4.38-.23,12.89-1.61,18.5-.81,1.67.24,7.63,2.67,9.17,6.87,1.33,3.62,8,15.75,8.33,18.47s-3.17,15.1-3.17,15.1l-.25,14.95c0,.92,0,1.83,0,2.76.45,10.7-34.23,7.73-34.39,2.64,0-.91-.08-1.78-.13-2.62h0a60,60,0,0,0-2.52-17.72c-2.8-9-3.8-12.71-3.8-12.71Z" transform="translate(-6.08 -47.2)"/><path class="cls-24" d="M132.85,212c-.11,2.7-1.76,9.12-2.64,12.38,0-.07.2-2.14-4.36-2.14s-19.41,1.75-22.56,5.69c-1.93,2.41-1.77,13.29,1.94,22.9-5.68-.75-10.13-2.3-10.18-4.11,0-.91-.08-1.78-.13-2.62h0a60,60,0,0,0-2.52-17.72c-2.8-9-3.8-12.71-3.8-12.71L88,208.51a20.3,20.3,0,0,0,1-2s.17-.79.7-.22,5.47,9.27,13.51,9.62S130.48,214.42,132.85,212Z" transform="translate(-6.08 -47.2)"/><path class="cls-7" d="M94.06,187.17a24,24,0,0,1,2.77-.44c4.38-.23,12.89-1.61,18.5-.81a10,10,0,0,1,2.27.73c1.13,5.51-2.81,9.6-10.86,8.6C100.57,194.49,95.94,189.52,94.06,187.17Z" transform="translate(-6.08 -47.2)"/><path class="cls-25" d="M100.4,169.14l.19,4.34v10.25c0,1-.48,2.25-3.28,2.91-.11,0-.38,0-.32.08,4.69,6.8,20.32,8.31,18.27-.81,0,0-.06,0-.09,0-3.56-1.63-3.32-10-1.59-12.21C115.06,171.77,100.4,169.14,100.4,169.14Z" transform="translate(-6.08 -47.2)"/><path class="cls-26" d="M88.06,156.48a5.1,5.1,0,1,0,5.29,4.9A5.1,5.1,0,0,0,88.06,156.48Z" transform="translate(-6.08 -47.2)"/><path class="cls-5" d="M87.79,279.5h-18A1.88,1.88,0,0,0,68,281.38v11.91a1.87,1.87,0,0,0,.55,1.32l0,.05a1.87,1.87,0,0,0,1.27.5h18a1.88,1.88,0,0,0,1.87-1.87V281.38a1.88,1.88,0,0,0-1.87-1.88Zm-18,1.5h18a.36.36,0,0,1,.26.11.37.37,0,0,1,.11.27v11.91a.38.38,0,0,1-.37.37h-18a.34.34,0,0,1-.24-.09l0,0a.36.36,0,0,1-.11-.26V281.38a.37.37,0,0,1,.11-.27A.35.35,0,0,1,69.83,281Z" transform="translate(-6.08 -47.2)"/><path class="cls-19" d="M51.2,237.15H93.72a2.66,2.66,0,0,1,2.66,2.66V268a2.67,2.67,0,0,1-2.67,2.67H51.21A2.67,2.67,0,0,1,48.54,268v-28.2A2.66,2.66,0,0,1,51.2,237.15Z"/><rect class="cls-20" x="60.11" y="241.79" width="24.7" height="3.46" rx="1.1"/><path class="cls-21" d="M97.87,315.35H55.36a2.55,2.55,0,0,1-.74-.11,2.67,2.67,0,0,0,2.66,2.65H99.8a2.67,2.67,0,0,0,2.66-2.67V287a2.67,2.67,0,0,0-1.15-2.19,2.49,2.49,0,0,0-.77-.37v28.22A2.68,2.68,0,0,1,97.87,315.35Z" transform="translate(-6.08 -47.2)"/><path class="cls-22" d="M93,284.35V306.3A2.68,2.68,0,0,1,90.35,309H54.62v6.27a2.55,2.55,0,0,0,.74.11H97.87a2.68,2.68,0,0,0,2.67-2.67V284.46a2.65,2.65,0,0,0-.74-.11Z" transform="translate(-6.08 -47.2)"/><path class="cls-16" d="M105.68,130h0A17.51,17.51,0,0,0,88.9,148.13L89.51,164a17.52,17.52,0,0,0,18.12,16.78h0a17.51,17.51,0,0,0,16.78-18.12l-.61-15.86A17.51,17.51,0,0,0,105.68,130Z" transform="translate(-6.08 -47.2)"/><path class="cls-25" d="M89.19,144.26a17.06,17.06,0,0,0-.29,3.87L89.51,164a17.52,17.52,0,0,0,18.12,16.78c-18.79-3-11.68-25-6-27.33s10.23-9.88,13.3-9.42,9,7.43,9.1,8.11l-.21-5.34a17.29,17.29,0,0,0-1.15-5.59c-1.61-.17-4.55-6.58-7.91-6.39-4,.22-8.67,7.07-13.24,7.25a44.17,44.17,0,0,0-12.31,2.21Zm18.44,36.5" transform="translate(-6.08 -47.2)"/><path class="cls-6" d="M87,156.64l3.69-1.71s2.18,4.46-1.28,6.17l-.08-2.17A2.15,2.15,0,0,0,87,156.64Z" transform="translate(-6.08 -47.2)"/><path class="cls-8" d="M115,135.78s-1.36,13.13-26.93,20.7l-.45-18.89,12.86-9.82,13,1.24s7.11,4.28,7.79,5.23,5.17,13,5.17,13l-2.49,2.17S118.25,147.16,115,135.78Z" transform="translate(-6.08 -47.2)"/><path class="cls-6" d="M115,135.78s-1.36,13.13-26.93,20.7l-.14-5.72C102.53,149.46,115,135.78,115,135.78Z" transform="translate(-6.08 -47.2)"/><path class="cls-16" d="M84.11,276.57c-2.86-1.89-6.12-2.44-8.69-4.74-1.19-1.07-3.11,1.9-3.21,2.22a7.44,7.44,0,0,0,.33,1.89,6.91,6.91,0,0,1,1.17,1.87c2,4.34,8.28,7.12,11.09,3.19-1.79,0-1.88-1.13-2-1.5C83.24,279.16,83.75,276.93,84.11,276.57Z" transform="translate(-6.08 -47.2)"/><path class="cls-11" d="M72.79,273.14a4.67,4.67,0,0,0-.58.91,7.44,7.44,0,0,0,.33,1.89,6.91,6.91,0,0,1,1.17,1.87c.67,1.5,1,3.51,2.56,4.08,5,1.8,8.23,2.17,8.53-.89a1.92,1.92,0,0,1-1.6-.58c-.86.2-5.69,1.11-7.88-2.39-.52-.83-1.42-2.56-2.53-4.89Zm10,6.36c-.07-.34-.14-1.21-.14-1.21a3.36,3.36,0,0,0,.6.3A2.74,2.74,0,0,1,82.83,279.5Z" transform="translate(-6.08 -47.2)"/><path class="cls-16" d="M85.79,190.73c-5.39,6.24-24.43,39.67-25,44.06-1.28,9.65,7.33,33.69,12,41.37.4.68,1.3.73,1.37.39.45-2.25,5-1.82,3.14-3.4-3.11-2.66-6.17-29-6.69-34s17.16-24,18.4-26,.53-.9.82-1.48C89.78,211.62,92.31,196,85.79,190.73Z" transform="translate(-6.08 -47.2)"/><path class="cls-11" d="M60.68,238.32c.59,11,7.91,31,12.05,37.84.4.68,1.3.73,1.37.39a1.29,1.29,0,0,1,.16-.44c-3.56-6.85-12.09-26.25-13.58-37.79Zm9.92,1.28a1.45,1.45,0,0,1,0-.48l0,.48Zm0-1.31c1.14-6,17.17-23.3,18.35-25.14s.53-.9.82-1.48c0,0,.07-.44.16-1.19l-17.6,5.24s3.19,3.89,2.45,7.26C74.08,226.12,71.05,234.09,70.6,238.29Z" transform="translate(-6.08 -47.2)"/><path class="cls-5" d="M120.44,158.55h0a1.58,1.58,0,0,0-1.73,1.4l-.21,2a1.56,1.56,0,0,0,1.39,1.72h0a1.57,1.57,0,0,0,1.73-1.39l.21-2A1.58,1.58,0,0,0,120.44,158.55Z" transform="translate(-6.08 -47.2)"/><path class="cls-5" d="M102.62,156.67h0a1.58,1.58,0,0,0-1.73,1.4l-.22,2a1.58,1.58,0,0,0,1.4,1.73h0a1.58,1.58,0,0,0,1.73-1.4l.21-2A1.57,1.57,0,0,0,102.62,156.67Z" transform="translate(-6.08 -47.2)"/><path class="cls-26" d="M121.13,165.42a2.32,2.32,0,1,0,2.06,2.55A2.3,2.3,0,0,0,121.13,165.42Z" transform="translate(-6.08 -47.2)"/><path class="cls-26" d="M101.27,163.31a2.32,2.32,0,1,0,2.07,2.56A2.33,2.33,0,0,0,101.27,163.31Z" transform="translate(-6.08 -47.2)"/><path class="cls-5" d="M105.87,152.92a.66.66,0,0,1-.69,1.13,4.38,4.38,0,0,0-3.92-.22.68.68,0,0,1-.89-.32.67.67,0,0,1,.32-.89A5.72,5.72,0,0,1,105.87,152.92Z" transform="translate(-6.08 -47.2)"/><path class="cls-5" d="M117.62,154.07a.66.66,0,1,0,.41,1.26,4.35,4.35,0,0,1,3.87.67.67.67,0,0,0,.94-.11.66.66,0,0,0-.11-.93A5.75,5.75,0,0,0,117.62,154.07Z" transform="translate(-6.08 -47.2)"/><path class="cls-23" d="M81.42,433.17a1.28,1.28,0,0,0-1.11-.18c-.66.19-4.36,2.05-5.6,5.11a2.15,2.15,0,0,0,.37,1.71c.61.87,7.53,9.95,7.53,9.95a3.9,3.9,0,0,0,2.44.78H97.82s.81-.52.63-1.09-.32-1-2.2-1.38-5.38-1.47-6.41-3.86a2,2,0,0,0-1.07,0A25,25,0,0,1,85,445C84.32,444.89,80.49,438.22,81.42,433.17Z" transform="translate(-6.08 -47.2)"/><path class="cls-27" d="M75.36,436.85a8.73,8.73,0,0,0-.65,1.25,2.15,2.15,0,0,0,.37,1.71c.61.87,7.53,9.95,7.53,9.95a3.9,3.9,0,0,0,2.44.78H97.82s.81-.52.63-1.09c-.89,0-13.84-.63-14.47-1.15S75.37,436.87,75.36,436.85Z" transform="translate(-6.08 -47.2)"/><path class="cls-23" d="M112.09,450.54h23.42s.83-.38.66-1.14a2,2,0,0,0-1.29-1.46,16.69,16.69,0,0,1-8.18-2.81s-3.92.91-4.66,1-7.08-2-10.65-5.66a3.75,3.75,0,0,0-.87,1.39C110.39,442.5,110,447.92,112.09,450.54Z" transform="translate(-6.08 -47.2)"/><path class="cls-27" d="M112.09,450.54h23.42s.83-.38.66-1.14a2.23,2.23,0,0,0-.36-.78,3.73,3.73,0,0,1-1.86.61c-.77,0-22.84-.55-22.86-.55A6.39,6.39,0,0,0,112.09,450.54Z" transform="translate(-6.08 -47.2)"/><path class="cls-28" d="M109.37,171.17a.67.67,0,0,1-.7.64.68.68,0,0,1-.65-.7,3.25,3.25,0,0,1,5.63-2.07,3.28,3.28,0,0,1,.86,2.33.68.68,0,1,1-1.35-.05,1.9,1.9,0,0,0-1.82-2,1.9,1.9,0,0,0-2,1.83Z" transform="translate(-6.08 -47.2)"/><path class="cls-10" d="M119.2,123.05c-3.7-2.55-7.83-2.85-10.27-1.93-5.55,24.82-25.12,23.76-32.51,22.41-.16.61-.32,1.23-.47,1.85C98.86,154.59,114.43,131.47,119.2,123.05Z" transform="translate(-6.08 -47.2)"/><path class="cls-23" d="M90.91,189.6l-5.12,1.13a262.7,262.7,0,0,0-16.7,24.42s10.28,5.11,10.54,12.19c0,0,10-12.59,11.11-15.74S92.84,194,90.91,189.6Z" transform="translate(-6.08 -47.2)"/><path class="cls-24" d="M74.34,218.66c2.58,2.15,5.16,5.17,5.29,8.68,0,0,10-12.59,11.11-15.74a17.17,17.17,0,0,0,.62-3c-.94-1.22-1.51-2.15-1.67-2.32-.53-.57-.7.22-.7.22C85.57,214.13,78.63,217.35,74.34,218.66Z" transform="translate(-6.08 -47.2)"/><path class="cls-7" d="M70.75,212.49l-1.66,2.66s10.28,5.11,10.54,12.19c0,0,1-1.22,2.33-3C81.73,218.53,74.49,214.29,70.75,212.49Z" transform="translate(-6.08 -47.2)"/><path class="cls-16" d="M145.44,271.59a13,13,0,0,0,.15,2.21c.23,1.56,7.48,2,8.18.59.79-1.56-.38-6.17-2.07-4.11-.32.39-.2,1-.27.74-.61-1.63-1.54-.59-1.93-.08s-.11-1.25-1.36-1c-.56.1-.64,1.28-.69,1.08C147.27,270.18,145.51,268.61,145.44,271.59Z" transform="translate(-6.08 -47.2)"/><rect class="cls-19" x="179.87" y="254.76" width="52.3" height="36.66" rx="2.91"/><rect class="cls-20" x="192.52" y="259.83" width="27" height="3.79" rx="1.2"/><path class="cls-21" d="M233.23,335.85H186.75a3.1,3.1,0,0,1-.81-.11,2.91,2.91,0,0,0,2.91,2.88h46.48a2.92,2.92,0,0,0,2.91-2.91V304.88a2.93,2.93,0,0,0-1.26-2.4,3,3,0,0,0-.84-.4v30.86A2.92,2.92,0,0,1,233.23,335.85Z" transform="translate(-6.08 -47.2)"/><path class="cls-22" d="M227.92,302v24a2.92,2.92,0,0,1-2.91,2.91H185.94v6.87a3.1,3.1,0,0,0,.81.11h46.48a2.92,2.92,0,0,0,2.91-2.91V302.08a2.74,2.74,0,0,0-.81-.12Z" transform="translate(-6.08 -47.2)"/><path class="cls-7" d="M260.46,260.59a.77.77,0,0,0-1.53,0v1.79h-1.8a.77.77,0,0,0-.76.77.76.76,0,0,0,.76.76h1.8v1.8a.77.77,0,0,0,1.53,0v-1.8h1.79a.77.77,0,0,0,.77-.76.78.78,0,0,0-.77-.77h-1.79Z" transform="translate(-6.08 -47.2)"/><path class="cls-7" d="M358,153a.77.77,0,0,0-1.53,0v1.8h-1.8a.77.77,0,0,0,0,1.53h1.8v1.79a.77.77,0,1,0,1.53,0V156.3h1.8a.77.77,0,0,0,0-1.53H358Z" transform="translate(-6.08 -47.2)"/><path class="cls-7" d="M160.71,162.07a.76.76,0,1,0-1.52,0v1.8h-1.8a.76.76,0,0,0,0,1.52h1.8v1.8a.76.76,0,0,0,1.52,0v-1.8h1.8a.76.76,0,0,0,0-1.52h-1.8Z" transform="translate(-6.08 -47.2)"/><path class="cls-7" d="M155.82,384.55a.77.77,0,0,0-1.53,0v1.8h-1.8a.76.76,0,0,0,0,1.52h1.8v1.8a.77.77,0,0,0,1.53,0v-1.8h1.79a.76.76,0,1,0,0-1.52h-1.79Z" transform="translate(-6.08 -47.2)"/><path class="cls-7" d="M68.36,362.86a.76.76,0,0,0-1.52,0v1.8H65a.76.76,0,0,0-.76.76.77.77,0,0,0,.76.77h1.8V368a.76.76,0,1,0,1.52,0v-1.79h1.8a.77.77,0,0,0,.76-.77.76.76,0,0,0-.76-.76h-1.8Z" transform="translate(-6.08 -47.2)"/><path class="cls-7" d="M258.66,140.38a.76.76,0,0,0-.76-.76.77.77,0,0,0-.77.76v1.8h-1.79a.76.76,0,1,0,0,1.52h1.79v1.8a.77.77,0,0,0,.77.76.76.76,0,0,0,.76-.76v-1.8h1.8a.76.76,0,1,0,0-1.52h-1.8Z" transform="translate(-6.08 -47.2)"/><path class="cls-1" d="M301.51,207.07a.76.76,0,1,0-1.52,0v1.79h-1.8a.77.77,0,0,0-.76.77.76.76,0,0,0,.76.76H300v1.8a.76.76,0,1,0,1.52,0v-1.8h1.8a.76.76,0,0,0,.76-.76.77.77,0,0,0-.76-.77h-1.8Z" transform="translate(-6.08 -47.2)"/><path class="cls-1" d="M156.69,210.39a.76.76,0,0,0-.76-.76.77.77,0,0,0-.77.76v1.8h-1.79a.76.76,0,1,0,0,1.52h1.79v1.8a.77.77,0,0,0,.77.76.76.76,0,0,0,.76-.76v-1.8h1.8a.76.76,0,0,0,0-1.52h-1.8Z" transform="translate(-6.08 -47.2)"/><path class="cls-1" d="M62.94,194.3a.76.76,0,0,0-.76-.76.77.77,0,0,0-.77.76v1.79H59.62a.78.78,0,0,0-.77.77.77.77,0,0,0,.77.76h1.79v1.8a.77.77,0,0,0,.77.76.76.76,0,0,0,.76-.76v-1.8h1.8a.76.76,0,0,0,.76-.76.77.77,0,0,0-.76-.77h-1.8Z" transform="translate(-6.08 -47.2)"/><path class="cls-1" d="M152.49,346.12a.76.76,0,1,0-1.52,0v1.79h-1.8a.77.77,0,0,0-.76.77.76.76,0,0,0,.76.76H151v1.8a.76.76,0,0,0,1.52,0v-1.8h1.8a.76.76,0,0,0,.76-.76.77.77,0,0,0-.76-.77h-1.8Z" transform="translate(-6.08 -47.2)"/><path class="cls-1" d="M381.27,178.91a.77.77,0,0,0-.76-.77.78.78,0,0,0-.77.77v1.79H378a.78.78,0,0,0-.77.77.77.77,0,0,0,.77.76h1.79V184a.77.77,0,0,0,.77.76.76.76,0,0,0,.76-.76v-1.8h1.8a.76.76,0,0,0,.76-.76.77.77,0,0,0-.76-.77h-1.8Z" transform="translate(-6.08 -47.2)"/><path class="cls-27" d="M165.41,84.62h-34.1a5.19,5.19,0,0,0-5.17,5.17v36.5a.58.58,0,0,0,1,.4l8.81-8.81h29.47a5.19,5.19,0,0,0,5.18-5.17V89.79A5.19,5.19,0,0,0,165.41,84.62Z" transform="translate(-6.08 -47.2)"/><path class="cls-7" d="M147,106.87c-.28-.38-1-7.87-1.35-11.6a10.53,10.53,0,0,1,0-3c.52-2.47,4.81-2.54,5.39-.08a10.29,10.29,0,0,1,0,3c-.35,3.73-1.07,11.22-1.36,11.6a1.9,1.9,0,0,1-2.68,0Zm1.34,2.39a1.68,1.68,0,1,1-1.68,1.68A1.68,1.68,0,0,1,148.36,109.26Z" transform="translate(-6.08 -47.2)"/><path class="cls-8" d="M404.8,160.12c-16.84-24.77,15.19-58,39-27.22,0,0,12.55-2.18,10.09,14.2s-6.32,19.88-.11,32.19,16.35,27.63-7.26,43.86-57.7-6.54-48.17-25.71,7.78-16,7.45-31.52Z" transform="translate(-6.08 -47.2)"/><path class="cls-6" d="M404.63,160.11A26.07,26.07,0,0,1,400.25,148c15.24,5.44,33.09-6.27,33.09-6.27,16.49,18.6,20.55.68,20.63.33a24.18,24.18,0,0,1-.29,5c-2.45,16.38-6.31,19.88-.1,32.19s16.35,27.63-7.27,43.87-57.7-6.54-48.17-25.71,7.78-16,7.45-31.52Z" transform="translate(-6.08 -47.2)"/><path class="cls-5" d="M430.73,228.61c-20.25,1.37-39.94-16-32.41-31.17,8.69-17.49,8-16.38,7.56-27.85l27,.34L444,174.12a79.36,79.36,0,0,0,3.14,21.21C450.47,206.3,444.72,226.29,430.73,228.61Z" transform="translate(-6.08 -47.2)"/><path class="cls-29" d="M385.34,290.67A137.1,137.1,0,0,0,381.2,311h60.4c.23-7.8-.43-14-2.55-16.78C430.19,282.63,391.63,283.49,385.34,290.67Z" transform="translate(-6.08 -47.2)"/><path class="cls-30" d="M378.31,229.75l-4.51,1s-1.66,7.25,5.47,15.84c0,0,3.86-5.7,3.37-7.53S378.31,229.75,378.31,229.75Z" transform="translate(-6.08 -47.2)"/><path class="cls-16" d="M404.56,199.15c-10,9.55-22.46,24.14-32.18,34.6-2.74,2.95-5.16,5.53-7,3-4.1-5.61-10.53-18.34-14.39-26.42-1-2-.42-3.94-.34-5.36,0-.76-4-1.85-4.5-1.43-2,1.48-6.05.55-6.43,2.57a27.13,27.13,0,0,1,3.82,6.43c2.68,7,6.48,19.43,17.45,36.16.11.12-1.68-2.19.31.38,1.55,2,5.22,2.94,7.81,2.27,4.8-1.24,28.65-21.85,32.48-26.28a69.5,69.5,0,0,0,5.69-7.6C403.51,213.62,407.85,202.78,404.56,199.15Z" transform="translate(-6.08 -47.2)"/><path class="cls-11" d="M341.71,205.36c-.92.37-1.71-.19-1.87.62.58,1.3,2.48,3.37,3.71,6.58,2.68,7,6.48,19.43,17.45,36.16.11.12-1.68-2.19.31.38,1.55,2,5.22,2.94,7.81,2.27,2.3-.6,9-5.67,15.78-11.26-1-3.72-1.68-6.22-1.68-6.22l-6.16-1.74s.44,7.6-.84,10-7.82,6.17-10.23,6.17-13.1-18.29-16.47-26.77-3.89-11.43-3.82-13.35C345.75,206.93,343.86,206.68,341.71,205.36Z" transform="translate(-6.08 -47.2)"/><path class="cls-31" d="M391.62,263.78a85.12,85.12,0,0,1-.37,11.39c4-1.78,8.55,1.27,8.38,4.63-.23,4.38.3,7.26-5.29,15.73-2.63,4-4.95,5.15-6.68,5.28,2.64,2,5.67,3.81,8,4.24,0,0,.45.2,1.09-.74s3.22-11.08,5-13.5c.55-.77.11-7.68-.76-16.74,9,2.94,23.94,2.35,30.71,0a5.46,5.46,0,0,0,.88-1.87c-.25-.51-5-7.63-10.75-15.72-5,7.89-9.35,14.46-9.35,14.46Z" transform="translate(-6.08 -47.2)"/><path class="cls-32" d="M400,294.54c.73,3.44,1.7,7.35,3,11.75,0,0,.35,1.23,2.4,1.91S430,307.75,440.24,297c0,0,2.17-1.83.67-6.59-1.07-3.38-4.62-11.27-6.86-17.46h0a35.37,35.37,0,0,1-1.82-6.28c-.76-5.29,1.38-16.71,5.84-23.42h0a6,6,0,0,0,.51-.91c4.85-8.49,11.94-13.23,16.87-28.33a34.19,34.19,0,0,0-7.35-10.42,11.25,11.25,0,0,0-3.19-2.35,23,23,0,0,0-7.94-2.75h-.05l-.12,0c-6.05-1-13.46-.86-23.26-2.12-.61,0-1,.1-1.54.1-6.95.09-26.14,24-23.1,36.32A105.17,105.17,0,0,1,391,248.49c.61,9.23,1,25.42-.06,27.69s-8.54,16.6-9.17,18.14,8.53,9.74,13.81,10.73c0,0,.45.2,1.09-.74C397.17,303.64,398.58,298.42,400,294.54Z" transform="translate(-6.08 -47.2)"/><path class="cls-33" d="M433.36,271a27.5,27.5,0,0,1-1.13-4.3c-.76-5.29,1.38-16.71,5.84-23.42h0a6,6,0,0,0,.51-.91c4.85-8.49,11.94-13.23,16.87-28.33a34.19,34.19,0,0,0-7.35-10.42,11.25,11.25,0,0,0-3.19-2.35,23,23,0,0,0-7.94-2.75h-.05l-.12,0c-3.63-.63-7.76-.81-12.59-1.13,0,0,16.16,12.3-.38,43.46C415.75,256,423.34,265.69,433.36,271Z" transform="translate(-6.08 -47.2)"/><path class="cls-12" d="M431.68,176.71l-.4,5.27s-.34,10.81-.39,12.45c-.05,1.42,2.28,3.29,6,4,.05,0-26.68,16.24-25-2,0,0,.07,0,.11-.05,1.34-.56,1.81-.31,3.16-1.7,1.87-1.91,2.07-10.69.34-13.05S431.68,176.71,431.68,176.71Z" transform="translate(-6.08 -47.2)"/><path class="cls-12" d="M406.16,160.06a5.88,5.88,0,1,1-6.26,5.48A5.88,5.88,0,0,1,406.16,160.06Z" transform="translate(-6.08 -47.2)"/><path class="cls-12" d="M446.34,162.69a5.88,5.88,0,1,1-6.25,5.48A5.89,5.89,0,0,1,446.34,162.69Z" transform="translate(-6.08 -47.2)"/><path class="cls-16" d="M426.85,131.62h0A20.2,20.2,0,0,1,445.63,153l-1.2,18.26A20.21,20.21,0,0,1,423,190.07h0a20.21,20.21,0,0,1-18.78-21.41l1.2-18.26A20.2,20.2,0,0,1,426.85,131.62Z" transform="translate(-6.08 -47.2)"/><path class="cls-11" d="M435.7,134.35A20.2,20.2,0,0,1,445.63,153l-1.2,18.26a20.22,20.22,0,0,1-17.3,18.62c20.67-8.59,11.57-27.5,9-33.56s-3.62-8.69-9.18-6.11a23.94,23.94,0,0,1-9.62,2.49L412.46,149s.87-7.52,2.87-9.4,9.19-2.53,18.11-4.82A15.88,15.88,0,0,1,435.7,134.35Z" transform="translate(-6.08 -47.2)"/><path class="cls-5" d="M408.44,156.86l5.56.36a1.07,1.07,0,0,1,1,1.14h0a1.07,1.07,0,0,1-1.14,1L408.3,159a1.08,1.08,0,0,1-1-1.14h0A1.07,1.07,0,0,1,408.44,156.86Z" transform="translate(-6.08 -47.2)"/><path class="cls-5" d="M430.89,158.33l5.55.37a1.07,1.07,0,0,1,1,1.14h0a1.07,1.07,0,0,1-1.14,1l-5.55-.36a1.07,1.07,0,0,1-1-1.14h0A1.07,1.07,0,0,1,430.89,158.33Z" transform="translate(-6.08 -47.2)"/><path class="cls-7" d="M427.78,174.29a6.4,6.4,0,1,1-12.78-.84h0a1.11,1.11,0,0,1,1.17-1l10.56.7a1.11,1.11,0,0,1,1,1.17Z" transform="translate(-6.08 -47.2)"/><path class="cls-12" d="M409.11,169.63a2.92,2.92,0,1,1-3.1,2.72A2.92,2.92,0,0,1,409.11,169.63Z" transform="translate(-6.08 -47.2)"/><path class="cls-12" d="M434.11,171.27A2.92,2.92,0,1,1,431,174,2.92,2.92,0,0,1,434.11,171.27Z" transform="translate(-6.08 -47.2)"/><path class="cls-6" d="M447.65,162.93l-1.22-1.45-3.16,0s-2.35,5.79,1.38,6.47l.22-3.38A2,2,0,0,1,447.65,162.93Z" transform="translate(-6.08 -47.2)"/><path class="cls-8" d="M433.51,141.78s-1.9,11.21,6.28,19.2c0,0-5-6.2-4.68-12.69,3.06,9.73,7.37,12.27,8.15,13.21a8.8,8.8,0,0,0,3.08,1.2l2-17.84-5.05-9-14.25-6.2s-12.36,1.32-13.26,1.64a12.48,12.48,0,0,0-5.29,4.29c-1.4,2.28-5.88,9.38-5.88,9.38l.59,8.68S420.74,157,433.51,141.78Z" transform="translate(-6.08 -47.2)"/><path class="cls-5" d="M430,167.63a.73.73,0,0,1-.78.69.75.75,0,0,1-.7-.79,3.58,3.58,0,0,1,7.14.47.74.74,0,0,1-.79.69.73.73,0,0,1-.69-.78,2.09,2.09,0,0,0-.51-1.52,2.14,2.14,0,0,0-1.44-.71,2.09,2.09,0,0,0-1.52.51A2.14,2.14,0,0,0,430,167.63Z" transform="translate(-6.08 -47.2)"/><path class="cls-5" d="M409.5,166.29a.74.74,0,0,1-.78.69.75.75,0,0,1-.7-.79,3.59,3.59,0,0,1,3.81-3.33,3.51,3.51,0,0,1,2.44,1.21,3.57,3.57,0,0,1,.89,2.59.74.74,0,1,1-1.48-.1,2.09,2.09,0,0,0-1.95-2.22,2.09,2.09,0,0,0-2.23,1.95Z" transform="translate(-6.08 -47.2)"/><path class="cls-6" d="M433.34,141.77s-1.91,11.2,6.27,19.2c0,0-5-6.2-4.67-12.7,3.05,9.74,7.36,12.28,8.15,13.22a10.13,10.13,0,0,0,3.27,1.39l2.17-4.4-.75-8.48c-3.15.73-7.91-.87-14.44-8.23Zm-28.59,7.36c14,2.06,28.59-7.36,28.59-7.36-12.77,15.2-28.29,11.89-28.29,11.89Z" transform="translate(-6.08 -47.2)"/><path class="cls-10" d="M400.57,140.38a27.33,27.33,0,0,1,6.84-13.17c6.28,4.88,18.66,11.41,31.06.11q1,.9,2,1.92C434.06,136.35,420.59,147.44,400.57,140.38Z" transform="translate(-6.08 -47.2)"/><path class="cls-32" d="M406.59,198.72l-1.65-.09a399.71,399.71,0,0,0-31.14,32.15c4,3.29,6.65,10.85,5.47,15.84l18-10Z" transform="translate(-6.08 -47.2)"/><path class="cls-33" d="M406.59,198.72l-1.65-.09s-3.93,3.49-10.37,9.93a40.77,40.77,0,0,1-1.67,14.86C389.68,233.58,381.2,235,377.13,235a20.29,20.29,0,0,1,2.34,7.42,13.8,13.8,0,0,1-.2,4.21l18-10Z" transform="translate(-6.08 -47.2)"/><path class="cls-7" d="M410.83,196.59c-16.8,16.89,6.11,25.84,16.87,12.32,6.71-8.43,9.76-10.33,9.76-10.33a.9.9,0,0,1,.71-.15c.46.07,4.27,1.42,4.69,1.57s.46.39.46.39-20.63,20.12-3,39.13c0,0-15,13.79-2.29,41.23,0,0,7.46,15.21,2.16,20.21s-59.91-6.21-59.91-6.21,4.88-9.29,7.15-13.9,4.11-9.33,3.34-21.44-3.13-25.74-2.62-33.42,16-26.08,16.76-27.36S410.07,196.26,410.83,196.59Z" transform="translate(-6.08 -47.2)"/><path class="cls-34" d="M433.41,219.54h0Zm-.2,2.47c-.16,5.51,1.62,11.57,7.14,17.51,0,0-15,13.79-2.29,41.23,0,0,7.46,15.21,2.16,20.21-1,1-3.83,1.32-7.71,1.29-.54-22.9-3.71-64.91-42.62-53-.58-5.5-1.23-10.9-1.56-15.53C403,239.35,431.05,244.66,433.21,222Z" transform="translate(-6.08 -47.2)"/><path class="cls-30" d="M447.85,264.21l-1.16,3.9s-2.31,2.22-5.53-.86-9.82-10.33-10-11.24l5.37-1.26,8.52,1.47Z" transform="translate(-6.08 -47.2)"/><path class="cls-16" d="M443,204.28l2.53-2.73s13,4.84,13.61,14.65-10,52.35-24.08,62.48-51.32-.14-54.74-1.52a6.46,6.46,0,0,0-3.24-.1c-2,.89.13-5.81.83-6.62.09-.1,1.59-2.14,1.93-1.82a5.8,5.8,0,0,0,3.62,1.53c6.57.48,18,2.05,29.18,1.84,15.92-.31,21.77-19,23.44-31.84S436,214.69,443,204.28Z" transform="translate(-6.08 -47.2)"/><path class="cls-11" d="M452.77,246.67c-4.34,13.34-10.59,26.86-17.76,32-14.1,10.13-51.32-.14-54.74-1.52a6.46,6.46,0,0,0-3.24-.1c-.66.29-.88-.22-.85-1.07a25.59,25.59,0,0,0,2.71-1.93c.43-.31,1.73,1.47,2.62,1.9s29.86,6.35,43.35,3,16.83-18.06,13-23.49C435,251.35,446.19,246.77,452.77,246.67Z" transform="translate(-6.08 -47.2)"/><path class="cls-32" d="M444,200.73S456.51,204,459.3,213c3.5,11.34-4.56,44.73-12.61,55.07,0,0-.19-13.25-15.55-12.1a100.29,100.29,0,0,0,5.11-25.3C437,217.33,437.88,206,444,200.73Z" transform="translate(-6.08 -47.2)"/><path class="cls-33" d="M458.51,211.09a11.88,11.88,0,0,1,.79,1.95c3.5,11.34-4.56,44.73-12.61,55.07,0,0-.09-6.35-5.25-9.88,5.63-4.24,11.92-13.85,15-24.72C460.62,219.08,458.56,211.26,458.51,211.09Z" transform="translate(-6.08 -47.2)"/><path class="cls-16" d="M347.42,216.18c-1.5-4.36-5-6.91-6.5-8.45-1.07-1.1-3.28-6.15-3.68-7.41s-2.42-10.54,1.24-6a10.6,10.6,0,0,1-.58-4.25c.29-1.76,2.46,1,2.46,1s-.93-3.3.57-3.76,2.82,4.91,2.59,3.36-.6-3.93,1.08-4.22l.33.08c.39.1,4.21,10.52,4.66,12.13a8.23,8.23,0,0,1,2.92-4.42c.57-.49,1.53-.46,1.76-.13s-.8,3-.72,3.64c.61,5.37-2.52,7.26-3.16,11.41.31.61.42,2.63.82,3.38C348.51,214,349.35,215.06,347.42,216.18Z" transform="translate(-6.08 -47.2)"/><path class="cls-16" d="M387.42,278.48c-6.35-1.38-9.47.88-17.92-1.21-1.21-.3-11.66-3.54-5.85-4.3a10.78,10.78,0,0,1-3.95-1.71c-1.35-1.16,2.14-1.58,2.14-1.58s-3.3-.92-2.91-2.44,5.66.13,4.21-.47-3.67-1.52-3.05-3.11l.24-.24c.29-.28,11.18,1.85,12.79,2.3a8.12,8.12,0,0,1-2.26-4.79c-.13-.75.39-1.55.79-1.58s2.12,2.22,2.74,2.51c4.92,2.26,4.91,5.91,8.12,8.61.68,0,2.48,1,3.33,1C385.66,274.57,387.45,276.24,387.42,278.48Z" transform="translate(-6.08 -47.2)"/><rect class="cls-35" x="268.02" y="257.44" width="218.56" height="145.9"/><path class="cls-7" d="M467.23,450.54H274.1V332.16H419.26a55.83,55.83,0,0,1,55.67,55.67v53.78C474.93,451.86,472.12,442.26,467.23,450.54Z" transform="translate(-6.08 -47.2)"/><rect class="cls-36" x="268.02" y="257.44" width="218.56" height="8.41"/><rect class="cls-37" x="268.02" y="385.63" width="218.56" height="11.62"/><path class="cls-6" d="M275.14,441.61H492.66v17.85H275.14a9,9,0,0,1-8.93-8.92h0A9,9,0,0,1,275.14,441.61Z" transform="translate(-6.08 -47.2)"/><path class="cls-5" d="M275.14,290.11H492.66V308H275.14a9,9,0,0,1-8.93-8.92h0A9,9,0,0,1,275.14,290.11Z" transform="translate(-6.08 -47.2)"/><path class="cls-6" d="M275.14,290.11H492.66v11.16H275.14a9,9,0,0,1-8.27-5.58A9,9,0,0,1,275.14,290.11Z" transform="translate(-6.08 -47.2)"/></g><g id="DESIGNED_BY_FREEPIK" data-name="DESIGNED BY FREEPIK"><path class="cls-38" d="M260.65,477.16a6.54,6.54,0,0,0-1.79,3.47l-.75-.13a6.9,6.9,0,0,1,.54-1.74l-.45-.24a.41.41,0,0,1-.19.05.6.6,0,0,1-.67-.53.6.6,0,0,1,1.19-.2l.47.24a7.3,7.3,0,0,1,1.1-1.45Zm2-1.4a6.82,6.82,0,0,1,3-.68,7.37,7.37,0,0,1,1.48.16l.16-.74a8.23,8.23,0,0,0-1.64-.17h-.51l-.07-.62a.71.71,0,0,0,.26-.65.7.7,0,0,0-.79-.62.71.71,0,0,0-.63.79.69.69,0,0,0,.41.56l.07.63a7.57,7.57,0,0,0-2.06.64Zm9.45-.08a.59.59,0,0,0-.53.61l-.42.36a7.82,7.82,0,0,0-1.41-1.14l-.4.64a6.78,6.78,0,0,1,2.56,2.93l.69-.32a7.14,7.14,0,0,0-.94-1.54l.4-.35h.19a.6.6,0,1,0-.14-1.19Zm-7,8.86c-.38,0-.77,0-1.15,0a15.87,15.87,0,0,1-2.48-.18,7.94,7.94,0,0,1-1.27-.29,6.2,6.2,0,0,0,11.34-1.38,9.64,9.64,0,0,1-2.46,1.12A17.19,17.19,0,0,1,265,484.54Zm6.58-3.5a5.67,5.67,0,0,1,.05.58,11.48,11.48,0,0,1-6.67,2.16c-2.64.16-4.68-.25-5.35-.73a5.93,5.93,0,0,1-.14-1.26,6.09,6.09,0,0,1,12.11-.75Zm-6.34-.53a1.85,1.85,0,1,0-1.85,1.85A1.85,1.85,0,0,0,265.28,480.51Zm4.25-.42a1.36,1.36,0,1,0-1.36,1.36A1.36,1.36,0,0,0,269.53,480.09Zm9.84-1.61c0-.67.29-.94.84-1a2.82,2.82,0,0,1,1.39.24V476a4.09,4.09,0,0,0-1.59-.31c-1.68,0-2.57,1.11-2.57,2.79v.89H276.1v1.71h1.34v5.46h1.93v-5.46h2.23v-1.71h-2.23Zm6.85.67a2.27,2.27,0,0,0-2,1v-.78h-1.87v7.17h1.93v-3.91a1.43,1.43,0,0,1,1.51-1.61,3.23,3.23,0,0,1,.53,0l1-1.55A1.8,1.8,0,0,0,286.22,479.15Zm7.74,3.77a6.18,6.18,0,0,1,0,.65h-5.09a1.74,1.74,0,0,0,1.85,1.49,2.88,2.88,0,0,0,1.81-.69l1.13,1.24a4.33,4.33,0,0,1-3.05,1.09,3.78,3.78,0,0,1-.1-7.55A3.46,3.46,0,0,1,294,482.92Zm-1.93-.67a1.6,1.6,0,0,0-3.18,0Zm9.59.67a6,6,0,0,1,0,.65H296.5a1.72,1.72,0,0,0,1.84,1.49,2.88,2.88,0,0,0,1.81-.69l1.14,1.24a4.35,4.35,0,0,1-3.06,1.09,3.78,3.78,0,0,1-.1-7.55A3.47,3.47,0,0,1,301.62,482.92Zm-1.94-.67a1.55,1.55,0,0,0-1.56-1.43,1.57,1.57,0,0,0-1.62,1.43Zm10.28.68a3.55,3.55,0,0,1-3.47,3.77,2.62,2.62,0,0,1-2.11-.93v3.71h-1.92V479.35h1.89v.79a2.57,2.57,0,0,1,2.13-1A3.55,3.55,0,0,1,310,482.93Zm-2,0a1.85,1.85,0,1,0-1.85,2A1.84,1.84,0,0,0,308,482.93Zm3.85-7.17a1.24,1.24,0,1,0,1.24,1.24A1.21,1.21,0,0,0,311.83,475.76Zm-.95,10.76h1.93v-7.17h-1.93Zm6.74-3.8,3.48-3.37h-2.37L316,481.9v-6H314.1v10.66H316v-2.9l2.72,2.9h2.38Zm-133.21-6h1.1v9.77h-1.1V485.4a3,3,0,0,1-2.39,1.23c-1.84,0-3.14-1.41-3.14-3.71s1.28-3.72,3.14-3.72a2.94,2.94,0,0,1,2.39,1.25Zm0,4.65a2.63,2.63,0,0,0-2.12-1.15c-1.42,0-2.27,1.18-2.27,2.74s.85,2.73,2.27,2.73a2.61,2.61,0,0,0,2.12-1.12Zm9.41,1.67v.27h-5.73a2.49,2.49,0,0,0,2.55,2.45,3.1,3.1,0,0,0,2.18-.89l.53.71a3.84,3.84,0,0,1-2.81,1.09,3.72,3.72,0,0,1-.12-7.43C192.56,479.2,193.82,480.87,193.82,483Zm-1.09-.53a2.29,2.29,0,0,0-2.33-2.36,2.35,2.35,0,0,0-2.31,2.36Zm3.14-1.26c0-.63.6-1.11,1.56-1.11a2.75,2.75,0,0,1,2.11.89l.52-.76a3.62,3.62,0,0,0-2.63-1c-1.68,0-2.63.94-2.63,2,0,2.62,4.38,1.57,4.38,3.28,0,.7-.59,1.22-1.67,1.22a3.18,3.18,0,0,1-2.33-1l-.57.8a3.75,3.75,0,0,0,2.85,1.11c1.83,0,2.79-.95,2.79-2.14C200.25,481.74,195.87,482.76,195.87,481.21Zm6.34-4.32a.74.74,0,0,0,0,1.48.74.74,0,1,0,0-1.48Zm-.54,9.56h1.1v-7.07h-1.1Zm8-7.07h1.1v6.87c0,2.34-1.64,3.07-3.37,3.07a3.63,3.63,0,0,1-2.86-1.05l.56-.82a2.71,2.71,0,0,0,2.3,1,2,2,0,0,0,2.27-2.13v-1a3,3,0,0,1-2.37,1.26c-1.85,0-3.15-1.38-3.15-3.66s1.28-3.68,3.15-3.68a2.92,2.92,0,0,1,2.37,1.25Zm0,1.95a2.6,2.6,0,0,0-2.11-1.15c-1.42,0-2.27,1.13-2.27,2.7s.85,2.69,2.27,2.69a2.62,2.62,0,0,0,2.11-1.15Zm6.55-2.13a3.51,3.51,0,0,0-2.52,1.2v-1h-1.1v7.07h1.1v-5.17a2.73,2.73,0,0,1,2.09-1.1c.95,0,1.58.4,1.58,1.64v4.63h1.1v-5A2,2,0,0,0,216.26,479.2Zm10.56,3.8v.27h-5.73a2.49,2.49,0,0,0,2.55,2.45,3.1,3.1,0,0,0,2.18-.89l.53.71a3.84,3.84,0,0,1-2.81,1.09,3.72,3.72,0,0,1-.12-7.43C225.56,479.2,226.82,480.87,226.82,483Zm-1.09-.53a2.29,2.29,0,0,0-2.33-2.36,2.35,2.35,0,0,0-2.31,2.36Zm7.62-5.79h1.1v9.77h-1.1V485.4a3,3,0,0,1-2.39,1.23c-1.84,0-3.15-1.41-3.15-3.71s1.29-3.72,3.15-3.72a3,3,0,0,1,2.39,1.25Zm0,4.65a2.66,2.66,0,0,0-2.12-1.15c-1.43,0-2.27,1.18-2.27,2.74s.84,2.73,2.27,2.73a2.64,2.64,0,0,0,2.12-1.12Zm13,1.59c0,2.3-1.31,3.71-3.15,3.71a3,3,0,0,1-2.39-1.23v1.05h-1.1v-9.77h1.1v3.77a2.93,2.93,0,0,1,2.39-1.25C245,479.2,246.33,480.67,246.33,482.92Zm-1.15,0c0-1.56-.84-2.74-2.28-2.74a2.63,2.63,0,0,0-2.11,1.15v3.2a2.6,2.6,0,0,0,2.11,1.12C244.34,485.65,245.18,484.49,245.18,482.92Zm5.06,2.26-2.36-5.8h-1.19l3,7.15-.47,1.07a1,1,0,0,1-1.05.74,1.73,1.73,0,0,1-.6-.11l-.18,1a3.52,3.52,0,0,0,.81.1,2.1,2.1,0,0,0,2.08-1.43l3.54-8.51h-1.2Z" transform="translate(-6.08 -47.2)"/></g></svg>