<svg id="Layer_1" data-name="Layer 1" xmlns="http://www.w3.org/2000/svg" xmlns:xlink="http://www.w3.org/1999/xlink" viewBox="0 0 971.67 710"><defs><style>.cls-1{fill:none;}.cls-2{fill:#ff96a6;}.cls-3{fill:#31193b;}.cls-4{fill:#fc8ba1;}.cls-5{fill:#3b2b5a;}.cls-6{clip-path:url(#clip-path);}.cls-7{fill:#d6eaf5;}.cls-8{fill:#a9cbe7;}.cls-9{fill:url(#linear-gradient);}.cls-10{fill:#7d58ed;}.cls-11{fill:url(#linear-gradient-2);}.cls-12{fill:#8c5ff8;}.cls-13{fill:#fff;}.cls-14{fill:#7be7cd;}.cls-15{fill:url(#linear-gradient-3);}.cls-16{fill:url(#linear-gradient-4);}.cls-17{fill:url(#linear-gradient-5);}.cls-18{fill:#f2f2f2;}</style><clipPath id="clip-path" transform="translate(-212.33 -33)"><path class="cls-1" d="M287.5,418.68a19.36,19.36,0,0,1-9.93,9.36,13.13,13.13,0,0,1-8.3,1.22c-5.82-1.38-8.6-8.13-14.59-8.8-3.06-.33-6,1.09-8.62,2.46l-26.93,13.94a11.79,11.79,0,0,0-3.35,2.25c-1.54,1.68-1.71,4-1.82,6.11q-.79,15.61-1.6,31.24a6.36,6.36,0,0,0,.67,4c1.53,2.28,5.29,2.38,8.26,1.83a34.53,34.53,0,0,0,9.74-3.39,16.08,16.08,0,0,1,2.09,10.47c-2,13.51-2.84,27.11-4.33,40.66-.42,3.83-.72,8.07,2,11.12,3.4,3.86,10,4.1,15.52,3.14s11.08-2.75,16.55-1.68c3.55.7,6.64,2.54,10.08,3.56a22.42,22.42,0,0,0,7.25.9,44.28,44.28,0,0,0,9.22-1.67l23.42-6a9.27,9.27,0,0,0,4-1.75c1.37-1.28,1.53-3.18,1.54-4.92.09-17.55-8-34.8-5.91-52.25a7.1,7.1,0,0,1,1.16-3.56c1.18-1.57,3.39-2.27,5.49-2.71,5.33-1.1,11.66-1.42,14.82-5.3a10.64,10.64,0,0,0,2.05-6.52,25.71,25.71,0,0,0-2.27-11.51c-2-4.53-3.38-9-5.21-13.58a9.23,9.23,0,0,0-2.39-3.89,11.46,11.46,0,0,0-3.79-1.81l-23.12-7.82A57.47,57.47,0,0,1,287.5,418.68Z"/></clipPath><linearGradient id="linear-gradient" x1="291.78" y1="497.02" x2="649.98" y2="873.29" gradientUnits="userSpaceOnUse"><stop offset="0" stop-color="#753d96"/><stop offset="1" stop-color="#88f0f7"/></linearGradient><linearGradient id="linear-gradient-2" x1="238.94" y1="263.8" x2="702.86" y2="751.14" xlink:href="#linear-gradient"/><linearGradient id="linear-gradient-3" x1="641.72" y1="-61.64" x2="895.67" y2="-61.64" gradientTransform="translate(-33.18 489.16) rotate(-18.36)" xlink:href="#linear-gradient"/><linearGradient id="linear-gradient-4" x1="742.48" y1="19.24" x2="1015.61" y2="19.24" gradientTransform="translate(-33.18 489.16) rotate(-18.36)" xlink:href="#linear-gradient"/><linearGradient id="linear-gradient-5" x1="604.19" y1="-24.31" x2="993.66" y2="-24.31" gradientTransform="translate(-33.18 489.16) rotate(-18.36)" xlink:href="#linear-gradient"/></defs><title>customer-retention</title><ellipse class="cls-2" cx="244.76" cy="713.87" rx="13.81" ry="4.4" transform="translate(-687.16 908.25) rotate(-88.61)"/><ellipse class="cls-3" cx="235.7" cy="722.98" rx="3.76" ry="12.43" transform="translate(-735.2 743.14) rotate(-75.95)"/><ellipse class="cls-2" cx="294.03" cy="718.04" rx="13.81" ry="4.4" transform="translate(-643.25 961.57) rotate(-88.61)"/><ellipse class="cls-3" cx="293.65" cy="732.13" rx="10.87" ry="4.3" transform="translate(-657.83 974.62) rotate(-88.59)"/><path class="cls-4" d="M259.1,424.85c3,2.32,5.79,4.93,9.48,6.25a16,16,0,0,0,11.82-.53c3.59-1.67,6.84-5.23,7.61-8.7.32-1.39.52-2.71-1.21-3.68a49.69,49.69,0,0,1-6.34-3.63c-1.44-1.1-2.14-2.76-3.48-4-2.58-2.3-7.5-2.13-9.86.34-1.25,1.3-1.78,3-3.06,4.32-3.53,3.56-8.9,3.39-12.61,6.14.54,1.25,1.84-.17,3.1.46A27.71,27.71,0,0,1,259.1,424.85Z" transform="translate(-212.33 -33)"/><path class="cls-2" d="M246.6,567c2,2,4.88,4.11,7.77,3.25,1.72-3.17-1.1-6.67-3.44-9.53-9.58-11.73-13-26.41-14.39-40.74s-.82-28.8-3.48-43a2.63,2.63,0,0,0-.73-1.61,3.61,3.61,0,0,0-1.84-.62c-2.57-.37-12.63-3.16-14.6-1.93-1.68,1.05-.94,8-1,9.79a129.73,129.73,0,0,0,1.23,22,113.16,113.16,0,0,0,14.39,41.72A102.12,102.12,0,0,0,246.6,567Z" transform="translate(-212.33 -33)"/><path class="cls-2" d="M308.65,560.3c-1.82,2.14-4.47,4.44-7.44,3.79-2-3,.46-6.72,2.52-9.74,8.44-12.38,10.49-27.25,10.48-41.63s-1.93-28.77-.62-43.1a2.55,2.55,0,0,1,.57-1.65,3.63,3.63,0,0,1,1.78-.75c2.52-.55,12.29-4,14.36-3,1.78.93,1.7,7.9,1.92,9.68a128.76,128.76,0,0,1,.86,22,111,111,0,0,1-10.37,42.6A99,99,0,0,1,308.65,560.3Z" transform="translate(-212.33 -33)"/><path class="cls-3" d="M236.41,711.66a23,23,0,0,1-3.43-6.83c-7.33-26-1-53.14-1.15-79.85-.18-26.45-6.81-53.18-.8-79.11,1-4.43,2.53-9,6-12.33,6.71-6.37,18.1-6.3,28-5.76l31.28,1.72c5.66.31,12,.91,15.58,4.71,3.05,3.25,3.11,7.83,3,12q-1.92,78.43-9.23,156.69c-.55,5.9-2.28,13.11-8.84,14.79-5.11,1.31-10.59-1.88-13-6s-2.41-8.94-2.43-13.55a933.88,933.88,0,0,0-7.72-115c-18,38-14.2,80.67-17.06,121.68-.3,4.21-1.93,9.23-7.54,9.89C245.19,715.19,238.77,715.07,236.41,711.66Z" transform="translate(-212.33 -33)"/><path class="cls-3" d="M262.59,390.6a23.66,23.66,0,0,1,12.24-6.53c2.66-.46,5.44-.39,8.05-1.05s5.16-2.34,5.44-4.68a6.2,6.2,0,0,0-1.74-4.42,33.4,33.4,0,0,0-7.49-6.39c-2.94-2-6.35-3.9-10.06-3.64-4.5.32-7.81,3.67-11.86,5.4-3.21,1.37-6.86,1.7-10.3,2.54s-7,2.41-8.43,5.24c-1.83,3.55.22,7.59,1.62,11.28a34.16,34.16,0,0,1,2,8.27c.29,2.47.35,5.07,1.85,7.18s5.11,3.33,7.27,1.71c2-1.5,3.71-4.75,5.15-6.75C258.38,396,260,393.1,262.59,390.6Z" transform="translate(-212.33 -33)"/><path class="cls-2" d="M279,418.12c6.93-5.38,11.43-22.9,7.21-34.49A8.08,8.08,0,0,0,284,380a9.14,9.14,0,0,0-4.36-1.76,29.19,29.19,0,0,0-14.37,1.55c-2.94,1-5.87,2.41-7.61,4.7-2,2.69-2.1,6.13-1.85,9.34.11,1.44-.23,3.42-1.89,3.5a8.2,8.2,0,0,1-2.24-.61c-2.55-.61-4.63,2.3-4,4.52s2.87,3.77,4.7,5.43c2.45,2.22,3.69,5.17,6,7.49C263.42,419.19,272.33,423.3,279,418.12Z" transform="translate(-212.33 -33)"/><path class="cls-5" d="M259.68,619.25a69.9,69.9,0,0,1-1.12,9.92c-.24,1.69-.69,3.22-1.05,4.78s-1.16,3.08-1,4.65l-.32,4.69,0,4.85.21,9.84a38.29,38.29,0,0,1-3-9.63,46.26,46.26,0,0,1-.64-5c0-1.7.09-3.42.14-5.14.37-3.36,2-6.61,2.93-9.71A78.08,78.08,0,0,1,259.68,619.25Z" transform="translate(-212.33 -33)"/><path class="cls-5" d="M299.3,544.4c2.16,3,3.91,5.59,6,8.09s4.41,4.79,7,7.52a16.23,16.23,0,0,1-9.88-5.69C300.09,551.46,298.67,547.91,299.3,544.4Z" transform="translate(-212.33 -33)"/><path class="cls-5" d="M231.29,566.73c2.81-3.58,5.56-6.74,8-10.16s4.66-6.86,7.22-10.59c.21,4.36-1.54,8.61-4.18,12.27A24.47,24.47,0,0,1,231.29,566.73Z" transform="translate(-212.33 -33)"/><path class="cls-5" d="M272.65,551.6a93.18,93.18,0,0,1,.59,14.2c-.09,2.33-.2,4.73-.45,7A7.73,7.73,0,0,0,273,576a3.7,3.7,0,0,0,2.33,2.45,4.67,4.67,0,0,1-3.91-1.74A7.59,7.59,0,0,1,270,572.9a49.44,49.44,0,0,1-.33-7.17A35.64,35.64,0,0,1,272.65,551.6Z" transform="translate(-212.33 -33)"/><path class="cls-5" d="M308.88,610.1a64.15,64.15,0,0,1,1.15,20A158.74,158.74,0,0,1,307,649.89c-1.4,6.52-2.81,13-4,19.5a122.55,122.55,0,0,0-2.05,19.71,67.33,67.33,0,0,1-.71-20,179.77,179.77,0,0,1,3.23-19.77c1.39-6.52,2.76-13,3.88-19.51A113,113,0,0,0,308.88,610.1Z" transform="translate(-212.33 -33)"/><path class="cls-5" d="M237.61,646.77c-.39,9-1,17.89-1.13,26.79s.11,17.75.18,26.8a81.28,81.28,0,0,1-3.78-26.85A82.29,82.29,0,0,1,237.61,646.77Z" transform="translate(-212.33 -33)"/><g class="cls-6"><path class="cls-7" d="M287.78,418.32A20.61,20.61,0,0,1,277.57,428a13.13,13.13,0,0,1-8.3,1.22c-5.82-1.38-8.6-8.13-14.59-8.8-3.06-.33-6,1.09-8.62,2.46l-26.93,13.94a11.79,11.79,0,0,0-3.35,2.25c-1.54,1.68-1.71,4-1.82,6.11q-.79,15.61-1.6,31.24a6.36,6.36,0,0,0,.67,4c1.53,2.28,5.29,2.38,8.26,1.83a34.53,34.53,0,0,0,9.74-3.39,16.08,16.08,0,0,1,2.09,10.47c-2,13.51-2.84,27.11-4.33,40.66-.42,3.83-.72,8.07,2,11.12,3.4,3.86,10,4.1,15.52,3.14s11.08-2.75,16.55-1.68c3.55.7,6.64,2.54,10.08,3.56a22.42,22.42,0,0,0,7.25.9,44.28,44.28,0,0,0,9.22-1.67l23.42-6a9.27,9.27,0,0,0,4-1.75c1.37-1.28,1.53-3.18,1.54-4.92.09-17.55-8-34.8-5.91-52.25a7.1,7.1,0,0,1,1.16-3.56c1.18-1.57,3.39-2.27,5.49-2.71,5.33-1.1,11.66-1.42,14.82-5.3a10.64,10.64,0,0,0,2.05-6.52,25.71,25.71,0,0,0-2.27-11.51c-2-4.53-3.38-9-5.21-13.58a9.23,9.23,0,0,0-2.39-3.89,11.46,11.46,0,0,0-3.79-1.81l-23.12-7.82A56.25,56.25,0,0,1,287.78,418.32Z" transform="translate(-212.33 -33)"/><path class="cls-8" d="M311.25,477.57a40.11,40.11,0,0,0-3.59-7.14c-1.37-2.33-2.56-4.72-3.75-7.11A97.19,97.19,0,0,1,298,448.47a100.5,100.5,0,0,1,8.1,14c1.14,2.42,2.28,4.85,3.24,7.33S311.42,474.88,311.25,477.57Z" transform="translate(-212.33 -33)"/><path class="cls-8" d="M232.6,478c-.91-2.69.22-5.55,1.07-8s1.88-5.1,3-7.62c1.27-2.49,2.23-5.08,4.08-7.36a25.82,25.82,0,0,1,6.39-6,53,53,0,0,0-4.79,6.78c-1.38,2.31-2.26,4.87-3.43,7.29s-2.21,5-3.5,7.43S232.71,475.26,232.6,478Z" transform="translate(-212.33 -33)"/><path class="cls-8" d="M237.63,511.26c.55,5.9.83,11.8,1.08,17.69a39.83,39.83,0,0,0,.29,4.27,4.15,4.15,0,0,0,2.29,2.95c2.58,1.42,5.89,1.56,9.17,1.28s6.75-.72,10.36-.46,6.9,1.53,10,2.46a35.17,35.17,0,0,0,19.71-.27,32,32,0,0,1-20.24,1.8c-3.38-.74-6.47-2-9.66-2.1s-6.54.38-10,.65-7.33.08-10.56-1.78a6.05,6.05,0,0,1-3.13-4.23,24.21,24.21,0,0,1-.09-4.56C237,523.06,237.19,517.17,237.63,511.26Z" transform="translate(-212.33 -33)"/><path class="cls-8" d="M288,423.94c-.49,2.38-2.7,4.33-5,5.57s-4.79,2.18-7.12,3.23c-4.54,2.1-8.44,5.18-12.68,8.12a30.3,30.3,0,0,1,11.53-9.95c2.44-1,4.84-2,7.36-2.79A12.57,12.57,0,0,0,288,423.94Z" transform="translate(-212.33 -33)"/><path class="cls-8" d="M307.77,480.9c.36,6.59,2,12.86,3.39,19.33a61.13,61.13,0,0,1,1.34,9.84,39.6,39.6,0,0,1-.12,5,23,23,0,0,1-.42,2.46l-.26,1.22c0,.39-.69,1-1,.57.93.22.55-1.16.62-1.83,0-.82-.06-1.63-.13-2.44a41.25,41.25,0,0,0-.54-4.83c-.53-3.21-1.18-6.4-1.86-9.62C307.54,494.19,306.25,487.44,307.77,480.9Z" transform="translate(-212.33 -33)"/></g><ellipse class="cls-2" cx="1086.83" cy="706.41" rx="14.18" ry="4.52" transform="translate(141.95 1742.79) rotate(-88.61)"/><ellipse class="cls-3" cx="1077.53" cy="715.77" rx="3.86" ry="12.77" transform="translate(-90.71 1554.33) rotate(-75.95)"/><ellipse class="cls-2" cx="1137.44" cy="710.69" rx="14.18" ry="4.52" transform="matrix(0.02, -1, 1, 0.02, 187.05, 1797.56)"/><ellipse class="cls-3" cx="1137.05" cy="725.16" rx="11.17" ry="4.41" transform="translate(171.73 1810.98) rotate(-88.59)"/><path class="cls-3" d="M1078.25,704.14a24,24,0,0,1-3.52-7c-7.53-26.65-1-54.58-1.18-82-.19-27.16-7-54.63-.82-81.26,1-4.55,2.6-9.23,6.21-12.66,6.88-6.54,18.59-6.48,28.79-5.92l32.13,1.77c5.81.32,12.32.93,16,4.84,3.14,3.33,3.2,8,3.09,12.34q-2,80.58-9.48,160.95c-.57,6.06-2.34,13.46-9.07,15.19-5.25,1.35-10.89-1.93-13.33-6.17s-2.47-9.18-2.5-13.92a957.24,957.24,0,0,0-7.93-118.12c-18.48,39.05-14.59,82.87-17.52,125-.31,4.32-2,9.49-7.74,10.16C1087.28,707.77,1080.68,707.64,1078.25,704.14Z" transform="translate(-212.33 -33)"/><path class="cls-5" d="M1102.16,609.22A71.94,71.94,0,0,1,1101,619.4c-.25,1.74-.71,3.31-1.08,4.92s-1.19,3.16-1,4.77l-.32,4.82,0,5,.22,10.1a39,39,0,0,1-3.1-9.88,48.9,48.9,0,0,1-.66-5.11c0-1.74.09-3.51.15-5.28.38-3.45,2-6.79,3-10A79.89,79.89,0,0,1,1102.16,609.22Z" transform="translate(-212.33 -33)"/><path class="cls-5" d="M1142.86,532.33c2.22,3,4,5.74,6.2,8.31s4.53,4.92,7.15,7.73a16.75,16.75,0,0,1-10.15-5.85C1143.67,539.58,1142.21,535.93,1142.86,532.33Z" transform="translate(-212.33 -33)"/><path class="cls-5" d="M1073,555.26c2.9-3.67,5.72-6.92,8.24-10.42s4.79-7.06,7.41-10.88c.22,4.48-1.58,8.84-4.29,12.6A25,25,0,0,1,1073,555.26Z" transform="translate(-212.33 -33)"/><path class="cls-5" d="M1115.49,539.73a95.64,95.64,0,0,1,.6,14.58c-.1,2.4-.2,4.86-.47,7.23a7.94,7.94,0,0,0,.2,3.21,3.81,3.81,0,0,0,2.39,2.51,4.76,4.76,0,0,1-4-1.79,7.73,7.73,0,0,1-1.47-3.87,52,52,0,0,1-.34-7.36A36.47,36.47,0,0,1,1115.49,539.73Z" transform="translate(-212.33 -33)"/><path class="cls-5" d="M1152.69,599.82a65.49,65.49,0,0,1,1.19,20.52,163.69,163.69,0,0,1-3.16,20.35c-1.43,6.7-2.88,13.36-4.13,20a128,128,0,0,0-2.1,20.25,69.34,69.34,0,0,1-.73-20.54,184.83,184.83,0,0,1,3.32-20.31c1.43-6.69,2.83-13.35,4-20A115.27,115.27,0,0,0,1152.69,599.82Z" transform="translate(-212.33 -33)"/><path class="cls-5" d="M1079.49,637.48c-.4,9.29-1,18.38-1.16,27.52s.12,18.24.18,27.53a88.89,88.89,0,0,1,1-55Z" transform="translate(-212.33 -33)"/><path class="cls-2" d="M1059.51,470.08a186.86,186.86,0,0,1-3.59,45.9,208.29,208.29,0,0,1-5.94,22.74c-1.14,3.52-2.2,7.19-3.61,10.62-1.2,2.92-4,5.1-5.33,8-1.17,2.59-1,5.47-.83,8.25a1.19,1.19,0,0,0,.32.9,1.49,1.49,0,0,0,.87.26c3.43.17,6.09-2.74,6.88-5.63s.37-5.94,1-8.86c1.15-5.22,4.83-10.36,7.07-15.31q4-8.81,7.3-17.83c5-13.59,13.33-28.07,12.4-42.42C1075.07,476,1062,470.9,1059.51,470.08Z" transform="translate(-212.33 -33)"/><path class="cls-2" d="M1170.75,465.18c-.13.08,8.5,19.91,9.15,22a89.39,89.39,0,0,1,4.08,24,90.48,90.48,0,0,1-2.84,23.47c-2,8.1-6.53,15.56-8.23,23.73-.59,2.83-.75,5.82-2.37,8.34a3.15,3.15,0,0,1-1.41,1.31,1.6,1.6,0,0,1-1.85-.39,1.75,1.75,0,0,1-.2-.92l-.16-9.36a2.08,2.08,0,0,1,.19-1.07c.29-.48.93-.71,1.42-1.07A4.53,4.53,0,0,0,1170,552a124.09,124.09,0,0,0,1.39-16.88c.06-5.07.5-10.17.44-15.29A76.51,76.51,0,0,0,1169,500a45.82,45.82,0,0,0-8.37-16.41,45.23,45.23,0,0,1-4.6-6.39c.66-1.79,2.35-3.18,3.93-4.47A127,127,0,0,1,1170.75,465.18Z" transform="translate(-212.33 -33)"/><path class="cls-7" d="M1081.55,438.47a60.93,60.93,0,0,1,5.69-2.76c10.88-4.61,23.24-6.33,35.33-5.74,10.88.52,21.78,2.94,31,8s24.9,18.76,18.21,29.19c-2,3.16-5.38,5.52-8.76,7.64a17.14,17.14,0,0,0-4.12,3.16c-3.42,4.08-2.38,23.13-1.43,27.58,1.16,5.43,3.1,23.59.42,34.22-1,4-2.81,8.56-7.25,10-3,1-6.5.25-9.32-1.13s-5.22-3.33-7.88-4.92c-6.1-3.66-13.47-5.4-20.83-6.2s-14.79-.7-22.19-1c-6.38-.29-13.66-1.38-17-6.11-2.3-3.28-2-7.44-1-11.19,3-11.67,3.37-23.4,4.34-35.32a6.45,6.45,0,0,0-.1-2.36,5.23,5.23,0,0,0-2.88-3c-5.11-2.51-11.16-3.68-16.41-6.08-2-.89,2.19-11,2.84-12.35a47.64,47.64,0,0,1,6.58-9.8A52.7,52.7,0,0,1,1081.55,438.47Z" transform="translate(-212.33 -33)"/><path class="cls-8" d="M1084.63,459.47a14.84,14.84,0,0,0-7.56,6.89,12.07,12.07,0,0,0-1,9.47,33.22,33.22,0,0,1,3-8.67A36.15,36.15,0,0,1,1084.63,459.47Z" transform="translate(-212.33 -33)"/><path class="cls-2" d="M1082,398.77a84.68,84.68,0,0,0,6,17.86,21.11,21.11,0,0,0,3.49,5.67,10.44,10.44,0,0,0,2.77,2.18c2.38,1.25,5.32,1.4,8.1,1.32a3.14,3.14,0,0,1,2.31.52,1.93,1.93,0,0,1,.45,1,6.71,6.71,0,0,1-.15,3c-.29,1-1.68,1.53-2.81,1.88s-2.32.48-3.48.72a4.44,4.44,0,0,0-1.66.63,2.72,2.72,0,0,0-1,2.05c-.3,3.39,2.87,5.93,5.39,8.2a47.91,47.91,0,0,0,9.54,6.67,4.78,4.78,0,0,0,2.46.74,4.68,4.68,0,0,0,2.52-1.25A85.88,85.88,0,0,0,1126,441.1c2-2.13,7.58-7.83,3.87-10.41-2-1.38-5.22.17-7.36-1-2-1.07-2.28-4-2.41-5.79a19.69,19.69,0,0,1,1.12-7.35c1.17-3.6,2.91-7.06,3.75-10.73,1.73-7.46-2.22-13.83-9.12-18.21a31.9,31.9,0,0,0-15.12-5,26.48,26.48,0,0,0-11.59,1.88,10.76,10.76,0,0,0-6.82,7.56A13,13,0,0,0,1082,398.77Z" transform="translate(-212.33 -33)"/><path class="cls-3" d="M1082.26,394a3.67,3.67,0,0,0,.17-.74,18.44,18.44,0,0,1,.23-2.47c.62-2.33,3.55-3.55,6.18-4.27,3.8-1,7.87-1.75,11.78-1,7.9,1.42,8.77,7.91,12.52,13,.67.9,2,1.84,3,1.22.6-.37.69-1.11,1-1.69.81-1.5,3.31-1.88,4.95-1a5.17,5.17,0,0,1,2.63,4.2,5.69,5.69,0,0,1-.77,3.59c-.5.8-1.25,1.48-1.67,2.32a6.66,6.66,0,0,0-.49,2.93c-.06,2.88-1,5.27-1,8.14,0-.43,5.57-2.79,6.2-3.35a12.93,12.93,0,0,0,3-4.66c4.1-8.66,7.89-19.23,2.28-28-3.17-5-8.69-8.71-14.92-10.44-8.9-2.46-18.66-.74-26.66,3.15-5.07,2.45-10.28,6.12-12.76,10.78a8.48,8.48,0,0,0-.62,7.29C1078.14,395.06,1081.38,396.62,1082.26,394Z" transform="translate(-212.33 -33)"/><path class="cls-8" d="M1156.49,479.34a148.29,148.29,0,0,1-12-8.76,142.64,142.64,0,0,1-10.7-9.92A33.65,33.65,0,0,0,1143,472,40,40,0,0,0,1156.49,479.34Z" transform="translate(-212.33 -33)"/><path class="cls-8" d="M1156.26,508.93c-.48,7.19-.51,14.32-1.64,21.32a60.58,60.58,0,0,1-2.47,10.32,5.46,5.46,0,0,1-3.38,3.64,6,6,0,0,1-5.5-.91,6.08,6.08,0,0,0,5.82,1.82,6.94,6.94,0,0,0,4.67-4,40.14,40.14,0,0,0,3.09-10.6A66.76,66.76,0,0,0,1156.26,508.93Z" transform="translate(-212.33 -33)"/><path class="cls-5" d="M1080.15,400.14c0-2.82,2.64-5.11,5.9-5.11s5.89,2.29,5.89,5.11-2.64,5.11-5.89,5.11S1080.15,403,1080.15,400.14Zm2.24,0a3.69,3.69,0,1,0,3.66-3.17A3.44,3.44,0,0,0,1082.39,400.14Z" transform="translate(-212.33 -33)"/><path class="cls-5" d="M1095.25,398.49c0-2.82,2.65-5.11,5.9-5.11s5.9,2.29,5.9,5.11-2.65,5.11-5.9,5.11S1095.25,401.3,1095.25,398.49Zm2.25,0a3.69,3.69,0,1,0,3.65-3.17A3.44,3.44,0,0,0,1097.5,398.49Z" transform="translate(-212.33 -33)"/><path class="cls-5" d="M1091.94,400.25a2,2,0,0,1,1.61-1.29,2.18,2.18,0,0,1,2,.8l1.93-1a4.6,4.6,0,0,0-4.27-1.73,4.12,4.12,0,0,0-3.44,2.78Z" transform="translate(-212.33 -33)"/><polygon class="cls-5" points="912.41 367.25 914.26 366.14 910.54 361.45 893.31 363.58 893.63 365.51 909.48 363.55 912.41 367.25"/><path class="cls-9" d="M108,672H833.68a0,0,0,0,1,0,0v24.15a5.38,5.38,0,0,1-5.38,5.38H113.37a5.38,5.38,0,0,1-5.38-5.38V672a0,0,0,0,1,0,0Z"/><path class="cls-10" d="M416.57,672H525.11a0,0,0,0,1,0,0v9.73a2,2,0,0,1-2,2H418.52a2,2,0,0,1-2-2V672A0,0,0,0,1,416.57,672Z"/><path class="cls-11" d="M162.14,339.37H780.28a5.75,5.75,0,0,1,5.75,5.75V672a0,0,0,0,1,0,0H155.65a0,0,0,0,1,0,0V345.86A6.48,6.48,0,0,1,162.14,339.37Z"/><rect class="cls-12" x="172.35" y="355.64" width="596.97" height="295.74"/><path class="cls-13" d="M527.77,562.27h40.94c14,0,17.88,9.13,18.22,14.47.78,12.23,0,49,0,49,0,5.17-13.57,5.13-13.86,0v-40.9H569v40.9H526.74V584.52H523v41.24c.13,4.78-14.5,4.42-14.12,0,0,0-.86-39.57,0-48.91C509.4,571.4,513.65,562.27,527.77,562.27Z" transform="translate(-212.33 -33)"/><ellipse class="cls-13" cx="335.57" cy="511.16" rx="17.71" ry="15.34"/><path class="cls-13" d="M617.94,562.27h40.95c14,0,17.88,9.13,18.22,14.47.78,12.23,0,49,0,49,0,5.17-13.57,5.13-13.86,0v-40.9h-4.11v40.9H616.92V584.52h-3.73v41.24c.13,4.78-14.5,4.42-14.11,0,0,0-.86-39.57,0-48.91C599.58,571.4,603.83,562.27,617.94,562.27Z" transform="translate(-212.33 -33)"/><ellipse class="cls-13" cx="425.75" cy="511.16" rx="17.71" ry="15.34"/><path class="cls-13" d="M708.12,562.27h40.94c14,0,17.89,9.13,18.23,14.47.78,12.23,0,49,0,49,0,5.17-13.58,5.13-13.86,0v-40.9h-4.11v40.9H707.09V584.52h-3.72v41.24c.13,4.78-14.5,4.42-14.12,0,0,0-.86-39.57,0-48.91C689.76,571.4,694,562.27,708.12,562.27Z" transform="translate(-212.33 -33)"/><ellipse class="cls-13" cx="515.93" cy="511.16" rx="17.71" ry="15.34"/><path class="cls-13" d="M798.3,562.27h40.94c14,0,17.88,9.13,18.22,14.47.78,12.23,0,49,0,49,0,5.17-13.57,5.13-13.86,0v-40.9h-4.1v40.9H797.27V584.52h-3.72v41.24c.13,4.78-14.5,4.42-14.12,0,0,0-.86-39.57,0-48.91C779.93,571.4,784.18,562.27,798.3,562.27Z" transform="translate(-212.33 -33)"/><ellipse class="cls-13" cx="606.1" cy="511.16" rx="17.71" ry="15.34"/><path class="cls-14" d="M572.62,490.8c-12.07,7.61-26.22,29.58-26.22,29.58s-5.51-8.76-7.73-12.11c-.38-.56-3-.45-3-.45S537.35,504,541,505c2,.55,5.93,5.32,5.93,5.32s10-13.44,20-18.16C568.2,491.51,573.82,490,572.62,490.8Z" transform="translate(-212.33 -33)"/><path class="cls-14" d="M662.93,490.8c-12.08,7.61-26.22,29.58-26.22,29.58s-5.51-8.76-7.73-12.11c-.38-.56-3-.45-3-.45s1.64-3.83,5.3-2.85c2,.55,5.93,5.32,5.93,5.32s10-13.44,20-18.16C658.51,491.51,664.13,490,662.93,490.8Z" transform="translate(-212.33 -33)"/><path class="cls-14" d="M753.24,490.8C741.16,498.41,727,520.38,727,520.38s-5.51-8.76-7.74-12.11c-.37-.56-3-.45-3-.45S718,504,721.61,505c2,.55,5.94,5.32,5.94,5.32s10-13.44,20-18.16C748.82,491.51,754.44,490,753.24,490.8Z" transform="translate(-212.33 -33)"/><path class="cls-14" d="M843.55,490.8c-12.08,7.61-26.23,29.58-26.23,29.58s-5.5-8.76-7.73-12.11c-.37-.56-3-.45-3-.45s1.65-3.83,5.3-2.85c2,.55,5.93,5.32,5.93,5.32s10-13.44,20-18.16C839.12,491.51,844.74,490,843.55,490.8Z" transform="translate(-212.33 -33)"/><path class="cls-15" d="M565.46,255.64l45.8,6.86s39-45.93,74.36-74.92c34.49-28.23,77.59-56,104.6-49.63,10.18,2.4-13.27-34.64-13.27-34.64L613.42,163.46Z" transform="translate(-212.33 -33)"/><path class="cls-16" d="M713.24,381.07l51.14,12.81c9-13.93,166.3-122.27,158.4-243.81-2.45-37.65-59.94-87-59.94-87Z" transform="translate(-212.33 -33)"/><path class="cls-17" d="M508,201.71l57.44,53.93a472,472,0,0,1,65.42-69c49.84-42.61,119.12-84.25,152.48-57.32,21.08,17,4.83,55.42-21.42,89.67-40.8,53.24-107.3,103.63-107.3,103.63l58.6,58.42s264-212.71,144-323.6C747.69-43.73,508,201.71,508,201.71Z" transform="translate(-212.33 -33)"/><path class="cls-13" d="M580.82,136.43l50.06,50.24c-27.42,20.4-65.42,69-65.42,69L508,201.71S556.19,154.49,580.82,136.43Z" transform="translate(-212.33 -33)"/><path class="cls-18" d="M630.88,186.67l38.37,15.2c-26,23-58,60.63-58,60.63l-45.8-6.86S604.57,204.9,630.88,186.67Z" transform="translate(-212.33 -33)"/><path class="cls-13" d="M719.59,266.05l60.07,53.26c-21.62,24.76-66.42,61.76-66.42,61.76l-58.6-58.42A676.34,676.34,0,0,0,719.59,266.05Z" transform="translate(-212.33 -33)"/><path class="cls-18" d="M779.66,319.31,829,334.37c-43.39,41.86-64.62,59.51-64.62,59.51l-51.14-12.81S756.88,344.32,779.66,319.31Z" transform="translate(-212.33 -33)"/><polygon class="cls-14" points="377.28 276.34 409.74 282.92 370.21 304.24 398.13 309.89 330.52 340.43 368.06 311.25 343.95 306.37 377.28 276.34"/><polygon class="cls-14" points="279.5 208.03 311.96 214.6 272.43 235.92 300.35 241.57 232.75 272.11 270.29 242.94 246.18 238.06 279.5 208.03"/><polygon class="cls-14" points="487.09 367.29 508.8 389.2 462.36 386.18 481.03 405.03 405.65 395.09 455.84 390.75 439.72 374.48 487.09 367.29"/></svg>