<svg id="Слой_1" data-name="Слой 1" xmlns="http://www.w3.org/2000/svg" xmlns:xlink="http://www.w3.org/1999/xlink" viewBox="0 0 2027.44 1776.33"><defs><style>.cls-1{fill:#ffba55;}.cls-2{fill:#78c2ff;}.cls-3{fill:#8f8f8f;}.cls-4{fill:#f0f0f0;}.cls-5{fill:#fff;}.cls-6{fill:url(#linear-gradient);}.cls-7{fill:#ccc;}.cls-8{fill:#f5f7ff;}.cls-9{fill:#e6e6e6;}.cls-10{fill:#f3f3f3;}.cls-11{fill:url(#linear-gradient-2);}.cls-12{fill:url(#linear-gradient-3);}.cls-13{fill:url(#linear-gradient-4);}.cls-14{fill:url(#linear-gradient-5);}.cls-15{fill:url(#linear-gradient-6);}.cls-16{fill:url(#linear-gradient-7);}.cls-17{fill:#eea886;}.cls-18{fill:#112230;}.cls-19{fill:#f0c141;}.cls-20{fill:#152b3d;}.cls-21{fill:#3a3f47;}.cls-22{fill:#1d3b54;}.cls-23{fill:#d6d6d6;}.cls-24{fill:url(#linear-gradient-8);}.cls-25{fill:#c9e0ff;}.cls-26{fill:#4aafff;}.cls-27{fill:#1a598c;}.cls-28{fill:#2273b5;}.cls-29{fill:#3788cc;}.cls-30{fill:#e2f3fe;}.cls-31{fill:#3b3b40;}.cls-32{fill:#eb4747;}.cls-33{fill:#434343;}.cls-34{fill:#a33131;}.cls-35{fill:#d1c0ba;}.cls-36{fill:#eea987;}.cls-37{fill:#a87860;}.cls-38{fill:#162d40;}.cls-39{fill:#0e1e2b;}.cls-40{fill:#eddad3;}.cls-41{fill:#db9c7c;}.cls-42{fill:#fccca2;}.cls-43{fill:#ab3434;}.cls-44{fill:#353a3d;}.cls-45{fill:#81807e;}.cls-46{fill:#2d3133;}.cls-47{fill:#decbc4;}.cls-48{fill:#495055;}.cls-49{fill:#a77860;}.cls-50{fill:#3c4145;}.cls-51{fill:#51565c;}.cls-52{fill:#f5e2d9;}.cls-53{fill:#323657;}.cls-54{fill:#ad9f99;}.cls-55{fill:#69737a;}.cls-56{fill:#d9c9c2;}</style><linearGradient id="linear-gradient" x1="720.5" y1="521.95" x2="1827" y2="521.95" gradientTransform="translate(2547.51 1043.9) rotate(-180)" gradientUnits="userSpaceOnUse"><stop offset="0" stop-color="#ff9f55"/><stop offset="1" stop-color="#ffd255"/></linearGradient><linearGradient id="linear-gradient-2" x1="1925.94" y1="1269.32" x2="2144.4" y2="1269.32" gradientUnits="userSpaceOnUse"><stop offset="0" stop-color="#40d5e6"/><stop offset="1" stop-color="#57f"/></linearGradient><linearGradient id="linear-gradient-3" x1="2086.2" y1="1391.22" x2="2283.75" y2="1391.22" xlink:href="#linear-gradient-2"/><linearGradient id="linear-gradient-4" x1="2103.08" y1="1419.95" x2="2251.36" y2="1419.95" xlink:href="#linear-gradient-2"/><linearGradient id="linear-gradient-5" x1="2049.54" y1="1300.63" x2="2222.22" y2="1300.63" xlink:href="#linear-gradient-2"/><linearGradient id="linear-gradient-6" x1="1753.61" y1="1436.5" x2="1912.95" y2="1436.5" gradientUnits="userSpaceOnUse"><stop offset="0" stop-color="#ff9340"/><stop offset="1" stop-color="#ffce45"/></linearGradient><linearGradient id="linear-gradient-7" x1="2009.91" y1="1548.32" x2="2169.26" y2="1548.32" gradientUnits="userSpaceOnUse"><stop offset="0" stop-color="#c97332"/><stop offset="1" stop-color="#ffce45"/></linearGradient><linearGradient id="linear-gradient-8" x1="872.46" y1="633.49" x2="872.46" y2="839.81" gradientUnits="userSpaceOnUse"><stop offset="0" stop-color="#d3dae0"/><stop offset="1" stop-color="#fff"/></linearGradient></defs><title>billing</title><path class="cls-1" d="M780,959.57c-.18,0-18.15.16-43.22-4.58-23.14-4.36-57.26-13.92-88.41-34.63-30.84-20.5-70.83-27.68-99-30.09a328.65,328.65,0,0,0-54.2-.32L495,888a331.76,331.76,0,0,1,54.56.32c28.34,2.43,68.68,9.67,99.86,30.41,30.86,20.51,64.69,30,87.64,34.33,24.89,4.71,42.71,4.55,42.88,4.55Z" transform="translate(-256.31 -111.82)"/><path class="cls-1" d="M802.35,971.08c-20.55,23.21-107.87,37.56-159.69,10.48-28.64-15-51.35-32.46-71.39-47.9-26.12-20.11-48.68-37.48-76.35-43.73l-2.42-.54,2.14-1.25c.41-.23,41-23.44,98.83-27.31a238.31,238.31,0,0,1,98.82,14.07c39.45,14.5,76.37,39.84,109.74,75.31l-.71.67.71-.67c5.88,6.25,6.39,13,1.47,19.47C803.14,970.15,802.76,970.61,802.35,971.08ZM497.84,888.63c26.95,6.78,49.1,23.84,74.62,43.49,20,15.39,42.62,32.82,71.1,47.71,23.41,12.23,57,17,92.27,13.2,29.82-3.26,55.56-12.51,65.08-23.26.37-.42.71-.84,1-1.27,4.33-5.71,3.89-11.41-1.33-17-75.05-79.77-154-92.31-206.92-88.78C543.87,866.08,507,883.82,497.84,888.63Z" transform="translate(-256.31 -111.82)"/><rect class="cls-1" x="575.81" y="861.94" width="1.95" height="36.01" transform="translate(-651.22 364.67) rotate(-34.21)"/><rect class="cls-1" x="568.28" y="917.39" width="49.63" height="1.95" transform="translate(-721.92 533.99) rotate(-42.71)"/><rect class="cls-1" x="645.86" y="863.71" width="1.95" height="55.92" transform="translate(-321.08 -61.04) rotate(-4.28)"/><path class="cls-1" d="M770.52,879.31c-.23-.08-23.66-8.43-53.49-28.91-27.52-18.89-66.3-52.28-94.8-104-33-60-69-97.87-93.28-119.05-26.35-22.95-45.13-31.82-45.32-31.91l.79-1.69c.19.08,19.15,9,45.69,32.13,24.45,21.28,60.57,59.31,93.76,119.61,28.32,51.46,66.87,84.64,94.22,103.42,29.63,20.34,52.82,28.61,53,28.69Z" transform="translate(-256.31 -111.82)"/><path class="cls-1" d="M842,874.6l-5.28,1c-.17,0-17.47,3.13-44.11,2.66a318.58,318.58,0,0,1-102.9-19c-45.56-16.76-85.2-44-117.83-81.08-40.76-46.26-70.62-108-88.74-183.41l-.2-.85.83-.26c.31-.09,30.9-9.44,70.89.17,23.47,5.65,45.56,16.61,65.64,32.6,25.08,20,47.09,47.83,65.41,82.86C727,788.19,765.91,828.73,791.3,848.84c27.4,21.7,45.2,24.86,45.38,24.88ZM485.15,595.2c41,169.4,134.1,236.12,205.1,262.26a316.6,316.6,0,0,0,102.28,18.9,271.9,271.9,0,0,0,39.33-2c-7-2.21-21.77-8.28-41.72-24.08-25.53-20.22-64.67-61-106.11-140.16-41.21-78.75-93.35-105.74-129.84-114.51C518.37,587,490.28,593.8,485.15,595.2Z" transform="translate(-256.31 -111.82)"/><rect class="cls-1" x="597.01" y="727.21" width="1.87" height="74.94" transform="translate(-448.37 1216.91) rotate(-87.5)"/><rect class="cls-1" x="610.63" y="621" width="1.87" height="105.15" transform="translate(-257.02 -111.17) rotate(-0.06)"/><rect class="cls-1" x="532.35" y="628.58" width="1.87" height="60.71" transform="translate(-408.92 1045.26) rotate(-87.01)"/><path class="cls-2" d="M2014.16,505.7l-28.36-46.43a8.08,8.08,0,0,1,13.79-8.42l20.05,32.83L2073,452.13a8.07,8.07,0,1,1,8.22,13.9Z" transform="translate(-256.31 -111.82)"/><path class="cls-2" d="M2033.2,577.26a102,102,0,1,1,102-102A102.09,102.09,0,0,1,2033.2,577.26Zm0-189.38a87.41,87.41,0,1,0,87.4,87.41A87.51,87.51,0,0,0,2033.2,387.88Z" transform="translate(-256.31 -111.82)"/><path class="cls-2" d="M1698.36,355.72,1680.84,327a5,5,0,0,1,8.52-5.21l12.39,20.29,32.94-19.5a5,5,0,0,1,5.09,8.6Z" transform="translate(-256.31 -111.82)"/><path class="cls-2" d="M1710.13,399.94a63,63,0,1,1,63-63A63.09,63.09,0,0,1,1710.13,399.94Zm0-117a54,54,0,1,0,54,54A54.08,54.08,0,0,0,1710.13,282.91Z" transform="translate(-256.31 -111.82)"/><path class="cls-2" d="M1374.31,249.82l-26.88-44a7.66,7.66,0,0,1,13.07-8l19,31.12,50.53-29.9a7.65,7.65,0,1,1,7.8,13.17Z" transform="translate(-256.31 -111.82)"/><path class="cls-2" d="M1392.36,317.66A96.67,96.67,0,1,1,1489,221,96.78,96.78,0,0,1,1392.36,317.66Zm0-179.52A82.86,82.86,0,1,0,1475.22,221,83,83,0,0,0,1392.36,138.14Z" transform="translate(-256.31 -111.82)"/><path class="cls-2" d="M1090,355.31l-17.76-29.08a5.06,5.06,0,0,1,8.64-5.27l12.56,20.56,33.39-19.76a5.06,5.06,0,1,1,5.15,8.71Z" transform="translate(-256.31 -111.82)"/><path class="cls-2" d="M1101.93,400.14a63.88,63.88,0,1,1,63.87-63.87A63.95,63.95,0,0,1,1101.93,400.14Zm0-118.62a54.75,54.75,0,1,0,54.75,54.75A54.81,54.81,0,0,0,1101.93,281.52Z" transform="translate(-256.31 -111.82)"/><path class="cls-2" d="M840.47,215.63l-22.23-36.41a6.33,6.33,0,0,1,10.81-6.6l15.72,25.74,41.8-24.74a6.33,6.33,0,1,1,6.45,10.9Z" transform="translate(-256.31 -111.82)"/><path class="cls-2" d="M855.4,271.74a80,80,0,1,1,80-80A80.05,80.05,0,0,1,855.4,271.74Zm0-148.49a68.54,68.54,0,1,0,68.54,68.53A68.61,68.61,0,0,0,855.4,123.25Z" transform="translate(-256.31 -111.82)"/><path class="cls-2" d="M557.24,396.6l-24.65-40.36a7,7,0,0,1,12-7.32L562,377.46,608.35,350a7,7,0,0,1,7.15,12.09Z" transform="translate(-256.31 -111.82)"/><path class="cls-2" d="M573.79,458.82a88.65,88.65,0,1,1,88.65-88.65A88.75,88.75,0,0,1,573.79,458.82Zm0-164.64a76,76,0,1,0,76,76A76.07,76.07,0,0,0,573.79,294.18Z" transform="translate(-256.31 -111.82)"/><path class="cls-2" d="M1909.64,230.66l-14-22.95a4,4,0,1,1,6.81-4.16l9.91,16.22,26.36-15.59a4,4,0,0,1,4.06,6.87Z" transform="translate(-256.31 -111.82)"/><path class="cls-2" d="M1919.05,266a50.41,50.41,0,1,1,50.41-50.4A50.46,50.46,0,0,1,1919.05,266Zm0-93.61a43.21,43.21,0,1,0,43.21,43.21A43.25,43.25,0,0,0,1919.05,172.42Z" transform="translate(-256.31 -111.82)"/><rect class="cls-3" x="1204.24" y="1207.01" width="139.03" height="422.29" transform="translate(2291.2 2724.48) rotate(180)"/><rect class="cls-4" x="673.49" y="563.51" width="1200.53" height="846.91" rx="61.06" transform="translate(2291.2 1862.12) rotate(180)"/><rect class="cls-5" x="720.5" y="473.37" width="1106.5" height="804.34" transform="translate(2291.2 1639.26) rotate(180)"/><rect class="cls-6" x="720.5" y="473.37" width="1106.5" height="97.15" transform="translate(2291.2 932.08) rotate(180)"/><ellipse class="cls-7" cx="1481.58" cy="1226.62" rx="45.54" ry="38.73"/><rect class="cls-7" x="704.71" y="1501.54" width="625.48" height="31.88"/><rect class="cls-8" x="510.41" y="391.77" width="157.82" height="36.71" rx="13.2"/><rect class="cls-9" x="545.27" y="797.2" width="579.32" height="19.91"/><rect class="cls-9" x="545.27" y="833.06" width="429.68" height="19.91"/><rect class="cls-9" x="545.27" y="910.99" width="272.45" height="19.91"/><rect class="cls-9" x="545.27" y="946.86" width="489.48" height="19.91"/><rect class="cls-9" x="545.27" y="1032.55" width="348.29" height="19.91"/><rect class="cls-9" x="545.27" y="1068.42" width="425.3" height="19.91"/><rect class="cls-2" x="517" y="797.2" width="14.56" height="55.78"/><rect class="cls-2" x="517" y="910.99" width="14.56" height="55.78"/><rect class="cls-2" x="517" y="1032.55" width="14.56" height="55.78"/><rect class="cls-2" x="1253.89" y="1033.66" width="79.79" height="79.79" rx="16.7"/><path class="cls-10" d="M1547.57,1203l-20.18-17.59a4,4,0,0,1,5.23-6l14.26,12.44,20.34-22.69a4,4,0,0,1,5.92,5.3Z" transform="translate(-256.31 -111.82)"/><path class="cls-2" d="M1571.84,1103.75h-43.5a18.21,18.21,0,0,1-18.18-18.19v-43.5a18.21,18.21,0,0,1,18.18-18.18h43.5a18.21,18.21,0,0,1,18.19,18.18v43.5A18.21,18.21,0,0,1,1571.84,1103.75Zm-43.5-74.81a13.14,13.14,0,0,0-13.12,13.12v43.5a13.13,13.13,0,0,0,13.12,13.12h43.5a13.13,13.13,0,0,0,13.12-13.12v-43.5a13.13,13.13,0,0,0-13.12-13.12Z" transform="translate(-256.31 -111.82)"/><path class="cls-2" d="M1692,982.19h-43.5A18.21,18.21,0,0,1,1630.3,964V920.5a18.21,18.21,0,0,1,18.18-18.18H1692a18.21,18.21,0,0,1,18.19,18.18V964A18.21,18.21,0,0,1,1692,982.19Zm-43.5-74.81a13.14,13.14,0,0,0-13.12,13.12V964a13.14,13.14,0,0,0,13.12,13.13H1692A13.14,13.14,0,0,0,1705.1,964V920.5A13.14,13.14,0,0,0,1692,907.38Z" transform="translate(-256.31 -111.82)"/><path class="cls-2" d="M1692,1225.31h-43.5a18.21,18.21,0,0,1-18.18-18.19v-43.5a18.21,18.21,0,0,1,18.18-18.18H1692a18.21,18.21,0,0,1,18.19,18.18v43.5A18.21,18.21,0,0,1,1692,1225.31Zm-43.5-74.81a13.14,13.14,0,0,0-13.12,13.12v43.5a13.13,13.13,0,0,0,13.12,13.12H1692a13.13,13.13,0,0,0,13.12-13.12v-43.5A13.14,13.14,0,0,0,1692,1150.5Z" transform="translate(-256.31 -111.82)"/><rect class="cls-2" x="1374.03" y="912.1" width="79.79" height="79.79" rx="16.7"/><path class="cls-10" d="M1667.7,1081.39l-20.17-17.59a4,4,0,0,1,5.22-6l14.27,12.44,20.34-22.69a4,4,0,1,1,5.92,5.31Z" transform="translate(-256.31 -111.82)"/><rect class="cls-2" x="1253.89" y="790.54" width="79.79" height="79.79" rx="16.7"/><path class="cls-10" d="M1547.57,959.83l-20.18-17.59a4,4,0,0,1,5.23-6l14.26,12.44L1567.22,926a4,4,0,0,1,5.92,5.3Z" transform="translate(-256.31 -111.82)"/><path class="cls-11" d="M1945,980.65c18.84-9,37.58,51,37.58,51,32,42.31,76.76-14,72.39,49.27-7.66,110.66,127.38,34.8,65.08,150.34s55,65.32,16.29,158.49,11.47,204.27-46.78,158.61c0,0-51.3-112.48-104.19-147.28s31.69-76.09,15.14-123.36c-24-68.65-82-66-40.2-139.73S1881,1011.28,1945,980.65Z" transform="translate(-256.31 -111.82)"/><path class="cls-5" d="M2108,1506c-25.25-17.76-54.8-141.51-56.56-215.22-.91-37.75-12.07-53.48-21.91-67.36-9.42-13.27-17.54-24.72-12.81-51,9-50.27-14.74-72-15-72.18l2.75-3.14c1.06.92,25.84,23.31,16.34,76.06-4.42,24.58,2.87,34.86,12.1,47.87,9.69,13.66,21.75,30.65,22.68,69.68,1.89,79.11,32.11,195.95,54.79,211.9Z" transform="translate(-256.31 -111.82)"/><path class="cls-12" d="M2117.48,1515.16a53.55,53.55,0,0,1-10.68-1.16c-9.73-2-16.11-7.1-19-15.26-6.81-19.46,9-51.09,21.76-66.33.21-.25,21.64-26.44,19.35-62.73-.38-6.08-1-11.72-1.57-16.68-1.61-14.37-2.77-24.74,3.4-31.67,5.43-6.11,15.93-8.76,35.09-8.85,33.6-.16,46.89-14.07,57.57-25.25,4.53-4.75,8.81-9.23,14-12.07h0c16.75-9.14,34.48-10.49,42.18-3.2,3.65,3.47,6.74,10.25.68,22.9-5.53,11.57-12.7,18.89-18.47,24.77-7.75,7.91-12.88,13.14-10.21,23.56.63,2.45,1.35,4.92,2.07,7.4,5.18,17.71,11.06,37.8-19.27,51.43-6.43,2.89-12.3,5.19-17.47,7.22-21.17,8.31-33.95,13.32-48.37,43.77-2.79,5.89-5.26,11.48-7.64,16.88C2149.59,1495.67,2141,1515.16,2117.48,1515.16Zm122-236.34c-4.63,2.53-8.51,6.59-13,11.3-11.22,11.75-25.19,26.37-60.57,26.54-17.62.08-27.48,2.38-32,7.44-4.93,5.54-3.86,15.14-2.37,28.43.56,5,1.2,10.7,1.59,16.89,2.39,38-19.39,64.56-20.32,65.67-12.67,15.09-27,45.12-21,62.28,2.33,6.66,7.67,10.89,15.85,12.54,28.56,5.77,36.44-12.1,49.51-41.7,2.39-5.43,4.87-11,7.68-17,15.14-31.94,29.25-37.48,50.62-45.87,5.13-2,10.95-4.29,17.29-7.14,27-12.14,22.13-28.81,17-46.45-.74-2.53-1.48-5-2.12-7.53-3.25-12.7,3.16-19.24,11.28-27.52,5.84-6,12.45-12.71,17.68-23.65,2.75-5.73,5-13.52.21-18.06-6.31-6-22.34-4.34-37.3,3.82Z" transform="translate(-256.31 -111.82)"/><path class="cls-13" d="M2107.25,1539.27l-4.17-.22c.21-3.92,5.47-96.27,42.55-123.3,40.68-29.65,53.51-61.52,59.62-82.91,7.19-25.2,43.83-31.94,45.38-32.21l.73,4.11c-.35.06-35.62,6.56-42.1,29.25-6.28,22-19.45,54.72-61.17,85.14C2112.6,1445,2107.3,1538.33,2107.25,1539.27Z" transform="translate(-256.31 -111.82)"/><path class="cls-14" d="M2192,1073.85c-26.35-9-20.88,41.76-32,79.35s-123.89,16.39-76.56,110.51-59.86,31.47-27.84,113.6,2.78,170,37.58,147.62,19.55-125.76,55.74-138,42.1-26.62,6.27-60,93.9-66.57,61.88-134S2222.48,1084.29,2192,1073.85Z" transform="translate(-256.31 -111.82)"/><path class="cls-5" d="M2109.35,1521c-3.32-14.06-31.62-137.79-5.21-152.75,23.28-13.18,22.7-64.45,19.07-112.87-3.21-42.85,51.83-62.88,54.17-63.72l1.4,3.94c-.54.19-54.38,19.8-51.4,59.47,3.73,49.72,4.13,102.48-21.18,116.82-20.06,11.35-1.59,110.79,7.21,148.15Z" transform="translate(-256.31 -111.82)"/><polygon class="cls-15" points="1912.95 1365.12 1875.33 1507.88 1791.23 1507.88 1753.61 1365.12 1912.95 1365.12"/><path class="cls-16" d="M2169.26,1476.94s-82.84,15.55-82.84,142.76h-38.88l-37.63-142.76Z" transform="translate(-256.31 -111.82)"/><path class="cls-17" d="M1788.94,1487s3.59,14.1,4.08,16.22,22.59-3.72,22.59-3.72l0-17.24S1791.54,1484.68,1788.94,1487Z" transform="translate(-256.31 -111.82)"/><path class="cls-18" d="M1792.58,1501.43s-6.18,9.39-12.66,13.89-31.48,10.33-35.14,14.66c-2.63,3.13-6.3,15,33.82,9.56,28.51-3.84,42.57-2.87,45.14-7.83s-8.13-33.75-8.13-33.75S1809.51,1501.28,1792.58,1501.43Z" transform="translate(-256.31 -111.82)"/><rect class="cls-19" x="1744.2" y="1069.76" width="10.14" height="819.86" transform="translate(-392.47 66.11) rotate(-5.61)"/><rect class="cls-19" x="1907.46" y="1053.92" width="10.14" height="819.86" transform="translate(-390.14 81.97) rotate(-5.61)"/><rect class="cls-19" x="1710.69" y="1077.52" width="164.03" height="10.14" transform="translate(-352.59 66.59) rotate(-5.55)"/><rect class="cls-19" x="1718.06" y="1153.43" width="164.02" height="10.14" transform="translate(-359.79 67.46) rotate(-5.54)"/><rect class="cls-19" x="1725.43" y="1229.35" width="164.03" height="10.14" transform="translate(-367.08 68.52) rotate(-5.54)"/><rect class="cls-19" x="1732.79" y="1305.27" width="164.03" height="10.14" transform="translate(-374.27 69.4) rotate(-5.54)"/><rect class="cls-19" x="1740.16" y="1381.18" width="164.03" height="10.14" transform="translate(-381.57 70.48) rotate(-5.54)"/><rect class="cls-19" x="1747.53" y="1457.1" width="164.03" height="10.14" transform="translate(-388.99 71.74) rotate(-5.54)"/><rect class="cls-19" x="1754.9" y="1533.01" width="164.03" height="10.14" transform="translate(-396.27 72.79) rotate(-5.54)"/><rect class="cls-19" x="1762.26" y="1608.93" width="164.02" height="10.14" transform="translate(-403.57 73.86) rotate(-5.54)"/><rect class="cls-19" x="1769.63" y="1684.84" width="164.02" height="10.14" transform="translate(-410.88 74.94) rotate(-5.54)"/><rect class="cls-19" x="1777" y="1760.76" width="164.02" height="10.14" transform="translate(-418.17 75.99) rotate(-5.54)"/><rect class="cls-19" x="1784.37" y="1836.67" width="164.03" height="10.14" transform="translate(-425.31 76.86) rotate(-5.54)"/><path class="cls-20" d="M1761.68,1190.24s-16.08,59.72-20.32,81.07c-3.69,18.59-11.12,68.13-12.18,79.91s47.47,125.77,52.52,146.37l44.21-7.1s-46.64-118.65-34.48-145c18.1-39.21,20.46-38,34.72-70.33s46.89-33.06,55.65-93C1881.8,1182.14,1773.55,1171.24,1761.68,1190.24Z" transform="translate(-256.31 -111.82)"/><path class="cls-17" d="M1840.3,900.1s-29.36-11-42.89,11.39-12.23,67.08,2.56,72.58,37,2.63,44.61-11.35,14.41-34.2,14.09-47.71S1848,904,1840.3,900.1Z" transform="translate(-256.31 -111.82)"/><path class="cls-17" d="M1804.9,982.7s1.19,7.7-.77,11.49,36.92,3.89,36.92,3.89,3.16-20.62,9.15-38S1804.9,982.7,1804.9,982.7Z" transform="translate(-256.31 -111.82)"/><path class="cls-21" d="M1850.2,960s-2.69,4.42-13.64,2.71-24.32-16.3-28.9-17.9-4.62-4.29-4.62-4.29l-2.86,4.19-4.86.31s4.43-13-2.25-18.36,6.94-42.2,42.07-29.92c0,0,27,7.44,26,22.78S1856.23,952.39,1850.2,960Z" transform="translate(-256.31 -111.82)"/><path class="cls-17" d="M1803.77,935c.61-2.57,7.16-9.93,9.67-2.05s-3.79,18.47-7.3,17.56S1802.21,941.51,1803.77,935Z" transform="translate(-256.31 -111.82)"/><path class="cls-22" d="M1915.74,1095c-.32,3.85-4.72,8-7.72,10.07a12.5,12.5,0,0,1-6.69,2.2l-1.74.06h0l-30.5,1s-22.68-73.3,19.86-101.26C1890.26,1007.2,1918.69,1059.62,1915.74,1095Z" transform="translate(-256.31 -111.82)"/><path class="cls-18" d="M1823.74,1531.71c-2.57,5-16.63,4-45.14,7.83a130.87,130.87,0,0,1-18.74,1.39l-1.66-17.15c8.34-2.9,18-5.89,21.72-8.46,6.48-4.5,12.66-13.89,12.66-13.89,16.93-.15,23-3.47,23-3.47S1826.3,1526.74,1823.74,1531.71Z" transform="translate(-256.31 -111.82)"/><path class="cls-22" d="M1804.88,992s23.94-5.57,37.43-1l2,1.88s4.1,7.87-11.34,8.54S1793.31,1003.16,1804.88,992Z" transform="translate(-256.31 -111.82)"/><path class="cls-17" d="M1898.43,1552.92s3.59,14.09,4.08,16.21,22.58-3.72,22.58-3.72l0-17.23S1901,1550.6,1898.43,1552.92Z" transform="translate(-256.31 -111.82)"/><path class="cls-20" d="M1881.8,1182.14s8.06,33.24,10.45,66.52c2.2,30.75,6.22,64.48,9.41,96.64,3.55,35.86,13.7,93.82,14.23,113s16.67,103,16.67,103l-41.3,4.75s-26.83-148.13-33.16-163.27-37.76-123.09-38.82-135.21S1881.8,1182.14,1881.8,1182.14Z" transform="translate(-256.31 -111.82)"/><path class="cls-18" d="M1902.07,1567.34s-6.19,9.4-12.67,13.9-31.48,10.33-35.13,14.66c-2.64,3.12-6.3,15,33.82,9.56,28.51-3.84,42.57-2.87,45.13-7.84s-8.13-33.75-8.13-33.75S1919,1567.19,1902.07,1567.34Z" transform="translate(-256.31 -111.82)"/><path class="cls-22" d="M1753.33,1264.83c-3.52-.5,8.73-105.34,7.79-111.92-.62-4.39-.52-38.46-.27-59.7l-3.83-21.5a99,99,0,0,0-8.42-5.32c-5.32-3.07-12-6.58-19.42-10.29.86-5.08,1.46-9.07,1.69-11.41,1.86-18.88,14.54-28.89,21.73-33.1a34.93,34.93,0,0,1,5-2.47c2.73-1.16,5.42-2.28,8-3.35,17.32-7.13,39.31-13.82,39.31-13.82h35.33s26.91,5.38,42.94,11.94a30.12,30.12,0,0,1,5.79,3.17l-4.8,100.75a.13.13,0,0,0,0,.06s0,.08,0,.13c-2.16,14.18-4.44,30.89-5.2,42.62-.31,4.78,5.16,30.48,8,54.08l10,56.44S1891.15,1284.54,1753.33,1264.83Z" transform="translate(-256.31 -111.82)"/><path class="cls-17" d="M1572.92,938.1s2.09,2.59,3.55,3.27c0,0,2.76,1,4.68,1.9a15.86,15.86,0,0,1,1.45.73,27.64,27.64,0,0,0,7.81,4.14c3.77,1.08,20.84,5,20.84,5l4-10.13,2.85-8.18s-15.8-20.47-19.2-21.89a9.08,9.08,0,0,0-1-.35c-3-.93-5.61-.35-7.24-.66-.6-.11-6.62-.79-7.92.47a5.94,5.94,0,0,0-2,5.38s-3.39,3.57-3.63,6.87c0,0-3.24,3.19-2.38,7.39C1574.66,932,1571.74,935.62,1572.92,938.1Z" transform="translate(-256.31 -111.82)"/><path class="cls-22" d="M1755.88,1070.91c-3.94-2.54-9-6-26.7-14.81-32.87-16.45-73.46-46.26-81.18-50.57-11.87-6.62-49.35-52.42-49.35-52.42,1.93-6.9,19.7-20.74,19.7-20.74s56.83,53.82,69.25,60.45c10.68,5.7,63.44,11.45,78,12.95l3.71.37C1784.46,1026.84,1764.36,1076.37,1755.88,1070.91Z" transform="translate(-256.31 -111.82)"/><rect class="cls-23" x="573.53" y="727.25" width="85.25" height="10.5"/><rect class="cls-23" x="552.85" y="708.54" width="126.61" height="10.5"/><path class="cls-2" d="M894.66,676.2a22,22,0,1,1-22-22A22,22,0,0,1,894.66,676.2Z" transform="translate(-256.31 -111.82)"/><path class="cls-2" d="M912.36,748v41.86a96.86,96.86,0,0,1-79.8,0V748a39.9,39.9,0,1,1,79.8,0Z" transform="translate(-256.31 -111.82)"/><path class="cls-24" d="M872.46,801a98.35,98.35,0,0,1-41-8.84,99.16,99.16,0,1,1,82,0A98.35,98.35,0,0,1,872.46,801Zm0-193.08a93.92,93.92,0,1,0,0,187.84,93.08,93.08,0,0,0,38.81-8.36A93.94,93.94,0,0,0,872.46,608Z" transform="translate(-256.31 -111.82)"/><rect class="cls-25" x="768.47" y="524.94" width="6.91" height="159.04"/><rect class="cls-25" x="800.22" y="524.94" width="6.91" height="159.04"/><rect class="cls-25" x="831.96" y="524.94" width="6.91" height="159.04"/><rect class="cls-25" x="863.71" y="524.94" width="6.91" height="159.04"/><rect class="cls-25" x="895.45" y="524.94" width="6.91" height="159.04"/><rect class="cls-25" x="927.2" y="524.94" width="6.91" height="159.04"/><rect class="cls-25" x="958.95" y="524.94" width="6.91" height="159.04"/><rect class="cls-25" x="990.69" y="524.94" width="6.91" height="159.04"/><rect class="cls-25" x="1022.44" y="524.94" width="6.91" height="159.04"/><rect class="cls-25" x="1054.18" y="524.94" width="6.91" height="159.04"/><rect class="cls-25" x="1085.93" y="524.94" width="6.91" height="159.04"/><rect class="cls-25" x="1117.68" y="524.94" width="6.91" height="159.04"/><rect class="cls-26" x="768.47" y="572.49" width="6.91" height="111.5"/><rect class="cls-26" x="800.22" y="611.02" width="6.91" height="72.96"/><rect class="cls-26" x="831.96" y="547.89" width="6.91" height="136.09"/><rect class="cls-26" x="863.71" y="644.36" width="6.91" height="39.62"/><rect class="cls-26" x="895.45" y="604.46" width="6.91" height="79.52"/><rect class="cls-26" x="927.2" y="574.67" width="6.91" height="109.31"/><rect class="cls-26" x="958.95" y="613.48" width="6.91" height="70.5"/><rect class="cls-26" x="990.69" y="564.56" width="6.91" height="119.42"/><rect class="cls-26" x="1022.44" y="618.4" width="6.91" height="65.59"/><rect class="cls-26" x="1054.18" y="579.04" width="6.91" height="104.94"/><rect class="cls-26" x="1085.93" y="631.51" width="6.91" height="52.47"/><rect class="cls-26" x="1117.68" y="579.04" width="6.91" height="104.94"/><path class="cls-26" d="M1667.82,683.89a89.46,89.46,0,1,0-168.47,60.25c.68,1.89,1.42,3.75,2.2,5.57a89.46,89.46,0,0,0,166.27-65.82Zm-61.65,93.27a67,67,0,0,1-84.08-36.38c-.6-1.37-1.15-2.76-1.66-4.19a67.07,67.07,0,1,1,85.74,40.57Z" transform="translate(-256.31 -111.82)"/><path class="cls-27" d="M1519.56,694l-21.37-6.67a89.59,89.59,0,0,1,82.72-62.78l.67,22.38a67.19,67.19,0,0,0-62,47.07Z" transform="translate(-256.31 -111.82)"/><path class="cls-28" d="M1522.09,740.78l-20.54,8.93c-.78-1.82-1.52-3.68-2.2-5.57a89.07,89.07,0,0,1-1.16-56.79l21.37,6.67a66.77,66.77,0,0,0,.87,42.57C1520.94,738,1521.49,739.41,1522.09,740.78Z" transform="translate(-256.31 -111.82)"/><path class="cls-29" d="M1515.42,772a89.32,89.32,0,0,1-13.87-22.27l20.54-8.93a66.61,66.61,0,0,0,10.39,16.69Z" transform="translate(-256.31 -111.82)"/><path class="cls-26" d="M1745.38,738.53a37,37,0,1,0-31.65,66.9c.75.36,1.51.69,2.27,1a37,37,0,0,0,29.38-67.89Zm9.25,45.32a27.74,27.74,0,0,1-35.24,13.95c-.57-.23-1.14-.48-1.7-.74a27.75,27.75,0,0,1-13.22-36.95,27.75,27.75,0,1,1,50.16,23.74Z" transform="translate(-256.31 -111.82)"/><path class="cls-27" d="M1705,784.86l-8.21,4.3a37,37,0,0,1,5.84-42.56l6.74,6.35a27.76,27.76,0,0,0-4.37,31.91Z" transform="translate(-256.31 -111.82)"/><path class="cls-28" d="M1719.39,797.8l-3.39,8.62c-.76-.3-1.52-.63-2.27-1a36.89,36.89,0,0,1-17-16.27l8.21-4.3a27.61,27.61,0,0,0,12.71,12.2C1718.25,797.32,1718.82,797.57,1719.39,797.8Z" transform="translate(-256.31 -111.82)"/><path class="cls-26" d="M1763,675.12a37,37,0,1,0-66.9-31.65c-.35.75-.68,1.51-1,2.27A37,37,0,0,0,1763,675.12Zm-45.31,9.25a27.68,27.68,0,0,1-14-35.23c.22-.58.47-1.15.73-1.71a27.74,27.74,0,1,1,13.22,36.94Z" transform="translate(-256.31 -111.82)"/><path class="cls-26" d="M1716.67,634.72l-4.3-8.2a37.08,37.08,0,0,1,42.56,5.83l-6.35,6.74a27.81,27.81,0,0,0-31.91-4.37Z" transform="translate(-256.31 -111.82)"/><path class="cls-28" d="M1703.74,649.14l-8.62-3.4c.3-.76.63-1.52,1-2.27a36.87,36.87,0,0,1,16.27-17l4.3,8.2a27.66,27.66,0,0,0-12.2,12.71C1704.21,648,1704,648.56,1703.74,649.14Z" transform="translate(-256.31 -111.82)"/><path class="cls-29" d="M1692.66,656.31a36.81,36.81,0,0,1,2.46-10.57l8.62,3.4a27.55,27.55,0,0,0-1.85,7.92Z" transform="translate(-256.31 -111.82)"/><polygon class="cls-30" points="1461.88 721.44 1392.78 721.44 1392.78 720.07 1460.51 720.07 1460.51 693.96 1461.88 693.96 1461.88 721.44"/><polygon class="cls-30" points="1331.75 721.44 1241.88 721.44 1241.88 720.07 1330.38 720.07 1330.38 677.34 1331.75 677.34 1331.75 721.44"/><rect class="cls-26" x="1241.88" y="705.77" width="61.84" height="8.24"/><rect class="cls-26" x="1392.78" y="705.77" width="36.37" height="8.24"/><path class="cls-31" d="M697.94,1082.78s-26.12-.88-34.46,20.52-2,37.83.34,45.62c6.21,20.37,6.72,27.76,3.71,40-2.66,10.89-5.11,16.52-8.19,26.7s2.06,9,2.5,9.8,102.28,10.15,102.28,10.15-2.72-22.06-9.89-27.18-14.26-6.16-8.81-28,8.92-32,5.86-47.79c-3.54-18.34-5.77-29.8-23-41.83A46.33,46.33,0,0,0,697.94,1082.78Z" transform="translate(-256.31 -111.82)"/><path class="cls-7" d="M667.81,1802.79s14.36,21.33,20.15,26.47c0,0,12.86,4.72,14.15,13.72s1.07,15-14.15,15.44-25.2-2.3-28-11.52a42,42,0,0,0-8.89-15.49v19.29h-3.43s-.85-18.65-1.07-22.08-2.46-16.62,4.77-22.46S667.81,1802.79,667.81,1802.79Z" transform="translate(-256.31 -111.82)"/><path class="cls-7" d="M739.71,1785.74a61.87,61.87,0,0,0,7.18,12c3.44,4.49,14.15,22.94,18.87,24.22s19.29,3.86,20.58,12,1.93,13.93-12.44,14.58-23.79,1.5-30.65-8.58-17.8-17.36-17.8-17.36v26.29h-5.57s-2.57-27.37-4.07-29.29-5.36-22.94,7.93-33.88S739.71,1785.74,739.71,1785.74Z" transform="translate(-256.31 -111.82)"/><path class="cls-17" d="M658.16,1391.06s-16.14,24-21.06,52,.91,121.46.69,135.29-13.08,48.23-10.5,74.28,24.06,153.55,24.06,153.55l16.46-3.37s-1.61-132.17,0-143.11,4.83-50.78,5.47-55.29,40.83-122.71,40.83-142.89S701.89,1358.15,658.16,1391.06Z" transform="translate(-256.31 -111.82)"/><path class="cls-17" d="M749.27,1400.28s29.8,113.73,33.34,129.49,8.66,28.75,8.66,35.44c0,15.52-5.77,40.45-5.77,40.45l-45.79,180.08-19,3s11-110.67,11.52-131.9,16.92-51.49,13.71-60.5-51.78-112.87-51.78-112.87S657.41,1367.26,749.27,1400.28Z" transform="translate(-256.31 -111.82)"/><path class="cls-17" d="M688,1829.26s-14.71,8.23-24.18-2.33c-8-8.92-12.43-20.77-12.43-20.77l16.46-3.37Z" transform="translate(-256.31 -111.82)"/><path class="cls-17" d="M765.76,1822s-12.87,3.22-17.8,0-21.69-31.55-27.24-33.24c0,0,5.38-10.92,19-3C739.71,1785.74,762.11,1817.26,765.76,1822Z" transform="translate(-256.31 -111.82)"/><path class="cls-32" d="M791.27,1565.21s-68.93,29.59-171.55,29.59c0,0,10.81-155.5,25.73-189s106.2,3.38,106.2,3.38S791.27,1537.16,791.27,1565.21Z" transform="translate(-256.31 -111.82)"/><path class="cls-32" d="M868.8,1339.94s-62.86,5.41-78.42-1.52c-7.79-3.46-18.34-17.83-28.08-33.59-1.65-2.68-3.29-5.4-4.88-8.11-11.91-20.3-21.54-40.25-21.54-40.25s-28.76-36.17,1.85-49.1A37.13,37.13,0,0,1,757,1222.1c7.39,11.43,13.17,28.58,14.63,34.23s26.06,55.36,27.61,56.76,17,.47,28.93,1.59c19.45,1.84,40,2.91,40,2.91Z" transform="translate(-256.31 -111.82)"/><path class="cls-32" d="M760,1289.45c-7.73,17.9-.44,23.88-4,41.78s-4.8,68.9-4.14,78.85-88.15,20.16-108.71,2c0,0,6.85-38.69,19.43-62.74,2.4-4.57,1.25-22.57-1.18-28.76-.75-1.89-3.72-9.21-7.5-18.46v0c-3.93-9.62-8.72-21.32-12.76-31.18-4.78-11.68-8.52-20.78-8.52-20.78s-3.06-28.8,8.9-38.09c10.39-8.07,38.7-10.94,43.78-12.71s19.87-2.54,30.27-1c0,0,15.91,7.51,21.43,8.62s27,29,30.73,39.12S767.69,1271.55,760,1289.45Z" transform="translate(-256.31 -111.82)"/><path class="cls-17" d="M723.12,1180s-3.18,29.2-2.51,38.7c0,0-13.3,16.17-32.11-19.75,0,0,4.68-14.39-1.28-34.56S723.12,1180,723.12,1180Z" transform="translate(-256.31 -111.82)"/><path class="cls-17" d="M672.56,1201.93s11.37,33.6,42.61,31.13,14.8-28.37,14.8-28.37-7.78-4.47-10-4.89-31-1.64-31-1.64Z" transform="translate(-256.31 -111.82)"/><rect class="cls-33" x="537.07" y="1117.54" width="86.28" height="123.25" rx="5.92"/><rect class="cls-5" x="542.93" y="1125.92" width="74.55" height="106.49"/><path class="cls-17" d="M771.84,1327.43a8.61,8.61,0,0,0,4.68-1.34c3.2-2.41,4.35-8.36,10-7.92s8.27,18.14,6.85,21.5-9.26,5-20.85,2.72S771.84,1327.43,771.84,1327.43Z" transform="translate(-256.31 -111.82)"/><path class="cls-17" d="M784.58,1318.29a177.19,177.19,0,0,1,17.49-4.8c8.23-1.78,18-2.36,19-.93,1.06,1.59-8,3-16.07,5.25-7.42,2.1-5.65,2.88-5.65,2.88s-.49-.25,8-1c9.1-.85,18.48-.84,19.41,1,.45.89.13,1.49-3.15,2.32,2-.09,2.25.42,2.33,1.21.39,4.1-12.89,7.37-18.17,8.66,4.06-1,7.12-1.26,5.66,1.49-1.67,3.14-20.62,6.94-27.31,8.93C778.82,1345.41,784.58,1318.29,784.58,1318.29Z" transform="translate(-256.31 -111.82)"/><path class="cls-17" d="M869.81,1253s12.26-2.85,16.21,3.06a23,23,0,0,1,3.11,17c-1,3.51-4.17,12.56-8.31,10.7C867.5,1277.84,869.81,1253,869.81,1253Z" transform="translate(-256.31 -111.82)"/><path class="cls-17" d="M882,1253.15s-1.72-8.29-5-6.87-.32,6.88-.32,6.88Z" transform="translate(-256.31 -111.82)"/><path class="cls-17" d="M869.81,1253s.2-4.73,8.78.14S869.81,1253,869.81,1253Z" transform="translate(-256.31 -111.82)"/><path class="cls-34" d="M757.42,1296.71s9.35-22.22,9.75-27.23c-.08,3-.75,21-4.87,35.35-1.65-2.68-3.29-5.4-4.88-8.11Z" transform="translate(-256.31 -111.82)"/><path class="cls-35" d="M767.17,1269.48c0-.28,0-.42,0-.42A3.25,3.25,0,0,1,767.17,1269.48Z" transform="translate(-256.31 -111.82)"/><path class="cls-34" d="M719.23,1327.45l-38.94-68.56s13.6,68.39,23.9,70.69S719.23,1327.45,719.23,1327.45Z" transform="translate(-256.31 -111.82)"/><path class="cls-32" d="M643.12,1210.84s-18.68,9.3-12.24,33.37,12.85,31,19,40c5.81,8.5,17.67,31.39,19.12,34s15.73,39.93,28.83,44.17,78-16.39,79.49-14.14-.08-22.75-.08-22.75-30.14,2.22-36.79,1.77c-10.8-.73-28.13,3.68-32.3-5.67-4.89-11-22.45-47.11-24.29-53.06S660.45,1204.73,643.12,1210.84Z" transform="translate(-256.31 -111.82)"/><path class="cls-36" d="M718.3,1096.48s28.81,18.8,19.45,64.27-43.38,20.46-47.08,17.89-15.11-31-15.56-43.45C674.69,1123.5,668.6,1076.65,718.3,1096.48Z" transform="translate(-256.31 -111.82)"/><path class="cls-31" d="M716.32,1105.6c-3-.89-13.14,18.71-18.6,23.55s-15.5,17-16.48,30.28-12.21-29.07-8.33-44.79,9.07-38.78,44.18-20.49,26,51,26,51S731.5,1110.08,716.32,1105.6Z" transform="translate(-256.31 -111.82)"/><path class="cls-36" d="M692,1137c-.93-5.38-12.8-9.93-12.63-1.84s6.73,17.41,10.44,16.82S692.85,1142,692,1137Z" transform="translate(-256.31 -111.82)"/><path class="cls-37" d="M693.44,1180.52c.21.4,7.07,13.58,28,16.9.47-5.14,1.12-11.44,1.12-11.44A33.73,33.73,0,0,1,693.44,1180.52Z" transform="translate(-256.31 -111.82)"/><rect class="cls-9" x="551.4" y="1138.54" width="26.17" height="5.51"/><path class="cls-2" d="M849.5,1265.31l-3.71-6.07a1.05,1.05,0,1,1,1.8-1.1l2.62,4.29,7-4.12a1.05,1.05,0,1,1,1.08,1.81Z" transform="translate(-256.31 -111.82)"/><path class="cls-2" d="M852,1274.66a13.33,13.33,0,1,1,13.32-13.33A13.35,13.35,0,0,1,852,1274.66Zm0-24.75a11.42,11.42,0,1,0,11.42,11.42A11.44,11.44,0,0,0,852,1249.91Z" transform="translate(-256.31 -111.82)"/><path class="cls-2" d="M849.5,1299l-3.71-6.06a1.06,1.06,0,0,1,.35-1.45,1,1,0,0,1,1.45.35l2.62,4.29,7-4.13a1.07,1.07,0,0,1,1.45.38,1.05,1.05,0,0,1-.37,1.44Z" transform="translate(-256.31 -111.82)"/><path class="cls-2" d="M852,1308.32A13.33,13.33,0,1,1,865.31,1295,13.35,13.35,0,0,1,852,1308.32Zm0-24.75A11.42,11.42,0,1,0,863.41,1295,11.44,11.44,0,0,0,852,1283.57Z" transform="translate(-256.31 -111.82)"/><rect class="cls-9" x="551.4" y="1149.51" width="26.17" height="5.51"/><rect class="cls-9" x="551.4" y="1174.5" width="26.17" height="5.51"/><rect class="cls-9" x="551.4" y="1185.47" width="26.17" height="5.51"/><path class="cls-17" d="M897.53,1384.54s-8.33,3.17-14.74,3.8-15.7,7.33-18.07,10.24S843,1422.32,842.62,1425s5,1.78,6.73-.33,18.7-18.87,18.7-18.87-19,21.13-18.86,23.61,3,4.59,6.49,2.4c0,0,2.79,5.73,7.73.77l9.88-9.87s-4.18,6,1.31,4.29c2.91-.92,12.7-13.36,15.43-15.21S903.24,1394,903.24,1394Z" transform="translate(-256.31 -111.82)"/><path class="cls-38" d="M965,1793.92s-7.22,14.44-11.6,17.28-28.88,26.69-33.91,28.88-21.22,5.25-21,12.91,41.78,5.25,49.88,2.41,21.66-21.23,27.13-21,3.5,22.54,3.5,22.54h5.91s7.43-23.63,7.22-31.94-4.82-31.07-4.82-31.07Z" transform="translate(-256.31 -111.82)"/><path class="cls-38" d="M1066.32,1785s-3.17,14.3-8.39,19.29-24.79,26.09-29.76,28.36-14.49,3.86-17.44,7.49-1.19,14.29,17.44,13.16,24.71-1,29.13-4.71,18.72-16.68,23-17v20.6h5.1s9-27.06,5.79-38.47-3.06-26.88-3.06-26.88Z" transform="translate(-256.31 -111.82)"/><path class="cls-17" d="M1058.92,1172.68s8.5,21.88,1.89,38.79c0,0,31.16-2,32.34-5.51s-1.25-36.33,3-46S1058.92,1172.68,1058.92,1172.68Z" transform="translate(-256.31 -111.82)"/><path class="cls-17" d="M1115.34,1466.1s-1.8,4.78-1.53,8.3c.22,2.79-1.33,7.36-1.92,9.82s-2,13.36-1.64,16c.14,1.1,3.69,7.43,3.73,9.7s-.45,6.86,1.52,6.74,3.56-4.16,3.56-4.16A2.81,2.81,0,0,0,1121,1515c3.43.82,4.88-.86,4.88-.86s1.55,2,3.07,1.94c3.35,0,4.71-1.7,4.71-1.7a5.72,5.72,0,0,0,3.86.41,5.23,5.23,0,0,0,3.63-3.46s3.75,0,4.5-2,.26-3.76.43-5.42-2.58-15.7-9-24.85-3.2-20.66-3.2-20.66Z" transform="translate(-256.31 -111.82)"/><path class="cls-39" d="M1105.56,1542.93l-3.86-26.64a7.88,7.88,0,0,1,6.65-8.91l42.24-6.12a7.87,7.87,0,0,1,8.91,6.65l3.86,26.64a7.88,7.88,0,0,1-6.65,8.91l-42.24,6.12A7.87,7.87,0,0,1,1105.56,1542.93Zm3.55-30.32a2.58,2.58,0,0,0-2.19,2.93l3.86,26.63a2.59,2.59,0,0,0,2.93,2.19l42.24-6.13a2.59,2.59,0,0,0,2.19-2.93l-3.86-26.63a2.6,2.6,0,0,0-2.93-2.19Z" transform="translate(-256.31 -111.82)"/><rect class="cls-40" x="1064.37" y="1532.32" width="157.57" height="114.73" transform="matrix(-0.99, 0.14, -0.14, -0.99, 2246.33, 2887.02)"/><path class="cls-41" d="M1118.32,1511.33s-2.49-12.6.32-16,3.95,1.09,3.95,1.09-1.21-4.42,2.25-5.8,4.54,4,4.54,4a3.72,3.72,0,0,1,3.86-3.71c3.87-.09,3.74,4.55,3.74,4.55s2.83-5.14,5.87-1.45c5.13,6.23,2.78,15.4,2.78,15.4s-.78,2.15-4.5,2c0,0-1.55,5.42-7.49,3.05,0,0-5,4.25-7.78-.24C1125.86,1514.15,1120.33,1518.37,1118.32,1511.33Z" transform="translate(-256.31 -111.82)"/><path class="cls-32" d="M1055.91,1204.07s-18.41,6.37-26.73,8.14-25.73,9.8-24.31,40,6.61,56.41,8.5,69.39.71,46-2.36,62.08c0,0,44.14,10.86,96.06,0,0,0-9.2-27.38-9-34.46s30.69-65.38,32.11-74.59,7.55-49.8-6.38-58.77-25.25-7.79-31.15-11.8S1064.52,1201.19,1055.91,1204.07Z" transform="translate(-256.31 -111.82)"/><path class="cls-32" d="M1032.27,1211.47s-20.32-.56-34.72,31.31-17.94,50.51-21.24,55-14.87,22-26.2,30.45-58.5,56.36-58.5,56.36l12.95,16.58s68-48.15,75.05-56.41,50.09-70.82,52.66-80.26S1054.72,1221.23,1032.27,1211.47Z" transform="translate(-256.31 -111.82)"/><path class="cls-32" d="M1154.16,1369.76c.13,12.75-13.1,99.73-13.1,99.73l-25,1.06s8-86.27,10.85-106.1c.84-5.84.13-14.94-1.28-24.84h0c-.89-6.3-2.08-12.92-3.33-19.25-3.45-17.47-7.43-32.73-7.43-32.73s-22.54-74.25,12.1-68.81a84.24,84.24,0,0,1,15.87,36.6c3.9,22.3,7.79,55.58,7.08,68.68S1154.07,1360.39,1154.16,1369.76Z" transform="translate(-256.31 -111.82)"/><path class="cls-22" d="M1011,1383.69s-8,19-8.74,23.77-25.86,67.42-27.61,85.75c-1.77,18.53-7.08,68-9,75.06s4.25,38.71,5.19,45.79.47,122.74-8,179.86c0,0,19.82,8.5,34.93,0,0,0,25-89.22,23.6-140.68s-7.94-73.17,0-93.94,54.72-83.08,59.44-89.69,34.3-43.13,6.29-82.7S1011,1383.69,1011,1383.69Z" transform="translate(-256.31 -111.82)"/><path class="cls-22" d="M1107.65,1552.69c-2.48,16.53.13,38.24,5.32,98.67s-9.08,133.59-9.08,133.59c-17.94,6.14-38.59,0-38.59,0,.47-4.25,0-147.29,0-160s-3.67-27.22-4.61-41.85c-.64-10-5.28-28.35-10.5-47.11-1.56-5.62-3.18-11.28-4.75-16.75h0l-2.59-9c-7.35-25.49-17.24-123.92-17.24-123.92s54.79-44.13,81.46-2.59,13,71.76,12,77S1110.14,1536.17,1107.65,1552.69Z" transform="translate(-256.31 -111.82)"/><path class="cls-32" d="M1006.73,1306.41s3.69,74.33-14,117.17c0,0,58.42,19.47,133.84,0,0,0-16.17-53.28-14.87-61.43s29.51-102.08,20.83-124.18S1015.43,1236.68,1006.73,1306.41Z" transform="translate(-256.31 -111.82)"/><path class="cls-17" d="M1076.39,1086.52c-13.15-1.49-47.21,1.18-44.61,52.4s21.24,48.15,39.89,42.72,40.83-45.08,40.83-55.7S1113.92,1090.77,1076.39,1086.52Z" transform="translate(-256.31 -111.82)"/><path class="cls-42" d="M1033.67,1115.47s14.81,18.9,29.71,23.42c0,0,11.47,20.5,31.48,25.73,0,0,42.66-40.8,6.79-71.49S1033.43,1099.81,1033.67,1115.47Z" transform="translate(-256.31 -111.82)"/><path class="cls-17" d="M1060.57,1131.84c.5-2.8,6.72-8.5,11.5-2.12s-3.94,21.24-7.25,21.24S1058.69,1142.46,1060.57,1131.84Z" transform="translate(-256.31 -111.82)"/><path class="cls-42" d="M1107.66,1102.36c1.06-1.62,33.4-16.19,40.13,14.26s-26,65.85-31.79,81.08,0,51.33,0,51.33-17.12-18.57-23.09-37.56C1086.36,1190.61,1084.16,1138,1107.66,1102.36Z" transform="translate(-256.31 -111.82)"/><path class="cls-38" d="M1084.94,1463.91c-.43.95-27.72,61.54-34.75,72-1.56-5.62-3.18-11.28-4.75-16.75h0S1084,1465.25,1084.94,1463.91Z" transform="translate(-256.31 -111.82)"/><path class="cls-43" d="M1131.33,1277.74s-.86,38.54-5.71,61.86c-.89-6.3-2.08-12.92-3.33-19.25C1122.49,1319.48,1130.38,1283.77,1131.33,1277.74Z" transform="translate(-256.31 -111.82)"/><path class="cls-44" d="M434.17,1818.55s8.24,12.34,19.81,15,23,6.91,23.06,14.21-33.45,11.66-46.69,4.29c-19.76-11-21.77-7.67-24-13.16s2.63-20.18,2.49-21.92C408.7,1814.81,434.17,1818.55,434.17,1818.55Z" transform="translate(-256.31 -111.82)"/><path class="cls-45" d="M432.88,1812.46s1.51,6,1.29,6.09-26.08,3.2-25.29-1.58c.63-3.88,1.53-8.1,1.53-8.1Z" transform="translate(-256.31 -111.82)"/><path class="cls-44" d="M347.18,1817.73s5.88,11.8,15.93,15.82c10.75,4.3,19.36,9.24,19.17,16.35s-26.27,14.33-45.24.67c-12-8.62-15.78-8.66-17.7-14.1s3.34-19.54,3.27-21.25C322.52,1813.11,347.18,1817.73,347.18,1817.73Z" transform="translate(-256.31 -111.82)"/><path class="cls-45" d="M347.47,1811.6s-.07,6-.29,6.13-25.21,2.17-24.57-2.51A38.3,38.3,0,0,1,325,1807Z" transform="translate(-256.31 -111.82)"/><path class="cls-46" d="M439.07,1451s23.21,102.38,28.51,133.56c4.51,26.54,8.11,54.18,5.95,73.34-2.68,23.72-36.26,146.66-34.86,153.62s-35.14,1.11-35.14,1.11S429.07,1675.51,424,1650c-3.78-18.9-36.88-144.48-42-138s-11.36,118.52-15.12,137.12-15.29,165.61-15.29,165.61-25.79,3.8-32.68-2c0,0-3.14-125.52-.74-160.4.91-13.29-15.58-159.38,5.56-218.19C334.92,1403,439.07,1451,439.07,1451Z" transform="translate(-256.31 -111.82)"/><path class="cls-47" d="M540.09,1357.94c-16.54-2.32-68.58,20.73-73.31,19-3.25-1.19-10.88-26.06-16.34-44.88-3.22-11.13-5.68-20.15-6-20.9l0,0a112.06,112.06,0,0,1-.18,20.2c-.07.72-.4.91-.48,1.66a6.48,6.48,0,0,1-.22,1c-1.21,2.76-1.66,8-2.77,12.27a77.89,77.89,0,0,0-1.91,24.11v0a1.41,1.41,0,0,1,0,.2c0,.21,0,.41,0,.61v.25c-.47,16.12.65,33.5,1.11,42.75.73,14.32-4,20.77-4.12,21h0l-5-.7-3.6-.51h0l-4.81-.68-18.87-2.65-6.84-1-1.62-.23-11.95-1.68L349.35,1423l-3.7-.52-1.52-.21-12.71-1.79-5.75-.81h0s-4.88-34.62-5.26-53.33c-.33-17.18-9.53-52.07-11-57.65a.56.56,0,0,0,0-.12.66.66,0,0,0,0-.15c0-.1,0-.18-.06-.25a.56.56,0,0,0,0-.12v0a.06.06,0,0,1,0,0,.28.28,0,0,1,0-.06s-27.52,28.91-32.86,41.53c-1.63,3.82-6.61,14.23-12.95,26.91-4.33-8.27-7-14-7-15.46v-.57c.41-12.47,13.48-63,23.8-96.08,8-16.1,14.91-29.12,17.13-30.71,3.36-2.41,17.48-8.46,29.81-13.35l1.2-.48,3.39-1.32,1.62-.63.88-.33.7-.27h0c6.17-2.34,10.85-4,11.82-4,.16,0,.42,0,.77,0s.93,0,1.56.07c7.62.45,30.36,2.58,37.68,3.27l2.27.22h0l8.73,4h0l.48.22c3.18,1.46,6.85,3.4,10.73,5.52,7.61,4.17,16,9,23,12.36s16.19,7.78,17,8.42L483.5,1347l60.06-11Z" transform="translate(-256.31 -111.82)"/><path class="cls-48" d="M435.8,1435.13s2.53,3,3.27,15.88c0,0-104.3-12.17-115.33-17,0,0-.43-14.16,1.91-14.41C328.22,1419.37,435.8,1435.13,435.8,1435.13Z" transform="translate(-256.31 -111.82)"/><path class="cls-17" d="M346.85,1209.55c.33,16.37,32,25.33,32,25.33s13.26-16.62,10.09-18.21c-1.24-.63-1.75-3.11-1.9-5.89a55.67,55.67,0,0,1,.18-7.43c.09-1.15.18-1.9.18-1.9s-4.53-4.78-10.29-10.47c-10.06-10-23.9-22.7-23.93-17.63a4.64,4.64,0,0,0,.12,1C355.75,1185.73,346.85,1209.55,346.85,1209.55Z" transform="translate(-256.31 -111.82)"/><path class="cls-44" d="M349.48,1422.15s-2.27,14.36-2.47,18.1l-4.83-1s1.33-15.19,2.11-17.74Z" transform="translate(-256.31 -111.82)"/><path class="cls-44" d="M427.1,1433.45s1.82,13,1.87,18l-5.11-.67s-1-16.29-1.63-18Z" transform="translate(-256.31 -111.82)"/><path class="cls-49" d="M359.06,1185.57h0c.06.1,1.41,2.11,3.7,5,4.87,6.12,14,16.17,24.3,20.21a55.67,55.67,0,0,1,.18-7.43,15.4,15.4,0,0,0,3.15-.38,98.32,98.32,0,0,0-6.89-10.09l-6.37-1.9Z" transform="translate(-256.31 -111.82)"/><path class="cls-17" d="M353,1173.57c2.74,6,5.34,10.29,6.08,12h0a21.15,21.15,0,0,0,3.7,5c5.23,5.62,14.93,13,24.48,12.78a15.4,15.4,0,0,0,3.15-.38c3.85-.84,8.4-2.63,10.9-7.53,19.78-38.71,5.46-70.37,5.46-70.37s-54.06-15.29-62.52,1C338.29,1137.47,346.53,1159.56,353,1173.57Z" transform="translate(-256.31 -111.82)"/><path class="cls-23" d="M406.75,1125.07s5-.28,6.26-9.8-1.25-12-1.25-12-22.32-9.34-30.33-10.56-27.73-2.38-32.35,2.9c0,0-11.22-2.6-14.28,16-4.85,29.56,16.53,58.27,16.53,58.27s-.18-19.32,4.08-21.88,7.93,3.53,7.93,3.53l8.71,1.56s-13.23-28.57,2.64-29.63S397.67,1126.73,406.75,1125.07Z" transform="translate(-256.31 -111.82)"/><path class="cls-17" d="M363.1,1143.85c-.83-8.51-16.21-11.75-15.18-2.84s8.61,17.49,12.11,17.19S363.73,1150.34,363.1,1143.85Z" transform="translate(-256.31 -111.82)"/><path class="cls-50" d="M263.35,1376.33c6.71,12.78,17.28,31.6,27.72,49.84-1.37,2.56-2.71,5.11-4,7.62a153.15,153.15,0,0,0-7.91,17.64c-2.38,6.66-5.69,23.74.65,26.91l33.36,18.42.68-1.86c1.1-3,3.5-9.4,6.82-17.71l.93-2.23,2.72-6.35c.49-1.14,1-2.35,1.54-3.58.6-1.42,1.23-2.88,1.85-4.33.91-2.12,1.81-4.22,2.65-6.16l4.05-9.43c.12-.24.23-.49.34-.73,1.09-2.35,2.2-4.71,3.34-7.05,1.75-3.64,3.55-7.27,5.4-10.81.18-.36.37-.72.56-1.08l1-1.86.61-1.13.14-.25c.08-.15.16-.3.25-.45,9.64-17.59,20.51-32.3,24-53.88q.51-3.12,1-6.21c.5-3.42,1-6.8,1.38-10.12.16-1.25.32-2.49.47-3.72,1.73-14.4,2.77-27.22,3.61-36.16,2.61-27.83-14.44-58-27.53-76.58a205.09,205.09,0,0,0-14-17.88l-.07-.07-.7.27-.88.33-1.62.63-3.39,1.32-1.2.48c-12.68,5-42.55,13.8-45.9,16.21-1.94,1.39-3.1,12.59-8.1,28.64-10.32,33-16.44,82.85-16.74,95.29v.57C256.31,1362.31,259,1368.06,263.35,1376.33Zm50.7-6.22c0,6.21-2,13.32-5.12,20.89l-.24.57c-2.14-4.56-4.15-8.93-6-13v0c-5-11.11-8.38-19.78-8.57-23.21-1.22-22,15-47.41,15-47.41a.06.06,0,0,0,0,0v0a.56.56,0,0,1,0,.12l.06.25a.66.66,0,0,1,0,.15.56.56,0,0,1,0,.12C312.68,1321.76,314.05,1370.11,314.05,1370.11Z" transform="translate(-256.31 -111.82)"/><path class="cls-50" d="M562.26,1324.11l-75.55,16.45-36-94.18c-.8-.63-11.12-6.19-18-9.44-7.11-3.39-16.12-7.57-24.11-11.26l-10.45-4.81-.24.2s4.45,14.85,10.22,51.91v0c.2,1.24.39,2.51.59,3.8l.06.45.39,2.61c0,.1,0,.21.05.31.09.59.18,1.18.26,1.79.22,1.46.44,3,.65,4.47,2.58,18,6.19,48.75,9.66,79.74v0c2.74,24.43,9,49.5,11,68.2v0a127.67,127.67,0,0,0,2.6,14.07c.14.62.29,1.25.44,1.89,5.58,23.61,16.44,57,16.44,57l3.16-2.92,9.36-8.64a7.59,7.59,0,0,0,2.1-7.83c-5.19-16.75-22.83-76-26.07-117.68v0c-1-13.09,2.81-25.42,5-37.12l.12.31c1.85,5.17,3.91,10.78,6,16.25h0c5.57,14.69,11.26,28.3,13.64,29.16,5.27,1.95,104.75-25.25,105.44-29.16Z" transform="translate(-256.31 -111.82)"/><path class="cls-51" d="M343.64,1257.75l15.42,8.7-6.59,6.72,17.54,94.7c3.58-22.2,5.21-43.28,6.42-56.2,4-43-38.92-91.57-41.59-94.54-2.06.78-4.29,1.65-6.59,2.56Z" transform="translate(-256.31 -111.82)"/><path class="cls-51" d="M397.7,1220.65s5.76,18.82,12.47,65.78c2.58,18,6.19,48.75,9.66,79.74l3.59-88.69-7.35-8,6.53-8.16-14-35.68-10.45-4.81Z" transform="translate(-256.31 -111.82)"/><path class="cls-52" d="M334.07,1217.32l12.78-7.77s.36,7,32,25.33l-9,25.32Z" transform="translate(-256.31 -111.82)"/><path class="cls-52" d="M387.29,1213.09s-.49,7.56-8.42,21.79l17.55,22.87,1.28-37.1Z" transform="translate(-256.31 -111.82)"/><path class="cls-53" d="M378.82,1234.88s-3.4,13.6-2.17,17.41c0,0,7.48,2.72,12.85-.68A59.81,59.81,0,0,0,378.82,1234.88Z" transform="translate(-256.31 -111.82)"/><path class="cls-54" d="M396.4,1431.06c1.91-9.6.1-38.36,0-39.58l-1.63.11c0,.29,1.87,29.76,0,39.15Z" transform="translate(-256.31 -111.82)"/><path class="cls-55" d="M383.09,1426.63s15.34,1.83,20.42,3.1l-.67,17.2-20.09-2.14Z" transform="translate(-256.31 -111.82)"/><path class="cls-53" d="M386.45,1250.38s17.11,43.23,14.32,91.61c-2.89,50.17-7.64,68.36-7.64,68.36l-10.56,13.23-4.65-16.27s14.16-64,5-126.18c-1.66-11.28-4.12-32.65-4.12-32.65Z" transform="translate(-256.31 -111.82)"/><path class="cls-17" d="M335,1454.52s3.68,7.35,7.35,8.57,9,7.19,9,7.19l-25.86,13.62s-6.89-13.46-7.2-22S335,1454.52,335,1454.52Z" transform="translate(-256.31 -111.82)"/><path class="cls-47" d="M337.47,1455.21l1.71,3.44s-16.42,12-20.85,12.78l-1.52-4.59Z" transform="translate(-256.31 -111.82)"/><path class="cls-50" d="M339.18,1455.36s-12.31,10.18-22.68,14.87l-34.88-62.75,18.07-34.94S338.36,1449.24,339.18,1455.36Z" transform="translate(-256.31 -111.82)"/><path class="cls-46" d="M444,1333.51c1.85,5.17,3.91,10.78,6,16.25a175,175,0,0,0,.46-17.71c-.83-32.55-11.07-49.62-11.07-49.62,2.35,5.68,3.48,17.85,4,28.85.57,11.61.48,21.92.48,21.92h0Z" transform="translate(-256.31 -111.82)"/><path class="cls-46" d="M287.07,1433.79,315,1467.52l-23.93-41.35C289.7,1428.73,288.36,1431.28,287.07,1433.79Z" transform="translate(-256.31 -111.82)"/><path class="cls-56" d="M489.89,1391.5h64.48a9.56,9.56,0,0,0,9.3-7.32l28-115.64a9.58,9.58,0,0,0-9.31-11.83H517.89a9.58,9.58,0,0,0-9.3,7.33l-28,115.63A9.58,9.58,0,0,0,489.89,1391.5Z" transform="translate(-256.31 -111.82)"/><path class="cls-17" d="M568.75,1359.35c-3.15-2.92-9.24-4.61-14.45-8.09s-.86-7.08-.86-7.08c-5.35-1.84-4.78-4.28-4.09-5.94.93-2.25,6.77-1.62,6.77-1.62a58.31,58.31,0,0,1-7.4-2.11c-2.15-1-1.42-4.72,1.9-5.9s16.84,2.14,16.84,2.14-2.21-1.08-8.88-4.43-8.13-6.39-4.2-7.85c2.74-1,8.11,1.11,18.42,8,7.76,5.22,7.13,5.9,7.13,5.9S572.52,1362.84,568.75,1359.35Z" transform="translate(-256.31 -111.82)"/></svg>