<svg xmlns="http://www.w3.org/2000/svg" viewBox="0 0 660.26 742.64"><defs><style>.cls-1{isolation:isolate;}.cls-2{fill:#ccdef2;}.cls-3{fill:#eaa61f;}.cls-4{fill:#d88971;}.cls-5,.cls-72{fill:#fcc490;}.cls-6{fill:#b23f3f;}.cls-7{fill:#8c3535;}.cls-8{fill:#e5594e;}.cls-9{fill:#15497c;}.cls-10{fill:#1a5aa4;}.cls-11{fill:#13446b;}.cls-12{fill:#ffa85a;}.cls-13{fill:#a86951;}.cls-14{fill:#c2d8ef;}.cls-15{fill:#8a8aa8;}.cls-16{fill:#b0b0c6;}.cls-17{fill:#bf7666;}.cls-115,.cls-18{fill:#75d9f1;}.cls-19{fill:#279cd1;}.cls-20{fill:#a86256;}.cls-21{fill:#cccbdb;}.cls-22{fill:#8c8ca5;}.cls-110,.cls-22,.cls-56,.cls-63,.cls-80,.cls-89,.cls-98{opacity:0.6;}.cls-23{fill:#eeefe6;}.cls-24{fill:#e5bf23;}.cls-25{fill:#fbf65a;}.cls-26{fill:#b87a53;}.cls-27{fill:#704136;}.cls-28{fill:#272523;}.cls-29{fill:#fed500;}.cls-110,.cls-112,.cls-30{fill:#fff;}.cls-31{fill:#5b5652;}.cls-32{fill:#1e2123;}.cls-33,.cls-52,.cls-76{fill:#505862;}.cls-34{fill:#737b84;}.cls-35{fill:#899122;}.cls-36{fill:#332e2b;}.cls-37{fill:#ff5245;}.cls-38{fill:#c7d821;}.cls-39{fill:#ce8d1b;}.cls-40{fill:#564d47;}.cls-41,.cls-49,.cls-74,.cls-75{fill:#f9dec1;}.cls-42,.cls-43{fill:#c1aa8a;}.cls-43{opacity:0.2;}.cls-44{fill:#93878d;}.cls-44,.cls-46,.cls-51,.cls-65,.cls-75{opacity:0.8;}.cls-45{fill:#d88850;}.cls-46,.cls-61{fill:#cec0b3;}.cls-47{fill:#ba5c2d;}.cls-48{fill:#ffb95c;}.cls-49,.cls-76{opacity:0.4;}.cls-49,.cls-56,.cls-75{mix-blend-mode:screen;}.cls-50{fill:#d3bca1;}.cls-51{fill:#7f7077;}.cls-52{opacity:0.3;}.cls-52,.cls-77,.cls-80,.cls-89{mix-blend-mode:multiply;}.cls-53{fill:#100f0b;}.cls-54{fill:#d85825;}.cls-55{fill:#ff7415;}.cls-56{fill:#ff9852;}.cls-57{fill:#3f3a36;}.cls-58{fill:#5abcff;}.cls-59{fill:#aa9f93;}.cls-60{fill:#f2cdaf;}.cls-62{fill:#565050;}.cls-64{fill:#f4d7c1;}.cls-66{fill:#bf2e36;}.cls-67{fill:#525b6d;}.cls-68{fill:#6a7389;}.cls-69{fill:#9ba3ba;}.cls-70{fill:#aeb7ce;}.cls-71{fill:#4189e0;}.cls-106,.cls-112,.cls-115,.cls-72,.cls-74,.cls-77{opacity:0.5;}.cls-73{fill:#767687;opacity:0.7;}.cls-103,.cls-77,.cls-87,.cls-94,.cls-95,.cls-97{fill:none;}.cls-77{stroke:#998265;stroke-width:2.75px;}.cls-77,.cls-94,.cls-95{stroke-miterlimit:10;}.cls-78{fill:#bc7762;}.cls-79{fill:#d38a79;}.cls-81{fill:#403023;}.cls-82{fill:#4f3a2a;}.cls-83{fill:#683e3a;}.cls-84{fill:#16569b;}.cls-85{fill:#7c4a45;}.cls-86{fill:#177fbf;}.cls-87{stroke:#f28f7c;}.cls-103,.cls-87,.cls-94,.cls-95,.cls-97{stroke-linecap:round;}.cls-103,.cls-87,.cls-97{stroke-linejoin:round;}.cls-87,.cls-97{stroke-width:17.91px;}.cls-88{fill:#ffe536;}.cls-89{fill:#c67560;}.cls-90{fill:#8e3925;}.cls-91{fill:#ffb287;}.cls-92,.cls-98{fill:#e5785c;}.cls-93{fill:#422b27;}.cls-94{stroke:#8e3925;stroke-width:3.32px;}.cls-95{stroke:#e5785c;stroke-width:3.63px;}.cls-96{fill:#602c34;}.cls-97{stroke:#ffb287;}.cls-99{fill:#9fb9d1;}.cls-100{fill:#d64556;}.cls-101{fill:#7a1b38;}.cls-102{fill:#962643;}.cls-103{stroke:#ffa68a;stroke-width:5.11px;}.cls-104{fill:#ffa68a;}.cls-105{fill:#def1ff;}.cls-107{fill:#27a3e0;}.cls-108{fill:#632c42;}.cls-109{fill:#ffdc2b;}.cls-111{fill:#f7c52c;}.cls-113{fill:#db9314;}.cls-114{fill:#473f3c;}</style></defs><title>inventory</title><g class="cls-1"><g id="Layer_1" data-name="Layer 1"><path class="cls-2" d="M763.69,825.43c0-3.38-3.45-6.13-7.65-6.13h-645c-4.21,0-7.65,2.75-7.65,6.13s3.44,6.13,7.65,6.13H756C760.24,831.56,763.69,828.8,763.69,825.43Z" transform="translate(-103.43 -88.91)"/><path class="cls-3" d="M214,326.9c-5.19,6.85-8.18,13.2-7.08,17.24,1.41,5.2,9,3.78,39.91,2.13S291,335,284.61,318.87C280.8,309.22,214,326.9,214,326.9Z" transform="translate(-103.43 -88.91)"/><rect class="cls-4" x="486.77" y="5.25" width="70.41" height="101.08"/><rect class="cls-5" x="404.08" y="5.25" width="84.01" height="101.08"/><rect class="cls-6" x="407.74" y="29.8" width="84.68" height="90.27"/><rect class="cls-7" x="392.41" y="29.8" width="84.68" height="90.27"/><rect class="cls-8" x="491.88" y="29.8" width="80.3" height="90.27"/><rect class="cls-9" x="373.76" y="12.13" width="13.47" height="593.16"/><rect class="cls-10" x="386.9" y="12.13" width="13.47" height="593.16"/><polygon class="cls-11" points="373.76 126.16 386.9 126.16 387.23 126.16 400.38 126.16 400.38 605.29 387.23 605.29 386.9 605.29 373.76 605.29 373.76 126.16"/><rect class="cls-12" x="323.9" y="149.29" width="84.68" height="90.27"/><rect class="cls-13" x="408.04" y="149.29" width="45.24" height="90.27"/><rect class="cls-14" x="458.57" y="141.98" width="52.25" height="99.04"/><polygon class="cls-15" points="503.38 253.73 451.12 253.73 470.97 183.48 470.97 142.18 479.46 142.18 479.46 155.02 484.44 154.69 503.38 170.46 503.38 253.73"/><rect class="cls-16" x="503.27" y="141.98" width="73.29" height="99.04"/><polygon class="cls-17" points="343.87 178.79 308.81 241.9 244.28 241.9 244.28 204.22 303.6 178.79 343.87 178.79"/><rect class="cls-18" x="249.4" y="175.29" width="9.93" height="56.68"/><rect class="cls-19" x="258.16" y="175.29" width="48.79" height="56.68"/><rect class="cls-18" x="261.38" y="175.29" width="9.93" height="56.68"/><rect class="cls-20" x="313.38" y="178.8" width="39.98" height="37.68"/><rect class="cls-19" x="270.14" y="175.29" width="48.79" height="56.68"/><rect class="cls-18" x="274.82" y="175.29" width="9.93" height="56.68"/><rect class="cls-19" x="283.58" y="175.29" width="48.79" height="56.68"/><polygon class="cls-4" points="357.01 241.9 283.72 241.9 283.72 204.21 340.99 179.08 392.07 179.08 357.01 241.9"/><rect class="cls-5" x="244" y="204.21" width="39.98" height="37.68"/><polygon class="cls-20" points="401.28 178.79 366.22 241.9 301.69 241.9 301.69 204.22 361 178.79 401.28 178.79"/><rect class="cls-5" x="374.15" y="178.8" width="39.98" height="37.68"/><polygon class="cls-21" points="361.74 204.7 385.35 204.7 377.8 167.78 354.18 167.78 361.74 204.7"/><polygon class="cls-22" points="382.55 204.26 364.75 206.6 356.97 167.84 374.76 167.84 382.55 204.26"/><rect class="cls-23" x="449.82" y="257.49" width="11.69" height="37.68" transform="translate(-149.58 8.05) rotate(-11.57)"/><polygon class="cls-21" points="378.97 204.7 402.59 204.7 395.03 167.78 371.42 167.78 378.97 204.7"/><rect class="cls-23" x="467.06" y="257.49" width="11.69" height="37.68" transform="translate(-149.23 11.51) rotate(-11.57)"/><rect class="cls-24" x="337.92" y="194.28" width="39.98" height="37.68"/><rect class="cls-25" x="306.95" y="194.28" width="39.98" height="37.68"/><polygon class="cls-4" points="414.42 241.9 341.13 241.9 341.13 204.21 398.39 179.08 414.42 179.08 414.42 241.9"/><rect class="cls-5" x="301.4" y="204.21" width="39.98" height="37.68"/><rect class="cls-26" x="500.79" y="262.93" width="70.41" height="101.08"/><rect class="cls-27" x="473.19" y="262.93" width="28.92" height="101.08"/><polygon class="cls-28" points="505.13 373.81 431.84 373.81 431.84 322.53 469.83 274.77 505.13 274.77 505.13 373.81"/><rect class="cls-29" x="243.74" y="263.92" width="25.64" height="98.48"/><rect class="cls-3" x="269.38" y="263.92" width="66.58" height="98.48"/><rect class="cls-30" x="252.13" y="285.57" width="7.67" height="43.9"/><rect class="cls-31" x="243.74" y="344.31" width="25.64" height="13.47"/><rect class="cls-32" x="269.38" y="344.31" width="59.73" height="13.47"/><rect class="cls-29" x="275.36" y="263.92" width="25.64" height="98.48"/><rect class="cls-3" x="301.01" y="263.92" width="66.58" height="98.48"/><rect class="cls-30" x="283.75" y="285.57" width="7.67" height="43.9"/><rect class="cls-31" x="275.36" y="344.31" width="25.64" height="13.47"/><rect class="cls-32" x="300.99" y="344.31" width="66.61" height="13.47"/><polygon class="cls-33" points="397.76 274.77 397.76 373.81 324.48 373.81 324.48 322.53 362.46 274.77 397.76 274.77"/><polygon class="cls-34" points="397.76 274.77 397.76 322.53 324.48 322.53 362.46 274.77 397.76 274.77"/><polygon class="cls-28" points="404.34 373.81 331.05 373.81 331.05 322.53 369.04 274.77 404.34 274.77 404.34 373.81"/><rect class="cls-35" x="342.6" y="280.46" width="70.41" height="83.55"/><rect class="cls-35" x="359.69" y="280.46" width="70.41" height="83.55"/><polygon class="cls-33" points="440.13 274.77 440.13 373.81 366.84 373.81 366.84 322.53 404.83 274.77 440.13 274.77"/><polygon class="cls-34" points="440.13 274.77 440.13 322.53 366.84 322.53 404.83 274.77 440.13 274.77"/><polygon class="cls-36" points="409.06 278.56 381.45 315.81 369.37 319.1 401.61 278.56 409.06 278.56"/><polygon class="cls-28" points="447.58 373.81 374.29 373.81 374.29 322.53 412.27 274.77 447.58 274.77 447.58 373.81"/><rect class="cls-6" x="388.39" y="262.93" width="70.41" height="101.08"/><rect class="cls-37" x="378.53" y="262.93" width="11.39" height="101.08"/><rect class="cls-6" x="405.26" y="262.93" width="70.41" height="101.08"/><rect class="cls-37" x="395.18" y="262.93" width="11.39" height="101.08"/><rect class="cls-38" x="334.27" y="280.46" width="11.39" height="83.55"/><rect class="cls-38" x="350.92" y="280.46" width="11.39" height="83.55"/><polygon class="cls-33" points="484.24 274.77 484.24 373.81 410.95 373.81 410.95 322.53 448.94 274.77 484.24 274.77"/><polygon class="cls-34" points="484.24 274.77 484.24 322.53 410.95 322.53 416.69 315.3 448.94 274.77 484.24 274.77"/><polygon class="cls-36" points="456.39 274.77 428.78 312.01 416.69 315.3 448.94 274.77 456.39 274.77"/><polygon class="cls-36" points="491.69 373.81 418.4 373.81 418.4 322.53 456.39 274.77 491.69 274.77 491.69 373.81"/><polygon class="cls-33" points="434.87 253.74 361.58 253.74 361.58 202.46 399.56 154.7 434.87 154.7 434.87 253.74"/><polygon class="cls-28" points="442.32 253.74 369.03 253.74 369.03 202.46 407.01 154.7 442.32 154.7 442.32 253.74"/><polygon class="cls-29" points="386.86 242.77 374.11 242.77 369.46 143.73 382.21 143.73 386.86 242.77"/><polygon class="cls-39" points="450.8 242.77 380.4 242.77 375.75 143.73 446.15 143.73 450.8 242.77"/><rect class="cls-29" x="386.11" y="147.24" width="12.75" height="99.04"/><rect class="cls-39" x="392.4" y="147.24" width="70.4" height="99.04"/><rect class="cls-29" x="395.75" y="141.98" width="12.75" height="99.04"/><rect class="cls-39" x="402.04" y="141.98" width="70.4" height="99.04"/><polygon class="cls-33" points="478.98 253.74 405.7 253.74 405.7 202.46 443.68 154.7 478.98 154.7 478.98 253.74"/><polygon class="cls-36" points="486.43 253.74 413.15 253.74 413.15 202.46 451.13 154.7 486.43 154.7 486.43 253.74"/><polygon class="cls-36" points="503.71 373.81 577 373.81 577 322.53 539.02 274.77 503.71 274.77 503.71 373.81"/><rect class="cls-40" x="249.99" y="437.35" width="78.55" height="55.21"/><rect class="cls-36" x="320.98" y="437.35" width="55.76" height="55.21"/><rect class="cls-36" x="245.6" y="15.18" width="131.13" height="104.89"/><rect class="cls-40" x="244.73" y="82.39" width="83.81" height="37.68"/><rect class="cls-36" x="320.98" y="41.19" width="55.76" height="37.68"/><rect class="cls-40" x="244.73" y="41.19" width="83.81" height="37.68"/><rect class="cls-36" x="320.98" width="55.76" height="37.68"/><rect class="cls-40" x="244.73" width="83.81" height="37.68"/><rect class="cls-41" x="249.99" y="382.13" width="78.55" height="55.21"/><rect class="cls-42" x="320.98" y="382.13" width="55.76" height="55.21"/><rect class="cls-26" x="347.11" y="382.13" width="9.09" height="13.43"/><rect class="cls-43" x="347.11" y="437.35" width="9.09" height="12.26"/><rect class="cls-23" x="247.36" y="512.72" width="84.68" height="90.27"/><rect class="cls-44" x="331.5" y="512.72" width="45.24" height="90.27"/><polygon class="cls-13" points="505.55 509.03 504.84 509.03 439.77 509.03 439.77 605.59 504.84 605.59 505.55 605.59 578.85 605.59 578.85 509.03 505.55 509.03"/><rect class="cls-13" x="439.77" y="574.52" width="65.78" height="31.07"/><rect class="cls-45" x="504.84" y="574.52" width="74.01" height="31.07"/><rect class="cls-13" x="439.77" y="540.57" width="65.78" height="31.07"/><rect class="cls-45" x="504.84" y="540.57" width="74.01" height="31.07"/><rect class="cls-13" x="439.77" y="506.85" width="65.78" height="31.07"/><rect class="cls-45" x="504.84" y="506.85" width="74.01" height="31.07"/><rect class="cls-46" x="488.41" y="528.22" width="12.71" height="6.68"/><rect class="cls-46" x="488.41" y="560.91" width="12.71" height="6.68"/><rect class="cls-46" x="488.41" y="595.97" width="12.71" height="6.68"/><polygon class="cls-47" points="407.97 509.03 407.26 509.03 343.07 509.03 343.07 605.59 407.26 605.59 407.97 605.59 481.27 605.59 481.27 509.03 407.97 509.03"/><rect class="cls-48" x="342.19" y="574.52" width="65.78" height="31.07"/><rect class="cls-45" x="407.26" y="574.52" width="74.01" height="31.07"/><rect class="cls-48" x="342.19" y="540.57" width="65.78" height="31.07"/><rect class="cls-45" x="407.26" y="540.57" width="74.01" height="31.07"/><rect class="cls-48" x="342.19" y="506.85" width="65.78" height="31.07"/><rect class="cls-45" x="407.26" y="506.85" width="74.01" height="31.07"/><rect class="cls-30" x="270.8" y="390.9" width="28.27" height="19.72"/><rect class="cls-30" x="392.58" y="560.91" width="10.96" height="6.68"/><rect class="cls-30" x="392.58" y="595.97" width="10.96" height="6.68"/><rect class="cls-30" x="392.58" y="528.22" width="10.96" height="6.68"/><rect class="cls-49" x="368.47" y="593.72" width="14.28" height="14.3"/><rect class="cls-50" x="457.69" y="393.53" width="52.25" height="99.03"/><polygon class="cls-51" points="504.16 426.82 504.16 490.37 461.21 490.37 461.21 393.53 486.5 393.53 504.16 426.82"/><rect class="cls-42" x="502.39" y="393.52" width="73.29" height="99.04"/><rect class="cls-33" x="477.27" y="406.35" width="16.8" height="5.29" rx="2.63"/><rect class="cls-52" x="479.9" y="470.03" width="16.8" height="9.09"/><rect class="cls-41" x="363.05" y="393.52" width="52.25" height="99.04"/><rect class="cls-42" x="407.74" y="393.52" width="73.29" height="99.04"/><rect class="cls-23" x="345.52" y="21.91" width="34.61" height="99.04"/><rect class="cls-42" x="375.12" y="21.91" width="48.54" height="99.04"/><rect class="cls-23" x="386.71" y="21.91" width="34.61" height="99.04"/><rect class="cls-42" x="416.31" y="21.91" width="54.67" height="99.04"/><path class="cls-53" d="M553.93,811.52a15.29,15.29,0,1,1-15.29-15.33A15.31,15.31,0,0,1,553.93,811.52Z" transform="translate(-103.43 -88.91)"/><path class="cls-53" d="M656.62,811.52a15.29,15.29,0,1,1-15.29-15.33A15.31,15.31,0,0,1,656.62,811.52Z" transform="translate(-103.43 -88.91)"/><path class="cls-53" d="M410.42,811.52a15.29,15.29,0,1,1-15.28-15.33A15.31,15.31,0,0,1,410.42,811.52Z" transform="translate(-103.43 -88.91)"/><path class="cls-53" d="M513.11,811.52a15.29,15.29,0,1,1-15.29-15.33A15.31,15.31,0,0,1,513.11,811.52Z" transform="translate(-103.43 -88.91)"/><rect class="cls-28" x="304.31" y="633.41" width="214.61" height="40.54" rx="3.51"/><rect class="cls-40" x="324.91" y="638.67" width="65.31" height="40.54" rx="3.51"/><path class="cls-54" d="M662.46,746.37v65H371.61v-65a12.91,12.91,0,0,1,12.87-12.87H649.59A12.9,12.9,0,0,1,662.46,746.37Z" transform="translate(-103.43 -88.91)"/><path class="cls-55" d="M525.37,733.5a12.91,12.91,0,0,0-12.88,12.87v65.88H371.61V746.37a12.73,12.73,0,0,1,.33-2.91,12.93,12.93,0,0,1,12.54-10Z" transform="translate(-103.43 -88.91)"/><rect class="cls-28" x="429.17" y="695.01" width="5.19" height="7" rx="1.75"/><rect class="cls-28" x="442.38" y="695.01" width="5.19" height="7" rx="1.75"/><rect class="cls-28" x="455.59" y="695.01" width="5.19" height="7" rx="1.75"/><rect class="cls-28" x="468.81" y="695.01" width="5.19" height="7" rx="1.75"/><rect class="cls-28" x="482.02" y="695.01" width="5.19" height="7" rx="1.75"/><rect class="cls-28" x="495.24" y="695.01" width="5.19" height="7" rx="1.75"/><rect class="cls-28" x="508.45" y="695.01" width="5.19" height="7" rx="1.75"/><rect class="cls-28" x="521.66" y="695.01" width="5.19" height="7" rx="1.75"/><rect class="cls-28" x="534.88" y="695.01" width="5.19" height="7" rx="1.75"/><path class="cls-56" d="M473.35,743.46a19.85,19.85,0,0,1,4.25-5.22,18,18,0,0,1,11.47-4.74H436.48A18,18,0,0,0,425,738.24a19.85,19.85,0,0,0-4.25,5.22,16.2,16.2,0,0,0-1.26,2.91l-21,65.88h52.59l21-65.88A16.2,16.2,0,0,1,473.35,743.46Z" transform="translate(-103.43 -88.91)"/><path class="cls-57" d="M499,753.12v59.35H384.35V753.12a6.18,6.18,0,0,1,6.16-6.16H492.86A6.19,6.19,0,0,1,499,753.12Z" transform="translate(-103.43 -88.91)"/><path class="cls-58" d="M406.09,752.22h-14.7a1.8,1.8,0,0,0-1.78,1.78v6.75h21.73a1.8,1.8,0,0,0,1.78-1.78v-6.75Z" transform="translate(-103.43 -88.91)"/><path class="cls-58" d="M477,752.22h14.69a1.8,1.8,0,0,1,1.78,1.78v6.75H471.73A1.8,1.8,0,0,1,470,759v-6.75Z" transform="translate(-103.43 -88.91)"/><rect class="cls-59" x="409.06" y="705" width="149.97" height="17.45"/><rect class="cls-60" x="268.18" y="705" width="140.88" height="18.33"/><rect class="cls-40" x="263.95" y="721.22" width="297.85" height="11.7"/><rect class="cls-28" x="405.75" y="721.22" width="156.06" height="11.7"/><rect class="cls-61" x="468.51" y="658.73" width="34.47" height="29.41" rx="3.45"/><rect class="cls-62" x="286.18" y="682.31" width="30.96" height="17.63" rx="2.63"/><rect class="cls-28" x="327.16" y="673.11" width="22.2" height="17.63" rx="2.63"/><rect class="cls-28" x="366.52" y="682.46" width="12.56" height="11.49" rx="1.75"/><path class="cls-55" d="M662.46,746.37v8.77a12.9,12.9,0,0,0-12.87-12.88H525.36a12.91,12.91,0,0,0-12.87,12.88l-4.23-8.77c0-7.08,10-12.87,17.1-12.87H649.59A12.9,12.9,0,0,1,662.46,746.37Z" transform="translate(-103.43 -88.91)"/><path class="cls-54" d="M662.46,746.37v8.77a12.9,12.9,0,0,0-12.87-12.88h-76l-10.71-8.76h86.66A12.9,12.9,0,0,1,662.46,746.37Z" transform="translate(-103.43 -88.91)"/><path class="cls-40" d="M452.78,777a2.63,2.63,0,0,1-2.62,2.63H433.22c-1.45,0-1.84-.88-.87-1.95l5.24-5.83a6.76,6.76,0,0,1,4.39-2h8.18a2.64,2.64,0,0,1,2.62,2.63Z" transform="translate(-103.43 -88.91)"/><g class="cls-63"><path class="cls-64" d="M398.34,778.58h-.13c-.63,0-.95-.22-.95-.66s.33-.65,1-.65H399a.73.73,0,0,1,.62.24,1.27,1.27,0,0,1,.18.76v4.28c0,.67-.24,1-.72,1s-.72-.34-.72-1Z" transform="translate(-103.43 -88.91)"/><path class="cls-64" d="M402.18,778a1.23,1.23,0,0,1,.1-.39.47.47,0,0,1,.18-.23.67.67,0,0,1,.27-.11l.38,0h1.73c.61,0,.91.22.91.66a.6.6,0,0,1-.21.48,1.07,1.07,0,0,1-.65.17h-1.46l-.1.75a2.28,2.28,0,0,1,.61-.08,1.85,1.85,0,0,1,.74.15,1.7,1.7,0,0,1,.59.43,2,2,0,0,1,.4.65,2.47,2.47,0,0,1,.14.84,2.4,2.4,0,0,1-.17.93,2.1,2.1,0,0,1-.48.75,2.15,2.15,0,0,1-.75.5,2.42,2.42,0,0,1-1,.18,2.55,2.55,0,0,1-1.41-.38,1.47,1.47,0,0,1-.42-.4.81.81,0,0,1-.15-.46.65.65,0,0,1,.16-.46.62.62,0,0,1,.73-.09l.31.18a2.89,2.89,0,0,0,.35.19,1.08,1.08,0,0,0,.42.08.8.8,0,0,0,.34-.07,1.1,1.1,0,0,0,.28-.2,1,1,0,0,0,.19-.3.94.94,0,0,0,.07-.37.91.91,0,0,0-.21-.65.75.75,0,0,0-.58-.23l-.26,0-.27.08-.26.07a.73.73,0,0,1-.25,0c-.37,0-.55-.21-.55-.62a1.36,1.36,0,0,1,0-.18q0-.12,0-.3Z" transform="translate(-103.43 -88.91)"/><path class="cls-64" d="M410.5,780.07a1.72,1.72,0,0,1,1,1.6,1.93,1.93,0,0,1-.17.79,1.9,1.9,0,0,1-.46.64,2.14,2.14,0,0,1-.7.42,2.36,2.36,0,0,1-.9.16,2.24,2.24,0,0,1-1.4-.48,2.16,2.16,0,0,1-.57-.61,1.28,1.28,0,0,1-.2-.63.69.69,0,0,1,.18-.49.58.58,0,0,1,.45-.18.53.53,0,0,1,.34.1,2,2,0,0,1,.29.29,2.48,2.48,0,0,0,.19.26,1,1,0,0,0,.19.22,1,1,0,0,0,.24.15.75.75,0,0,0,.31.06.7.7,0,0,0,.53-.23.77.77,0,0,0,.22-.57.58.58,0,0,0-.23-.52,1.74,1.74,0,0,0-.67-.22.85.85,0,0,1-.46-.18.62.62,0,0,1-.14-.45.56.56,0,0,1,.14-.41,1,1,0,0,1,.46-.21c.44-.1.66-.32.66-.64a.53.53,0,0,0-.15-.39.46.46,0,0,0-.37-.14.61.61,0,0,0-.36.1,1.93,1.93,0,0,0-.29.24l-.35.31a.62.62,0,0,1-.4.13.6.6,0,0,1-.59-.6,1,1,0,0,1,.16-.53,1.91,1.91,0,0,1,.43-.48,2.45,2.45,0,0,1,.64-.35,2.29,2.29,0,0,1,.78-.14,2,2,0,0,1,.75.14,2,2,0,0,1,.6.36,1.6,1.6,0,0,1,.38.54,1.66,1.66,0,0,1,.14.66,1.46,1.46,0,0,1-.17.71A1.61,1.61,0,0,1,410.5,780.07Z" transform="translate(-103.43 -88.91)"/></g><g class="cls-65"><path class="cls-57" d="M583.08,760.47h-.16c-.76,0-1.14-.26-1.14-.79s.4-.78,1.21-.78h.85a.87.87,0,0,1,.75.28,1.6,1.6,0,0,1,.22.92v5.14c0,.8-.29,1.21-.87,1.21s-.86-.41-.86-1.21Z" transform="translate(-103.43 -88.91)"/><path class="cls-57" d="M587.69,759.8a1.63,1.63,0,0,1,.11-.47.67.67,0,0,1,.21-.28.92.92,0,0,1,.34-.12,3,3,0,0,1,.45,0h2.08c.73,0,1.09.26,1.09.79a.71.71,0,0,1-.26.58,1.26,1.26,0,0,1-.77.2h-1.76l-.11.9a2.76,2.76,0,0,1,.72-.1,2.22,2.22,0,0,1,1.61.7,2.47,2.47,0,0,1,.47.79,2.64,2.64,0,0,1,.17,1,3.14,3.14,0,0,1-.2,1.12,2.78,2.78,0,0,1-.58.91,2.91,2.91,0,0,1-.89.6,3.11,3.11,0,0,1-1.16.21,3.48,3.48,0,0,1-.93-.12,3.12,3.12,0,0,1-.76-.34,1.69,1.69,0,0,1-.51-.48,1,1,0,0,1-.18-.55.75.75,0,0,1,.2-.55.66.66,0,0,1,.5-.21.82.82,0,0,1,.37.1l.37.22a2.78,2.78,0,0,0,.42.22,1.15,1.15,0,0,0,.5.1.91.91,0,0,0,.41-.08,1,1,0,0,0,.34-.25,1.18,1.18,0,0,0,.23-.35,1.12,1.12,0,0,0,.08-.45,1.09,1.09,0,0,0-.25-.78.9.9,0,0,0-.69-.27,1.17,1.17,0,0,0-.32,0l-.32.09-.31.09a1.08,1.08,0,0,1-.3,0c-.44,0-.67-.25-.67-.74,0-.05,0-.12,0-.22s0-.21,0-.35Z" transform="translate(-103.43 -88.91)"/><path class="cls-57" d="M597.67,762.26a2.05,2.05,0,0,1,1.24,1.91,2.3,2.3,0,0,1-.19,1,2.25,2.25,0,0,1-.56.77,2.46,2.46,0,0,1-.84.51,2.92,2.92,0,0,1-1.08.19,2.71,2.71,0,0,1-1.68-.57,2.64,2.64,0,0,1-.69-.74,1.57,1.57,0,0,1-.23-.75.84.84,0,0,1,.21-.59.71.71,0,0,1,.54-.22.66.66,0,0,1,.41.12,1.72,1.72,0,0,1,.35.36c.07.1.15.2.22.31a1.2,1.2,0,0,0,.24.26,1.34,1.34,0,0,0,.28.18,1.06,1.06,0,0,0,.37.07.83.83,0,0,0,.64-.28.92.92,0,0,0,.26-.68.7.7,0,0,0-.27-.63,2.15,2.15,0,0,0-.81-.25,1.13,1.13,0,0,1-.55-.23.73.73,0,0,1-.16-.53.67.67,0,0,1,.16-.5,1.23,1.23,0,0,1,.55-.25c.53-.12.79-.38.79-.77a.64.64,0,0,0-.17-.46.58.58,0,0,0-.45-.18.75.75,0,0,0-.43.12,4.11,4.11,0,0,0-.35.29l-.42.38a.73.73,0,0,1-.48.15.67.67,0,0,1-.49-.21.64.64,0,0,1-.22-.51,1.28,1.28,0,0,1,.19-.63,2.34,2.34,0,0,1,.52-.58,3,3,0,0,1,.77-.42,2.7,2.7,0,0,1,.94-.17,2.44,2.44,0,0,1,.9.17,2.28,2.28,0,0,1,.71.43,2,2,0,0,1,.46.65,1.94,1.94,0,0,1,.17.8,1.81,1.81,0,0,1-.2.85A2.3,2.3,0,0,1,597.67,762.26Z" transform="translate(-103.43 -88.91)"/></g><path class="cls-66" d="M479.86,777.12a2.76,2.76,0,1,1-2.75-2.75A2.76,2.76,0,0,1,479.86,777.12Z" transform="translate(-103.43 -88.91)"/><polygon class="cls-67" points="591.65 733.17 578.64 733.17 569.88 624.84 583.77 624.84 591.65 733.17"/><polygon class="cls-68" points="597.31 733.17 587.8 733.17 583.42 624.84 597.31 624.84 597.31 733.17"/><rect class="cls-69" x="226.78" y="624.84" width="13.89" height="108.33"/><polygon class="cls-67" points="245.45 733.17 235.07 733.17 240.33 624.84 254.21 624.84 245.45 733.17"/><polygon class="cls-70" points="437.4 733.17 427.89 733.17 421.76 624.84 437.4 624.84 437.4 733.17"/><polygon class="cls-68" points="446.56 733.17 437.05 733.17 437.05 624.84 452.69 624.84 446.56 733.17"/><polygon class="cls-70" points="440.47 633.61 226.78 633.61 226.78 616.63 517.01 616.63 440.47 633.61"/><rect class="cls-68" x="437.05" y="616.63" width="160.26" height="16.98"/><polygon class="cls-71" points="597.31 619.58 220.65 619.58 220.65 602.6 603.45 602.6 597.31 619.58"/><rect class="cls-10" x="437.05" y="602.6" width="166.39" height="16.98"/><polygon class="cls-71" points="443.68 498.63 224.15 498.63 224.15 483.41 449.81 483.41 443.68 498.63"/><rect class="cls-10" x="437.05" y="483.41" width="163.76" height="15.23"/><rect class="cls-71" x="423.72" y="12.13" width="13.47" height="593.17"/><rect class="cls-10" x="436.86" y="12.13" width="13.47" height="593.16"/><rect class="cls-10" x="589.97" y="12.13" width="13.47" height="593.16"/><rect class="cls-71" x="220.65" y="12.13" width="13.47" height="593.17"/><polygon class="cls-71" points="441.05 377.68 224.15 377.68 223.28 361.58 441.05 361.58 441.05 377.68"/><rect class="cls-10" x="437.05" y="361.58" width="163.76" height="16.1"/><rect class="cls-71" x="223.28" y="240.63" width="215.14" height="15.23"/><rect class="cls-10" x="437.05" y="240.63" width="163.76" height="15.23"/><rect class="cls-71" x="223.28" y="119.68" width="215.14" height="15.23"/><rect class="cls-10" x="437.05" y="119.68" width="163.76" height="15.23"/><rect class="cls-30" x="250.1" y="216.57" width="26.02" height="12.97"/><rect class="cls-30" x="307.51" y="216.57" width="26.02" height="12.97"/><rect class="cls-30" x="271.34" y="450.05" width="28.99" height="5.92"/><rect class="cls-30" x="271.34" y="460.6" width="10.58" height="5.92"/><rect class="cls-29" x="261.6" y="460.6" width="6.29" height="5.92"/><rect class="cls-29" x="261.6" y="450.05" width="6.29" height="5.92"/><rect class="cls-72" x="256.22" y="28.8" width="29.7" height="3.23"/><rect class="cls-73" x="350.88" y="105.64" width="19.47" height="3.23"/><rect class="cls-73" x="355.26" y="112.36" width="10.71" height="3.23"/><rect class="cls-73" x="391.49" y="105.64" width="19.47" height="3.23"/><rect class="cls-73" x="395.87" y="112.36" width="10.71" height="3.23"/><rect class="cls-74" x="311.63" y="24.42" width="11.98" height="7.61"/><rect class="cls-74" x="311.63" y="65.32" width="11.98" height="7.61"/><rect class="cls-74" x="311.63" y="106.51" width="11.98" height="7.61"/><rect class="cls-74" x="546.08" y="103.01" width="17.24" height="11.12"/><rect class="cls-72" x="256.22" y="69.7" width="29.7" height="3.23"/><rect class="cls-72" x="256.22" y="110.9" width="29.7" height="3.23"/><rect class="cls-75" x="380.68" y="393.52" width="9.09" height="9.05"/><rect class="cls-76" x="384.95" y="470.03" width="16.8" height="9.09"/><rect class="cls-33" x="375.9" y="406.35" width="16.8" height="5.29" rx="2.63"/><line class="cls-77" x1="288.55" y1="602.99" x2="288.55" y2="512.72"/><rect class="cls-78" x="279.33" y="512.72" width="17.86" height="15.72"/><rect class="cls-76" x="307.37" y="589.41" width="17.86" height="9.05"/><rect class="cls-49" x="368.47" y="506.73" width="14.28" height="78.29"/><polygon class="cls-79" points="288.37 528.44 282 528.44 287.59 512.72 293.95 512.72 288.37 528.44"/><polygon class="cls-49" points="382.75 548.34 368.47 541.52 368.47 525.29 382.75 532.12 382.75 548.34"/><g class="cls-80"><path class="cls-15" d="M355,722.52c-.15-5.74-.57-31-.57-31h15.86s-1.88-63.75-2.65-89.92H350.79v89.88H337.55v-104h21.17l-.53-21.84c15-1.55,34.65-1.22,34.65-1.22a81.71,81.71,0,0,1,5.75-16.87c.37-.84.76-1.7,1.17-2.57,5.17,1.05,8.26.13,11.05-4.51.94-1.58,2-2.84,1.93-5.4a1.18,1.18,0,0,0-.05-.35,2.3,2.3,0,0,0-.28-1,2.35,2.35,0,0,0-3-1l5.44-6.54H353.42v46.06H337.55V466.6h29.71c-.4-1.55-.83-3.16-1.29-4.87-2.86-10.46-9-19.74-18.8-23V450.5h-9.62v-13h-.39a29.78,29.78,0,0,0-5.71,0h-.25V427.41c.13-1.41,1.43-2.21,3.62-3a23.92,23.92,0,0,0,2.73-.56V344.77h11.8A27.89,27.89,0,0,0,335,332.91a7,7,0,0,0-.69-.26,33.23,33.23,0,0,0-10.2-1.69V708.5h6.13V796h.32c-.13.47-.23.86-.32,1.17v24.91h18.67l8.06-99.56Z" transform="translate(-103.43 -88.91)"/><path class="cls-15" d="M382.47,811a53,53,0,0,1-8.29-.52s-1.08-1.08-2.57-2.61v2.25h-4.23v11.7h16.47a15.57,15.57,0,0,0,3.47,2.84,7.7,7.7,0,0,0,1.15-3h0a2.07,2.07,0,0,0,.28-.32l.11-.15a2.11,2.11,0,0,0,.17-.22,2,2,0,0,0,.11-.2l.11-.19a3.77,3.77,0,0,0,.26-.48s0-.06,0-.13a1.61,1.61,0,0,1,.15-.29.91.91,0,0,0,0-.16l.12-.29a.93.93,0,0,1,0-.13c.08-.29.16-.58.24-.9a14.29,14.29,0,0,0,.23-2v0a1.7,1.7,0,0,1,0-.39C390.29,812.37,386.45,810.93,382.47,811Z" transform="translate(-103.43 -88.91)"/><path class="cls-15" d="M353.42,526.26h61.39l11.33-13.63c.37-.44.43-.83.25-1.1l-.86-2.61c0-.35-.4-.58-1-.58h-.9c.7-3-1.47-5.46-4.78-5.46H374.69a5.11,5.11,0,0,0-1,.14l-.8,0a5.55,5.55,0,0,1,.72.05,6.55,6.55,0,0,0-2.88,1.58,4.63,4.63,0,0,0-.61.66l-.29-2.47,4.9-.94-2.43-13c-.83-4.43-2-10.08-3.88-17.81h-15Z" transform="translate(-103.43 -88.91)"/></g><path class="cls-81" d="M256.14,795.32c-.71,2.25.54,3.39.63,3.86,1.85,8.94,26.23,7.19,27.25,6.32s2.9-25,2.56-26.11-16.35-2.36-18.65-2.58-8.14-3.62-7.07-2.81C261.31,774.34,256.86,793.07,256.14,795.32Z" transform="translate(-103.43 -88.91)"/><path class="cls-82" d="M255.75,799s-.94,5,8,4.73c8.55-.24,13.23-10.24,13.23-10.24l13.84-.82s1,6.29,2.06,7.79c3,4.12,10.72,12.08,10.72,12.08l15.92.29s1.25,12.76-3.64,12.9-14.55.34-18.62.45-25.56-4.82-25.56-4.82-18.31.74-18.31.51C253.37,804.6,255.75,799,255.75,799Z" transform="translate(-103.43 -88.91)"/><polygon class="cls-82" points="149.66 736.37 177.43 736.4 177.56 732.2 165.24 729.48 149.33 729.63 149.66 736.37"/><path class="cls-83" d="M321.33,815.38v0a15.85,15.85,0,0,1-.25,2.12c-.09.35-.18.66-.27,1,0,0,0,.1,0,.14l-.12.31c0,.07,0,.14,0,.18a1.3,1.3,0,0,0-.16.31c0,.07,0,.1,0,.14a5.2,5.2,0,0,1-.27.52l-.12.2-.12.21a2.88,2.88,0,0,1-.19.24c0,.07-.08.1-.12.17a2.29,2.29,0,0,1-.3.34l-.11.1a2.73,2.73,0,0,1-.22.24,1.3,1.3,0,0,0-.15.1l-.3.2s0,0-.07,0a.87.87,0,0,1-.4.19l-.11.06-.32.09s-.08,0-.15,0a1.54,1.54,0,0,1-.43,0l-8.36.24-8.43.24-1.42,0a1.56,1.56,0,0,1-.43,0l-.5,0a1.12,1.12,0,0,1-.31,0l-.68,0a.69.69,0,0,0-.24,0c-.18,0-.32-.05-.5-.06h-.25c-.17,0-.35,0-.56-.1h-.18a4.26,4.26,0,0,0-.67-.11.25.25,0,0,1-.14,0,5.94,5.94,0,0,1-.77-.11c-4.06-.64-9.47-1.7-13.87-2.6s-7.8-1.65-7.8-1.65-19,.68-19.07.46c0-2.41.07-4.61.17-6.6l0-.78c.71-11.54,2.9-15.44,2.9-15.44s.86,6.58,10.63,5.31c6.83-.89,9.27-7.51,9.94-10.14a7.69,7.69,0,0,0,.27-1.09l3.31-.11,8-.23,3-.09s.13.89.35,2.08v0c0,.18.09.33.11.5a.33.33,0,0,0,0,.15,2.62,2.62,0,0,0,.12.54.1.1,0,0,0,0,.11,2.64,2.64,0,0,0,.11.53v.08a3.18,3.18,0,0,1,.14.61s0,.07,0,.11a5.41,5.41,0,0,1,.15.57s0,0,0,0a8.26,8.26,0,0,0,1.86,3.93c3.4,4.26,9.82,10.6,9.82,10.6a57.61,57.61,0,0,0,9,.58c4.31-.1,8.46,1.47,8.55,5.17A1.48,1.48,0,0,0,321.33,815.38Z" transform="translate(-103.43 -88.91)"/><path class="cls-81" d="M292.2,795.46s-9.22,1.95-17.14,4.38-11.5,13.79-11.5,13.79l-10.51-2.51c.71-11.54,2.9-15.44,2.9-15.44s.78,5,10.55,3.71c6.83-.89,8.59-7.34,9.26-10l15.39-.38Z" transform="translate(-103.43 -88.91)"/><path class="cls-84" d="M287.37,793.55H252.92s-8.68-171.49-12.08-231.67c-.25-4.24-4-8.18-2.75-7.12l2.32-16L282.6,542s1.43,13.49,2,33.73C286.67,644.05,288.38,793.55,287.37,793.55Z" transform="translate(-103.43 -88.91)"/><path class="cls-81" d="M204,795.32c-.71,2.25.53,3.39.63,3.86,1.85,8.94,26.23,7.19,27.25,6.32s2.89-25,2.55-26.11-16.34-2.36-18.64-2.58-8.14-3.62-7.07-2.81C209.19,774.34,204.74,793.07,204,795.32Z" transform="translate(-103.43 -88.91)"/><path class="cls-82" d="M203.63,799s-.94,5,8,4.73c8.55-.24,13.23-10.24,13.23-10.24l13.84-.82s1,6.29,2.06,7.79c3,4.12,10.72,12.08,10.72,12.08l15.92.29s1.25,12.76-3.64,12.9-14.55.34-18.62.45-25.56-4.82-25.56-4.82-18.32.74-18.32.51C201.25,804.6,203.63,799,203.63,799Z" transform="translate(-103.43 -88.91)"/><polygon class="cls-82" points="97.54 736.37 125.31 736.4 125.44 732.2 113.11 729.48 97.21 729.63 97.54 736.37"/><path class="cls-85" d="M269.21,815.38v0a14.77,14.77,0,0,1-.26,2.12c-.09.35-.17.66-.26,1,0,0,0,.1,0,.14l-.13.31a1.72,1.72,0,0,1,0,.18,1,1,0,0,0-.16.31c0,.07,0,.1,0,.14a3.82,3.82,0,0,1-.28.52,2,2,0,0,0-.11.2l-.12.21a2.88,2.88,0,0,1-.19.24c0,.07-.08.1-.12.17a2.29,2.29,0,0,1-.3.34l-.11.1a1.77,1.77,0,0,1-.23.24s-.11.06-.14.1l-.3.2s0,0-.07,0a.87.87,0,0,1-.4.19l-.11.06-.33.09s-.07,0-.14,0a1.58,1.58,0,0,1-.43,0l-8.36.24-8.43.24-1.43,0a1.48,1.48,0,0,1-.42,0l-.5,0a1.19,1.19,0,0,1-.32,0l-.67,0a.74.74,0,0,0-.25,0c-.17,0-.31-.05-.49-.06h-.25c-.17,0-.35,0-.56-.1H243a4.26,4.26,0,0,0-.67-.11.25.25,0,0,1-.14,0,6.07,6.07,0,0,1-.78-.11c-4-.64-9.46-1.7-13.86-2.6s-7.8-1.65-7.8-1.65-19,.68-19.07.46c0-2.41.06-4.61.17-6.6l0-.78c.7-11.54,2.9-15.44,2.9-15.44s.86,6.58,10.63,5.31c6.83-.89,9.27-7.51,9.94-10.14a7.69,7.69,0,0,0,.27-1.09l3.31-.11,8-.23,3-.09s.14.89.36,2.08v0c0,.18.09.33.11.5a.33.33,0,0,0,0,.15,3.45,3.45,0,0,0,.11.54.17.17,0,0,0,0,.11,3.64,3.64,0,0,0,.12.53v.08a3.2,3.2,0,0,1,.15.61.14.14,0,0,1,0,.11,5.41,5.41,0,0,1,.15.57s0,0,0,0c.08,1.85,1.86,3.93,1.86,3.93,3.4,4.26,9.82,10.6,9.82,10.6a57.61,57.61,0,0,0,9,.58c4.31-.1,8.45,1.47,8.54,5.17A2,2,0,0,0,269.21,815.38Z" transform="translate(-103.43 -88.91)"/><path class="cls-81" d="M240.08,795.46s-12.93,3-20.47,5.65-18.68,10-18.68,10c.7-11.54,2.9-15.44,2.9-15.44s.78,5,10.55,3.71c6.83-.89,8.59-7.34,9.26-10L239,789Z" transform="translate(-103.43 -88.91)"/><path class="cls-86" d="M241.12,793.55c1.32,0,7.82-250.94,7.82-250.94l-41.58-3.84-3.22,16c-1.18-1.07-3.79,7.12-3.79,7.12l1,231.67Z" transform="translate(-103.43 -88.91)"/><path class="cls-87" d="M286.28,443.87l8.48,73.31c.34,3,2.52,3.85,4.85,2l19.78-15.73" transform="translate(-103.43 -88.91)"/><path class="cls-88" d="M304.38,475.62l-19.05,3.65-8.42,1.62-2.64-14.08c-2.54-13.64-6-28.67-8.21-37.39l-3.49-13.89a14.24,14.24,0,0,1-3.12-4.71c-.73-2.36.18-4.72,6.76-4.72h.35a25.44,25.44,0,0,1,14.58,4.56l.05,0c.33.22.65.47,1,.7l.07.05c6.26,4.85,10.44,12.47,12.7,20.78,3.77,13.84,5.61,22.8,6.82,29.33Z" transform="translate(-103.43 -88.91)"/><polygon class="cls-89" points="188.97 389.03 179.68 343.77 161.72 393.9 188.97 389.03"/><path class="cls-86" d="M286.37,538.4l-80.88,37.54-2.93,34.48c.41,9.52,7.6,3.28,17,1.87L269.35,597c9.42-1.41,18.17-2.76,18.16-12.29Z" transform="translate(-103.43 -88.91)"/><path class="cls-88" d="M282.61,556.91s.18-.33.39-.78A.92.92,0,0,1,282.61,556.91Z" transform="translate(-103.43 -88.91)"/><path class="cls-88" d="M286.34,431.21l-1,48.06c-.7,32.41-1.52,70.13-1.69,75a5.49,5.49,0,0,1-.64,1.89c-.14-1.19-3.74-3.28-27.72-3.1-39.09.31-54.71,29.66-54.71,29.66V430.5c0-13.54,12.37-24.59,25.08-24.48h39.21c.58,0,1.15,0,1.7.09a19.49,19.49,0,0,1,9,3.14C282.23,413.61,286.34,422,286.34,431.21Z" transform="translate(-103.43 -88.91)"/><polygon class="cls-89" points="119.96 350.75 116.35 349.86 115.38 349.86 94.27 392.44 100.3 404.42 106.11 417.94 133.34 407.52 134.67 371.15 119.96 350.75"/><path class="cls-86" d="M286,557.84s-2.77,1.51-7.32,3.88c-20.53,10.69-77.17,38.75-78.15,23.44-.08-1-.12-2.2-.18-3.55,0-.64,0-1.28,0-1.88-.85-27.08.57-102.33.57-102.33l7.94,3.48,3,3.83-10.2,1.63s0,7.7,6.68,7.7c1.15,0,16.38-1.49,17.39-1.49,5,0,6.23-18.05,6.54-32.89.14-7.06.07-4,.07-7.27h48.25c0,49.29.5,39.84,5.1,39.84,0,0,0,1.15.09,3.33C286,503.82,286.43,526.92,286,557.84Z" transform="translate(-103.43 -88.91)"/><path class="cls-84" d="M287,564.26s-41.2-12-53.61-18.19c-18-9-18-40.15-19.6-49.83,0,0-1-5.77-1.92-11.53l1.26,1.63s0,7.7,6.69,7.7c1.15,0,4.91-1.49,5.92-1.49,5,0,6.23-18.05,6.54-32.89l7.25,51.69,46.26-7.79C286,511.82,286,531,287,564.26Z" transform="translate(-103.43 -88.91)"/><path class="cls-90" d="M211,346c1.38,19.24,6.13,24.44,13.66,24.44,6.17,0,11.28-8.52,11.06-10.51s-2.44-13.71-4.21-14.38S211,346,211,346Z" transform="translate(-103.43 -88.91)"/><path class="cls-90" d="M228.63,366.29c-1.22-2.45-2,5.35-2,4.42-.31-16.39-14.34-4.19-15.45-22.33-.94-15.47-1.07-15.6-1.49-23.12-.83-14.93,7.84-30.77,39.76-30.53,17.76.14,22.32,7,26.33,16.09,7.46,16.85,1.44,38.5,1.44,38.5Z" transform="translate(-103.43 -88.91)"/><path class="cls-91" d="M257.36,407.16s.24,6.31-10,6.31a25.27,25.27,0,0,1-16.66-6.31V375.88l26.69-1.47Z" transform="translate(-103.43 -88.91)"/><path class="cls-92" d="M257.36,400.47c-7,.85-26.51-1.65-26.51-6.25s-.18-25-.18-25l26.69.18Z" transform="translate(-103.43 -88.91)"/><path class="cls-92" d="M280.42,359.23c0,6.15-5.36,20.32-8.68,24.55-1.42,1.81-3.38,5.92-7.88,7.28-4.1,1.25-6.52,2.12-6.52,4.33,0,2.4-5-2.25-6.76-2.25-20.46,0-30.57-22-30.57-37.05l6.3-19.7c0-16.44,10.91-28.25,26.79-28.13s28.66,10.95,28.66,27.38Z" transform="translate(-103.43 -88.91)"/><path class="cls-91" d="M282.17,335l-.21,6.52-.12,3.72-.44,14c-.61,17.24-4.48,33.16-25.42,33s-26.49-25.44-25.93-41.84l1-14.26c0-.6,0-1.2,0-1.77.43-21.4,9.12-29.24,24.48-29.24,19.19,0,26,11.26,26.6,25.76C282.22,332.24,282.22,333.61,282.17,335Z" transform="translate(-103.43 -88.91)"/><path class="cls-92" d="M263.55,363.2c3,0,5.52-1.68,5.38-3.39,0-.63-.67-1.38-1.84-.83a10,10,0,0,1-3.52.54,9.79,9.79,0,0,1-3.24-.58c-1.9-.57-2.5.17-2.55.8C257.65,361.45,260.57,363.17,263.55,363.2Z" transform="translate(-103.43 -88.91)"/><path class="cls-92" d="M230.36,348.9c.44,6.13-2.68,11.39-7,11.76s-8.09-4.31-8.52-10.43,2-10.9,6.18-11.65S229.93,342.78,230.36,348.9Z" transform="translate(-103.43 -88.91)"/><path class="cls-93" d="M248.46,347.55a2.68,2.68,0,0,0,2.66,2.66,2.62,2.62,0,0,0,2.66-2.62,2.67,2.67,0,0,0-2.66-2.65A2.61,2.61,0,0,0,248.46,347.55Z" transform="translate(-103.43 -88.91)"/><path class="cls-93" d="M271.92,348a2.67,2.67,0,0,0,2.66,2.65,2.62,2.62,0,0,0,2.66-2.61,2.67,2.67,0,0,0-2.66-2.66A2.62,2.62,0,0,0,271.92,348Z" transform="translate(-103.43 -88.91)"/><path class="cls-90" d="M227.86,337.07" transform="translate(-103.43 -88.91)"/><path class="cls-90" d="M237.82,335.15" transform="translate(-103.43 -88.91)"/><line class="cls-94" x1="140.42" y1="247.82" x2="152.37" y2="247.58"/><line class="cls-94" x1="167.21" y1="248.02" x2="177.5" y2="248.77"/><path class="cls-90" d="M223.92,333.91a30,30,0,0,1,10.67-23.07c-3.13-3.89-4.27-9.71-3.6-10.24,1.11-.89,15.45-11.55,32.37-1.76,11.59,6.71,16.89,11.21,14.91,16,0,.06.05.11.07.17l-.1-.11c-1.79,4.23-5.77,7-9.31,7-14.82,0-14.51-8.7-25.55-7.85-4.32.33-10.26,1.43-10.26,12.21a154,154,0,0,1-2.6,25.54c-3.47.23-3.51-2-3.51-2,0-6.2-.93-9.66-4.87-11.51Z" transform="translate(-103.43 -88.91)"/><path class="cls-95" d="M267.68,373.39c-1.73,1.22-4.36,1.42-6.64,1.42s-6-.2-7.7-1.42" transform="translate(-103.43 -88.91)"/><path class="cls-96" d="M267.23,602.55a.57.57,0,0,1,0-.13A.57.57,0,0,0,267.23,602.55Z" transform="translate(-103.43 -88.91)"/><path class="cls-96" d="M267.19,601.2v0Z" transform="translate(-103.43 -88.91)"/><path class="cls-96" d="M267.21,599.93v0Z" transform="translate(-103.43 -88.91)"/><path class="cls-96" d="M267.7,606.74a2.33,2.33,0,0,0-.05-.28A2.33,2.33,0,0,1,267.7,606.74Z" transform="translate(-103.43 -88.91)"/><path class="cls-96" d="M267.46,605.23s0-.09,0-.13S267.46,605.19,267.46,605.23Z" transform="translate(-103.43 -88.91)"/><path class="cls-96" d="M267.32,604a1.23,1.23,0,0,0,0-.2A1.23,1.23,0,0,1,267.32,604Z" transform="translate(-103.43 -88.91)"/><path class="cls-97" d="M213.07,449.87l10.09,65.87a6.63,6.63,0,0,0,8.11,5.52L276,511.12" transform="translate(-103.43 -88.91)"/><polygon class="cls-98" points="123.72 393.59 124.23 396.53 107.56 406.55 106.09 396.91 123.72 393.59"/><path class="cls-88" d="M226.29,406c-29.14,0-35.46,17.34-35.19,31.91.27,14.34,6.16,51,6.16,51L229,482.56l-5.63-44Z" transform="translate(-103.43 -88.91)"/><path class="cls-86" d="M225.65,406c13.91,0,17.15,32.67,17,47.31l-4.8.25-5.49-.25c.19-14.64-3.27-46.83-18.76-46,0,0,3.46-.65,5.89-1A58,58,0,0,1,225.65,406Z" transform="translate(-103.43 -88.91)"/><path class="cls-86" d="M263.8,406a33.47,33.47,0,0,0-6.18,0l-.26,0v1.12a4.38,4.38,0,0,1-.13,1c10.82,4,13.42,33.4,13.26,46.11l6-.46,4.13.46C280.77,439.63,277.72,406,263.8,406Z" transform="translate(-103.43 -88.91)"/><path class="cls-91" d="M263.36,505.37c4.44-2.37,10-8.84,12.45-11.17s16.25-.59,16.84,1.42-3.25,5-3.4,5.6a12.12,12.12,0,0,1-2.16,3.26c-.66.59-1.5-.29-3,.89s-7.95,2.22-8.63,2.66a51.29,51.29,0,0,1-6.42,2.22C268.24,510.4,263.36,505.37,263.36,505.37Z" transform="translate(-103.43 -88.91)"/><path class="cls-89" d="M281.14,410.67a12.49,12.49,0,0,0-5.57-1.42c-4.78-.33-11,.57-16.12,1.57-1.91.38-3.66.76-5.14,1.11a5.65,5.65,0,0,0,3-4.77V406h7.51c.58,0,1.15,0,1.7.09A25.44,25.44,0,0,1,281.14,410.67Z" transform="translate(-103.43 -88.91)"/><path class="cls-99" d="M308.66,479.44c-1.22-3.26-5.54-3.66-8.6-.85-6.22,5.7,6.81,14.56,7.83,17.88l-13,7.15s9.79-6.64,9.71-6.38,7.66-15.42,7.66-15.42Z" transform="translate(-103.43 -88.91)"/><path class="cls-100" d="M360.25,486.09l-.93-2.85c-.06-.37-.43-.62-1.1-.62H301a4.94,4.94,0,0,0-3.35,1.57L253.49,537.3c-.37.45-.46.86-.3,1.14l1,2.94,3-2.5h54.21a4.94,4.94,0,0,0,3.35-1.58L357.46,486l-.17.68Z" transform="translate(-103.43 -88.91)"/><polygon class="cls-101" points="200.16 393.7 201.86 396.77 206.42 396.77 205.75 393.7 200.16 393.7"/><path class="cls-102" d="M315.81,540.37a5,5,0,0,1-3.35,1.57H255.25c-1.12,0-1.45-.71-.74-1.57l44.17-53.12a5,5,0,0,1,3.35-1.57h57.22c1.12,0,1.45.71.73,1.57Z" transform="translate(-103.43 -88.91)"/><path class="cls-99" d="M355.53,483a7.2,7.2,0,0,1-.76,1.74c-1.37,2.34-5,5.21-7.32,8.26-15.41,20.53-28.7,40.71-30.23,49.4,0,0-30.41-.51-46.25,2.55,0,0,1.1-19.24,30.07-53.83,2.74-3.27,5-4.76,6-8.08s-.84-6.22-4.6-6.22l47.44,1.87C353.5,478.71,356.49,479.6,355.53,483Z" transform="translate(-103.43 -88.91)"/><path class="cls-14" d="M357.19,482.89a7.38,7.38,0,0,1-.75,1.74c-1.38,2.34-5,5.21-7.33,8.27A166.43,166.43,0,0,0,336,513.36c-2.25,4.12-4.17,8.06-5.79,11.71-3.47,7.83-5.52,14.32-6.21,18.24,0,0-30.41-.51-46.25,2.56,0,0-4-20.27,25-54.85,2.74-3.27,5-4.77,6-8.09.87-3.07-.66-5.91-4-6.2l46.86,1.86C355.17,478.59,358.15,479.47,357.19,482.89Z" transform="translate(-103.43 -88.91)"/><path class="cls-99" d="M336,513.36c-2.25,4.12-4.17,8.06-5.79,11.71a7.73,7.73,0,0,1-1.18-.75c-3.07-2.3.84-8.68.84-8.68a18.24,18.24,0,0,1-.76-3.93c-.08-1.79,2.12-.42,4.26.77Z" transform="translate(-103.43 -88.91)"/><path class="cls-103" d="M342.89,511.37c-1.87,1-7,1.11-11.24,0" transform="translate(-103.43 -88.91)"/><path class="cls-104" d="M340.68,511c-2.55-.22-7.15-.77-8.52.94s-6.23,9.23-1,10.34c5.79,1.24,9.2.3,12.27-4.81,1-1.7,2.12-3.06,2.08-5.83C345.46,509.75,343.29,511.18,340.68,511Z" transform="translate(-103.43 -88.91)"/><path class="cls-105" d="M357.19,482.89c-3.38.25-46.61.12-48.53,0,.92-3.25-.84-6.22-4.6-6.22h48C355.76,476.71,358.15,479.47,357.19,482.89Z" transform="translate(-103.43 -88.91)"/><path class="cls-86" d="M292.66,793.55h-17.2l-7-.36L254.83,601.57,287.31,576C289.34,644.28,293.67,793.55,292.66,793.55Z" transform="translate(-103.43 -88.91)"/><polygon class="cls-84" points="149.29 526.12 158.74 509.11 144.1 515.02 149.29 526.12"/><path class="cls-89" d="M282.2,333v-.2c-.05-15.41-6.61-27.68-26.64-27.68-15.36,0-21.95,10.68-23.15,32.87.26-3.15,5.76-4.28,13-5.43,3.21,3.64,19.76,12.83,36.44,8.89l.12.07.12-3.78.09-2.74C282.2,334.34,282.2,333.67,282.2,333Z" transform="translate(-103.43 -88.91)"/><g class="cls-106"><path class="cls-107" d="M242.81,466v9.21a9.36,9.36,0,0,0,9.44,9.21h9.92a9.36,9.36,0,0,0,9.45-9.21V466" transform="translate(-103.43 -88.91)"/></g><path class="cls-108" d="M210.45,343a2.84,2.84,0,0,1-2.06-4.79c.58-.6,14.5-14.81,52.13-14.81,16.45,0,21.34,1.53,22.91,6.61s-1.56,9.33-1.42,8.5c.24-1.41.47-4.6-.83-6.26,0,0-1.6-3.18-20.66-3.18-35.22,0-47.89,12.92-48,13.05A2.83,2.83,0,0,1,210.45,343Z" transform="translate(-103.43 -88.91)"/><path class="cls-109" d="M283.56,325c-1.35-1-2.72-1.23-5.52-1.19-1,0-2.24.06-3.71.1-2,.07-4.42.14-7.49.14a133.25,133.25,0,0,0-37.36,5.19c-10.93,3.3-19.15,8.86-22,13.71-.85.62-1.81-5.45-2.31-11.76-.16-2.08-.28-4.19-.31-6.09,0-.43,0-.84,0-1.24A36,36,0,0,1,206,315c2.82-10.66,10.9-20,25.13-24.41a50.73,50.73,0,0,1,5.07-1.32c1-.21,2-.4,3-.56.07,0,.15-.05.19-.05,2.05-.31,4.17-.54,6.43-.7l.38,0c.85,0,1.66-.07,2.48-.07a39.35,39.35,0,0,1,13.33,2c.27.1.54.18.8.3a33.08,33.08,0,0,1,19,18C285.64,316.75,285.33,324.87,283.56,325Z" transform="translate(-103.43 -88.91)"/><path class="cls-110" d="M278,323.82c-.22.74-.54,1.16-.93,1.19a5.5,5.5,0,0,0-2.78-1.09c-2.37-.31-6.1.14-13.94.14l-7.62-.22c1.89-.15,2.22-8.8-1.88-18a35.6,35.6,0,0,0-14.73-16.6c1-.21,2-.4,3-.56.07,0,.15-.05.19-.05,2.05-.31,4.17-.54,6.43-.7a37.92,37.92,0,0,1,9.73,1.9c.27.1.55.18.81.3a33.14,33.14,0,0,1,19,18C278.34,314.84,278.81,321.24,278,323.82Z" transform="translate(-103.43 -88.91)"/><path class="cls-109" d="M278,308.1a33.08,33.08,0,0,0-19-18,7.71,7.71,0,0,0-.8-.3,39.43,39.43,0,0,0-13.33-2c-.82,0-1.64,0-2.48.08-1.77.11-3.46.29-5.1.5,7.06,1.27,13.49,10.46,16.35,16.94,4.1,9.22,3.66,18.36,1.78,18.51l7.61.21c11.6,0,14.21-1,16.72,1C281.55,324.87,281.86,316.75,278,308.1Z" transform="translate(-103.43 -88.91)"/><path class="cls-111" d="M206.91,344c2.41-5.39,11.64-11.43,22.57-14.73a133.56,133.56,0,0,1,37.36-5.19c11.6,0,14.21-1,16.72,1,1.76-.15,2.08-8.27-1.77-16.92a33.08,33.08,0,0,0-19-18c8.39,5.18,12,21.61,12.23,25.93.08,1.73-9.56.23-38,7.2C214.35,328.79,202.18,337.21,206.91,344Z" transform="translate(-103.43 -88.91)"/><path class="cls-88" d="M302.32,320.68S287.64,324,283,325.25a13,13,0,0,0-4.49-1.59,67.66,67.66,0,0,0-14.41-1.25c-4,0-10.17,1-15.82,2.24-7.42,1.55-14,3.36-14,3.36l-.56-3.78s4.16-2.87,14.57-5.34a146.2,146.2,0,0,1,30.23-3.5q2.63-.06,5.43-.06c12.32,0,17.38.82,18.31,2C302.62,317.87,302.32,320.68,302.32,320.68Z" transform="translate(-103.43 -88.91)"/><path class="cls-112" d="M278.47,315.39v8.27a67.66,67.66,0,0,0-14.41-1.25c-4,0-10.17,1-15.82,2.24v-5.76A146.2,146.2,0,0,1,278.47,315.39Z" transform="translate(-103.43 -88.91)"/><path class="cls-113" d="M283.9,318.16c-37.32,0-50.07,9.92-50.07,9.92a188.4,188.4,0,0,1,30.23-2.83c15.12,0,18.9,2.83,18.9,2.83C291.93,325.72,321.22,318.16,283.9,318.16Z" transform="translate(-103.43 -88.91)"/><rect class="cls-84" x="139.37" y="373.31" width="28.81" height="5.74"/><rect class="cls-114" x="127.8" y="351.94" width="12.28" height="9.52" rx="1.89"/><rect class="cls-114" x="166.06" y="351.94" width="12.28" height="9.52" rx="1.89"/><rect class="cls-86" x="131.58" y="354.52" width="7.56" height="3.42" rx="1.28"/><rect class="cls-86" x="169.72" y="354.52" width="7.56" height="3.42" rx="1.28"/><polygon class="cls-115" points="234.12 67.53 234.12 103.43 220.65 105 220.65 69.1 234.12 67.53"/><polygon class="cls-115" points="437.19 43.98 437.19 79.88 423.72 81.44 423.72 45.54 437.19 43.98"/><polygon class="cls-115" points="234.12 49.9 234.12 63.12 220.65 64.69 220.65 51.47 234.12 49.9"/><polygon class="cls-115" points="437.19 26.35 437.19 39.57 423.72 41.13 423.72 27.91 437.19 26.35"/></g></g></svg>