<?xml version="1.0" encoding="utf-8"?>
<!-- Generator: Adobe Illustrator 23.0.2, SVG Export Plug-In . SVG Version: 6.00 Build 0)  -->
<svg version="1.1" xmlns="http://www.w3.org/2000/svg" xmlns:xlink="http://www.w3.org/1999/xlink" x="0px" y="0px"
	 viewBox="0 0 500 500" style="enable-background:new 0 0 500 500;" xml:space="preserve">
<style type="text/css">
	.st0{fill:#4E8AB3;}
	.st1{fill:#FFFFFF;}
	.st2{fill:#2F5384;}
	.st3{fill:#494949;}
	.st4{fill:#BFE2FD;}
	.st5{clip-path:url(#SVGID_2_);}
	.st6{fill:#6C3506;}
	.st7{fill:#4C2000;}
	.st8{fill:#ECAF74;}
	.st9{fill:#0071BC;}
	.st10{fill:#D6905C;}
	.st11{fill:#63AEE0;}
	.st12{fill:#101012;}
	.st13{fill:#DA583A;}
</style>
<g id="BACKGROUND">
</g>
<g id="OBJECTS">
	<g>
		<path class="st0" d="M465,431.74V155.05c0-7.16-5.68-13.02-12.63-13.02H71.64c-6.95,0-12.63,5.86-12.63,13.02V432L465,431.74z"/>
		<g>
			<g>
				<path class="st1" d="M157.19,58.29c-0.5,2.17-2.57,3.49-4.62,2.96c-2.05-0.53-3.3-2.72-2.8-4.89c0.5-2.17,2.57-3.49,4.62-2.96
					C156.45,53.93,157.7,56.12,157.19,58.29z"/>
				<g>
					<path class="st1" d="M175.1,67.87c0.04-0.17,0.21-0.26,0.36-0.19l2.37,1.01l-0.27,1.17l-2.54-0.27
						c-0.16-0.02-0.27-0.18-0.23-0.35L175.1,67.87z"/>
					<path class="st1" d="M179.92,65.96c0.16,0.04,0.24,0.22,0.18,0.38l-0.96,2.51l-1.11-0.29l0.25-2.69
						c0.02-0.17,0.17-0.29,0.33-0.25L179.92,65.96z"/>
					<path class="st1" d="M181.7,71.14c-0.04,0.17-0.21,0.26-0.36,0.19l-2.37-1.01l0.27-1.17l2.54,0.27
						c0.16,0.02,0.27,0.18,0.23,0.35L181.7,71.14z"/>
					<path class="st1" d="M176.88,73.05c-0.16-0.04-0.24-0.22-0.18-0.38l0.96-2.51l1.11,0.29l-0.25,2.69
						c-0.02,0.17-0.17,0.29-0.33,0.25L176.88,73.05z"/>
				</g>
				<g>
					<path class="st1" d="M218.18,76.51c0.04-0.17,0.21-0.26,0.36-0.19l2.37,1.01l-0.27,1.17l-2.54-0.27
						c-0.16-0.02-0.27-0.18-0.23-0.35L218.18,76.51z"/>
					<path class="st1" d="M223,74.6c0.16,0.04,0.24,0.22,0.18,0.38l-0.96,2.51l-1.11-0.29l0.25-2.69c0.02-0.17,0.17-0.29,0.33-0.25
						L223,74.6z"/>
					<path class="st1" d="M224.78,79.78c-0.04,0.17-0.21,0.26-0.36,0.19l-2.37-1.01l0.27-1.17l2.54,0.27
						c0.16,0.02,0.27,0.18,0.23,0.35L224.78,79.78z"/>
					<path class="st1" d="M219.96,81.69c-0.16-0.04-0.24-0.22-0.18-0.38l0.96-2.51l1.11,0.29l-0.25,2.69
						c-0.02,0.17-0.17,0.29-0.33,0.25L219.96,81.69z"/>
				</g>
				<g>
					<path class="st1" d="M146.36,102.85c0.04-0.17,0.21-0.26,0.36-0.19l2.37,1.01l-0.27,1.17l-2.54-0.27
						c-0.16-0.02-0.27-0.18-0.23-0.35L146.36,102.85z"/>
					<path class="st1" d="M151.18,100.94c0.16,0.04,0.24,0.22,0.18,0.38l-0.96,2.51l-1.11-0.29l0.25-2.69
						c0.02-0.17,0.17-0.29,0.33-0.25L151.18,100.94z"/>
					<path class="st1" d="M152.96,106.12c-0.04,0.17-0.21,0.26-0.36,0.19l-2.37-1.01l0.27-1.17l2.54,0.27
						c0.16,0.02,0.27,0.18,0.23,0.35L152.96,106.12z"/>
					<path class="st1" d="M148.14,108.03c-0.16-0.04-0.24-0.22-0.18-0.38l0.96-2.51l1.11,0.29l-0.25,2.69
						c-0.02,0.17-0.17,0.29-0.33,0.25L148.14,108.03z"/>
				</g>
				<g>
					<path class="st2" d="M248.26,76.14c-2.31-0.6-3.73-3.08-3.16-5.52c0.57-2.44,2.91-3.94,5.22-3.34c2.31,0.6,3.73,3.08,3.16,5.52
						C252.91,75.25,250.57,76.74,248.26,76.14z M250.08,68.3c-1.78-0.46-3.59,0.69-4.03,2.58c-0.44,1.88,0.65,3.79,2.44,4.26
						c1.78,0.46,3.59-0.69,4.03-2.58C252.96,70.67,251.87,68.76,250.08,68.3z"/>
				</g>
				<g>
					<path class="st2" d="M121.91,107.87c-0.01-0.17,0.12-0.31,0.29-0.3l2.55,0.21l0.07,1.2l-2.5,0.55
						c-0.16,0.04-0.31-0.09-0.32-0.26L121.91,107.87z"/>
					<path class="st2" d="M125.96,104.51c0.16-0.01,0.29,0.13,0.28,0.3l-0.2,2.7l-1.14,0.08l-0.52-2.65
						c-0.03-0.17,0.08-0.33,0.24-0.34L125.96,104.51z"/>
					<path class="st2" d="M129.14,108.89c0.01,0.17-0.13,0.31-0.29,0.3l-2.55-0.21l-0.07-1.2l2.5-0.55
						c0.16-0.04,0.31,0.09,0.32,0.26L129.14,108.89z"/>
					<path class="st2" d="M125.08,112.25c-0.16,0.01-0.29-0.13-0.28-0.3l0.2-2.7l1.14-0.08l0.52,2.65c0.03,0.17-0.08,0.33-0.24,0.34
						L125.08,112.25z"/>
				</g>
				<g>
					<path class="st2" d="M232.2,55.58c-0.18-0.05-0.35-0.15-0.48-0.31c-0.23-0.28-0.28-0.67-0.14-1.01l0.69-1.68l-0.91-1.55
						c-0.18-0.31-0.18-0.7,0-1.02c0.18-0.31,0.51-0.49,0.86-0.45l1.72,0.18l1.11-1.4c0.22-0.28,0.57-0.4,0.91-0.31h0
						c0.34,0.09,0.6,0.37,0.67,0.73l0.37,1.79l1.6,0.69c0.32,0.14,0.54,0.46,0.57,0.82c0.02,0.37-0.15,0.71-0.45,0.9l-1.49,0.93
						l-0.12,1.82c-0.02,0.37-0.24,0.68-0.56,0.82c-0.32,0.14-0.69,0.07-0.95-0.17l-1.29-1.21l-1.68,0.44
						C232.49,55.62,232.34,55.62,232.2,55.58z M234.43,55.11L234.43,55.11L234.43,55.11z M236.36,55.45L236.36,55.45
						C236.36,55.45,236.36,55.45,236.36,55.45z M232.57,50.81l0.73,1.24c0.16,0.27,0.18,0.6,0.06,0.89l-0.55,1.34l1.34-0.35
						c0.29-0.08,0.6,0,0.82,0.21l1.03,0.97l0.1-1.46c0.02-0.32,0.19-0.6,0.45-0.76l1.19-0.74l-1.28-0.55
						c-0.28-0.12-0.48-0.38-0.55-0.68l-0.3-1.43l-0.89,1.12c-0.19,0.24-0.48,0.37-0.78,0.34L232.57,50.81z M235.52,49.02
						L235.52,49.02L235.52,49.02z"/>
				</g>
			</g>
			<g>
				<path class="st1" d="M341.28,58.29c0.5,2.17,2.57,3.49,4.62,2.96c2.05-0.53,3.3-2.72,2.8-4.89c-0.5-2.17-2.57-3.49-4.62-2.96
					C342.03,53.93,340.78,56.12,341.28,58.29z"/>
				<g>
					<path class="st1" d="M323.38,67.87c-0.04-0.17-0.21-0.26-0.36-0.19l-2.37,1.01l0.27,1.17l2.54-0.27
						c0.16-0.02,0.27-0.18,0.23-0.35L323.38,67.87z"/>
					<path class="st1" d="M318.56,65.96c-0.16,0.04-0.24,0.22-0.18,0.38l0.96,2.51l1.11-0.29l-0.25-2.69
						c-0.02-0.17-0.17-0.29-0.33-0.25L318.56,65.96z"/>
					<path class="st1" d="M316.77,71.14c0.04,0.17,0.21,0.26,0.36,0.19l2.37-1.01l-0.27-1.17l-2.54,0.27
						c-0.16,0.02-0.27,0.18-0.23,0.35L316.77,71.14z"/>
					<path class="st1" d="M321.59,73.05c0.16-0.04,0.24-0.22,0.18-0.38l-0.96-2.51l-1.11,0.29l0.25,2.69
						c0.02,0.17,0.17,0.29,0.33,0.25L321.59,73.05z"/>
				</g>
				<g>
					<path class="st1" d="M280.3,76.51c-0.04-0.17-0.21-0.26-0.36-0.19l-2.37,1.01l0.27,1.17l2.54-0.27
						c0.16-0.02,0.27-0.18,0.23-0.35L280.3,76.51z"/>
					<path class="st1" d="M275.48,74.6c-0.16,0.04-0.24,0.22-0.18,0.38l0.96,2.51l1.11-0.29l-0.25-2.69
						c-0.02-0.17-0.17-0.29-0.33-0.25L275.48,74.6z"/>
					<path class="st1" d="M273.69,79.78c0.04,0.17,0.21,0.26,0.36,0.19l2.37-1.01l-0.27-1.17l-2.54,0.27
						c-0.16,0.02-0.27,0.18-0.23,0.35L273.69,79.78z"/>
					<path class="st1" d="M278.51,81.69c0.16-0.04,0.24-0.22,0.18-0.38l-0.96-2.51l-1.11,0.29l0.25,2.69
						c0.02,0.17,0.17,0.29,0.33,0.25L278.51,81.69z"/>
				</g>
				<g>
					<path class="st1" d="M352.12,102.85c-0.04-0.17-0.21-0.26-0.36-0.19l-2.37,1.01l0.27,1.17l2.54-0.27
						c0.16-0.02,0.27-0.18,0.23-0.35L352.12,102.85z"/>
					<path class="st1" d="M347.3,100.94c-0.16,0.04-0.24,0.22-0.18,0.38l0.96,2.51l1.11-0.29l-0.25-2.69
						c-0.02-0.17-0.17-0.29-0.33-0.25L347.3,100.94z"/>
					<path class="st1" d="M345.51,106.12c0.04,0.17,0.21,0.26,0.36,0.19l2.37-1.01l-0.27-1.17l-2.55,0.27
						c-0.16,0.02-0.27,0.18-0.23,0.35L345.51,106.12z"/>
					<path class="st1" d="M350.33,108.03c0.16-0.04,0.24-0.22,0.18-0.38l-0.96-2.51l-1.11,0.29l0.25,2.69
						c0.02,0.17,0.17,0.29,0.33,0.25L350.33,108.03z"/>
				</g>
				<g>
					<path class="st2" d="M245,72.8c-0.57-2.44,0.85-4.92,3.16-5.52c2.31-0.6,4.65,0.9,5.22,3.34c0.57,2.44-0.85,4.92-3.16,5.52
						C247.91,76.74,245.57,75.25,245,72.8z M245.95,72.56c0.44,1.88,2.25,3.04,4.03,2.58c1.78-0.46,2.87-2.37,2.44-4.26
						c-0.44-1.88-2.24-3.04-4.03-2.58C246.61,68.76,245.52,70.67,245.95,72.56z"/>
				</g>
				<g>
					<path class="st2" d="M376.57,107.87c0.01-0.17-0.13-0.31-0.29-0.3l-2.55,0.21l-0.07,1.2l2.5,0.55
						c0.16,0.04,0.31-0.09,0.32-0.26L376.57,107.87z"/>
					<path class="st2" d="M372.51,104.51c-0.16-0.01-0.3,0.13-0.28,0.3l0.2,2.7l1.14,0.08l0.52-2.65c0.03-0.17-0.08-0.33-0.24-0.34
						L372.51,104.51z"/>
					<path class="st2" d="M369.34,108.89c-0.01,0.17,0.13,0.31,0.29,0.3l2.55-0.21l0.07-1.2l-2.5-0.55
						c-0.16-0.04-0.31,0.09-0.32,0.26L369.34,108.89z"/>
					<path class="st2" d="M373.39,112.25c0.16,0.01,0.3-0.13,0.28-0.3l-0.2-2.7l-1.14-0.08l-0.52,2.65
						c-0.03,0.17,0.08,0.33,0.24,0.34L373.39,112.25z"/>
				</g>
				<g>
					<path class="st2" d="M265.84,55.58l-1.68-0.44l-1.29,1.21c-0.26,0.25-0.62,0.31-0.95,0.17c-0.32-0.14-0.54-0.45-0.56-0.82
						l-0.12-1.82l-1.49-0.93c-0.3-0.19-0.47-0.53-0.45-0.9c0.02-0.37,0.24-0.68,0.57-0.82l1.6-0.69l0.37-1.79
						c0.08-0.36,0.33-0.64,0.67-0.73l0,0c0.34-0.09,0.69,0.03,0.91,0.31l1.11,1.4l1.72-0.18c0.35-0.04,0.68,0.14,0.86,0.45
						c0.18,0.31,0.18,0.7,0,1.02l-0.91,1.55l0.69,1.68c0.14,0.34,0.09,0.72-0.14,1.01c-0.13,0.16-0.29,0.27-0.48,0.31
						C266.14,55.62,265.99,55.62,265.84,55.58z M264.04,55.11L264.04,55.11L264.04,55.11z M262.11,55.45L262.11,55.45
						C262.11,55.45,262.11,55.45,262.11,55.45z M264.52,50.96c-0.3,0.03-0.59-0.1-0.78-0.34l-0.89-1.12l-0.3,1.43
						c-0.06,0.31-0.27,0.56-0.55,0.68l-1.28,0.55l1.19,0.74c0.26,0.16,0.43,0.45,0.45,0.76l0.1,1.46l1.03-0.97
						c0.23-0.21,0.53-0.29,0.82-0.21l1.34,0.35l-0.55-1.34c-0.12-0.29-0.1-0.63,0.06-0.89l0.73-1.24L264.52,50.96z M262.95,49.02
						L262.95,49.02L262.95,49.02z"/>
				</g>
			</g>
		</g>
		<g>
			<g>
				<path class="st3" d="M452.24,431.72V133.53c0-7.72-5.68-14.03-12.63-14.03H58.87c-6.95,0-12.63,6.31-12.63,14.03V432
					L452.24,431.72z"/>
				<path class="st4" d="M404.95,390.62c7.32,0,13.25-6,13.25-13.39V162.67c0-5.9-4.73-10.72-10.51-10.72H90.8
					c-5.78,0-10.51,4.83-10.51,10.72v214.76c0,7.4,5.94,13.4,13.26,13.39L404.95,390.62z"/>
				<g>
					<defs>
						<path id="SVGID_1_" d="M404.98,390.62c7.3,0,13.21-5.98,13.21-13.36V162.67c0-5.9-4.73-10.72-10.51-10.72H90.8
							c-5.78,0-10.51,4.83-10.51,10.72v214.79c0,7.38,5.92,13.36,13.23,13.36L404.98,390.62z"/>
					</defs>
					<clipPath id="SVGID_2_">
						<use xlink:href="#SVGID_1_"  style="overflow:visible;"/>
					</clipPath>
					<g class="st5">
						<g>
							<path class="st6" d="M310,428.79H186.24V226.51c0-31.73,25.73-57.46,57.46-57.46h8.84c31.73,0,57.46,25.73,57.46,57.46
								V428.79z"/>
						</g>
						<g>
							<rect x="185.59" y="335.16" class="st7" width="125.17" height="93.63"/>
						</g>
						<g>
							<g>
								<g>
									<path class="st8" d="M300.1,352.02c16.46,0,32.23-4.17,39.11-18.08c14.29-28.87,2.16-94.28,0.73-101.64l-16.57,3.28
										c3.57,18.43,10.66,70.66,0.73,90.73c-7.65,15.45-49.69,6.93-68.86,0.38l-5.41,16.16
										C254.13,344.32,277.75,352.02,300.1,352.02z"/>
								</g>
							</g>
						</g>
						<g>
							<g>
								<g>
									<path class="st8" d="M164.89,480.09l12.9-0.63c-4.12-86.58,13.37-118.92,28.77-130.8c13.4-10.34,26.58-6.18,26.71-6.14
										l4-12.41c-0.8-0.26-19.81-6.28-38.55,8.17C172.75,358.33,161.37,406.03,164.89,480.09z"/>
								</g>
							</g>
						</g>
						<g>
							<path class="st9" d="M241.79,316.93c-5.92,0-11.53,2.57-15.47,7.03c-6.87,7.79-16.31,20.85-15.37,32.89
								c1.46,18.73,8.16,18.24-0.07,38.94c-8.23,20.7-24.82,86.75-24.82,86.75H310c0,0-7.45-79.98-28.61-103.03
								c-3.01-3.27-4.58-7.62-4.46-12.08c0.19-7.58,0.42-19.27,0.37-29.71c-0.06-11.5-9.29-20.79-20.67-20.79
								C251.42,316.93,246.07,316.93,241.79,316.93z"/>
						</g>
						<g>
							<g>
								<path class="st8" d="M248.04,333.28L248.04,333.28c6.2,0,11.22-5.08,11.22-11.34v-16.48c0-3.96-3.18-7.18-7.1-7.18h-8.24
									c-3.92,0-7.1,3.21-7.1,7.18v16.48C236.81,328.21,241.84,333.28,248.04,333.28z"/>
							</g>
						</g>
						<g>
							<path class="st10" d="M256.15,315.81c1.04-0.22,2.08-0.48,3.11-0.78v-14.85h-22.44v15.68
								C242.79,317.72,250.78,316.92,256.15,315.81z"/>
						</g>
						<g>
							<g>
								<path class="st8" d="M248.04,309.87L248.04,309.87c-26.83,0-48.79-22.18-48.79-49.29v-35.49
									c0-27.11,21.95-49.29,48.79-49.29l0,0c26.83,0,48.79,22.18,48.79,49.29v35.49C296.82,287.69,274.87,309.87,248.04,309.87z"
									/>
							</g>
						</g>
						<g>
							<path class="st10" d="M295.2,222c-0.69-25.53-21.85-46.2-47.64-46.2l0,0c-25.79,0-46.95,20.67-47.64,46.2H295.2z"/>
						</g>
						<g>
							<path class="st6" d="M296.16,217.06c-3.82-23.33-24-41.26-48.13-41.26l0,0c-24.13,0-44.3,17.94-48.13,41.26H296.16z"/>
						</g>
						<g>
							<g>
								<g>
									<path class="st8" d="M277.59,251.54c0,10.32,8.28,18.68,18.49,18.68c10.21,0,18.49-8.37,18.49-18.68
										c0-10.32-8.28-18.68-18.49-18.68C285.87,232.86,277.59,241.22,277.59,251.54z"/>
								</g>
							</g>
						</g>
						<g>
							<g>
								<g>
									<path class="st8" d="M218.52,251.54c0,10.32-8.28,18.68-18.49,18.68c-10.21,0-18.49-8.37-18.49-18.68
										c0-10.32,8.28-18.68,18.49-18.68C210.24,232.86,218.52,241.22,218.52,251.54z"/>
								</g>
							</g>
						</g>
						<g>
							<path class="st11" d="M285.42,416.78c-11.54,10.16-24.73,18.55-39.47,23c-15.03,4.54-31.1,5.07-46.6,3.25
								c-0.93-0.11-1.85-0.25-2.78-0.37c-5.7,20.84-10.49,39.9-10.49,39.9H310c0,0-4.04-43.36-14.61-75.43
								C292.21,410.5,288.88,413.73,285.42,416.78z"/>
						</g>
						<g>
							<path class="st12" d="M227.15,243.42c0,2.5-2.01,4.53-4.49,4.53s-4.49-2.03-4.49-4.53c0-2.5,2.01-4.53,4.49-4.53
								S227.15,240.92,227.15,243.42z"/>
						</g>
						<g>
							<path class="st12" d="M274.87,243.42c0,2.5-2.01,4.53-4.49,4.53s-4.49-2.03-4.49-4.53c0-2.5,2.01-4.53,4.49-4.53
								S274.87,240.92,274.87,243.42z"/>
						</g>
						<g>
							<path class="st12" d="M222.67,254.87h48.3c0,0,0.73,22.67-24.15,22.92C221.93,278.03,222.67,254.87,222.67,254.87z"/>
						</g>
						<g>
							<path class="st12" d="M278.36,232.39c-7.16-5.8-14.83-2.78-15.15-2.65l-1.13-2.79c0.39-0.16,9.58-3.86,18.15,3.09
								L278.36,232.39z"/>
						</g>
						<g>
							<path class="st12" d="M214.21,232.39l-1.86-2.35c8.57-6.94,17.76-3.25,18.15-3.09l-1.13,2.79
								C229.04,229.61,221.37,226.59,214.21,232.39z"/>
						</g>
						<g>
							<path class="st13" d="M289.65,260.19c0,4.78-3.84,8.66-8.57,8.66c-4.73,0-8.57-3.88-8.57-8.66c0-4.78,3.84-8.66,8.57-8.66
								C285.81,251.54,289.65,255.41,289.65,260.19z"/>
						</g>
						<g>
							<path class="st13" d="M221.6,260.19c0,4.78-3.84,8.66-8.57,8.66s-8.57-3.88-8.57-8.66c0-4.78,3.84-8.66,8.57-8.66
								S221.6,255.41,221.6,260.19z"/>
						</g>
						<g>
							<g>
								<path class="st10" d="M327.35,257.64c-1.1-9.04-2.38-16.88-3.39-22.05l16.57-3.28c0.47,2.44,2.12,11.25,3.59,22.99
									C338.63,256.78,333.05,257.69,327.35,257.64z"/>
							</g>
						</g>
						<g>
							<g>
								<path class="st8" d="M311.08,223.24c1.39-0.99,3.33-0.66,4.31,0.74l1.31,1.86c3.81,4.08,3.62,2.51,3.46-0.02
									c-0.02-0.06-0.05-0.12-0.06-0.18l-5.35-23.24c-0.39-1.67,0.65-3.36,2.31-3.75c1.66-0.39,3.33,0.66,3.71,2.33l3.99,17.35
									c0.31-0.25,0.64-0.5,1-0.73l-4.56-19.8c-0.39-1.67,0.65-3.36,2.31-3.75c1.66-0.39,3.33,0.66,3.71,2.33l4.56,19.82
									c0.37-0.09,0.74-0.18,1.12-0.28l-2.32-16.17c-0.24-1.7,0.94-3.29,2.62-3.54c1.68-0.25,3.26,0.94,3.5,2.64l2.28,15.92
									c0.4-0.03,0.79-0.04,1.18-0.04l-0.74-9.8c-0.13-1.71,1.15-3.22,2.85-3.35c1.7-0.13,3.19,1.16,3.32,2.88l1.95,25.8
									c1.48,6.45-4.91,13.96-11.29,15.46l-3.55,0.83c-5.75,1.35-11.53-1.8-13.71-7.15c-0.38-0.22-0.72-0.51-0.98-0.89l-7.65-10.9
									C309.36,226.2,309.69,224.24,311.08,223.24z"/>
							</g>
						</g>
						<path class="st12" d="M184.75,308.31c0,0.83,0.67,1.51,1.49,1.51c0.82,0,1.49-0.67,1.49-1.51V267.4
							c3.18,2.51,7.11,4.09,11.41,4.28c2.07,8.9,6.42,16.95,12.37,23.44c0.54,0.58,1.46,0.57,1.99-0.01
							c0.01-0.01,0.01-0.01,0.02-0.02c0.5-0.54,0.49-1.36-0.01-1.9c-7.92-8.55-12.78-20.02-12.78-32.62v-35.49
							c0-1.94,0.12-3.91,0.36-5.85h68.85c0.82,0,1.49-0.67,1.49-1.51c0-0.83-0.67-1.51-1.49-1.51h-71.43l-0.19,1.28
							c-0.38,2.51-0.57,5.06-0.57,7.58v6.42c-3.76,0.43-7.19,1.93-10.03,4.17v-3.18c0-33.48,26.32-61.42,59.45-61.93
							c1.27-0.02,2.53,0.01,3.79,0.07c0.83,0.04,1.53-0.59,1.56-1.43l0-0.03c0.03-0.81-0.59-1.51-1.39-1.55
							c-1.32-0.07-2.66-0.09-4-0.07c-34.77,0.53-62.39,29.85-62.39,64.99v6.02c-2.9,3.47-4.67,7.93-4.71,12.82
							c-0.04,5,1.75,9.57,4.71,13.12V308.31z M183.02,251.41c0.07-8.65,6.49-15.75,14.74-16.87v25.19c0,3.02,0.27,5.99,0.77,8.89
							C189.8,267.83,182.95,260.41,183.02,251.41z"/>
						<path class="st12" d="M349.02,230.03l-1.93-25.49c-0.08-1.07-0.45-2.12-1.16-2.92c-1.2-1.35-3-1.85-4.68-1.38
							c-1.08,0.31-1.98,1.01-2.56,1.93l-0.48-3.33c-0.15-1.06-0.59-2.08-1.35-2.83c-1.29-1.27-3.12-1.65-4.76-1.06
							c-1.41,0.5-2.44,1.69-2.84,3.12c-0.21-0.72-0.41-1.41-0.58-2.03c-0.31-1.35-1.2-2.48-2.44-3.1c-1.24-0.62-2.67-0.64-3.93-0.06
							c-1.75,0.8-2.78,2.67-2.65,4.6c-1.21-0.56-2.59-0.56-3.81,0c-1.97,0.9-3.04,3.17-2.52,5.39l5.24,22.75
							c-0.21-0.21-0.44-0.45-0.71-0.74l-1.17-1.66c-1.31-1.86-3.69-2.56-5.67-1.67c-0.1,0.04-0.18,0.11-0.28,0.17
							c-3.84-25.04-22.11-45.31-45.91-51.9c-0.91-0.25-1.81,0.44-1.85,1.39l0,0.03c-0.02,0.69,0.43,1.3,1.09,1.49
							c25.58,7.09,44.44,30.78,44.44,58.84v4.21c-2.87-2.31-6.37-3.84-10.19-4.27v-6.42c0-2.53-0.19-5.06-0.56-7.56l-0.2-1.3h-14.69
							c-0.82,0-1.49,0.68-1.49,1.51c0,0.83,0.67,1.51,1.49,1.51h12.11c0.24,1.94,0.36,3.91,0.36,5.85v34.64
							c0,25.7-19.75,47.45-45.17,48.59c-9.74,0.43-18.87-2.13-26.57-6.85c-0.57-0.35-1.31-0.26-1.77,0.23l-0.02,0.02
							c-0.61,0.65-0.49,1.71,0.26,2.18c4.07,2.54,8.51,4.52,13.25,5.8v6.98c-0.03-0.07-0.06-0.15-0.09-0.22
							c-3.82,1.2-7.3,3.43-10.02,6.52c-1.22,1.39-2.48,2.88-3.72,4.46c-6.93,0.74-15.33,3.23-23.67,9.67
							c-3.65,2.82-7.01,6.19-10.09,10.06v-25.8c0-0.83-0.67-1.51-1.49-1.51c-0.82,0-1.49,0.67-1.49,1.51v29.82
							c-17.06,24.92-24.24,68.15-21.35,128.98l0.07,1.5l15.88-0.77l-0.07-1.5c-1.87-39.22,0.7-67.19,5.47-87.13v38.03h13.71
							c-6.99,24.71-13.72,51.47-13.83,51.89l-0.47,1.88h127.47l-0.15-1.65c-0.17-1.82-2.54-26.54-8.26-52.12h8.27v-77.41
							c9.79-1.26,17.48-4.38,23.04-9.33c0.67-0.6,0.7-1.65,0.03-2.25c-0.01-0.01-0.01-0.01-0.02-0.02c-0.57-0.52-1.42-0.5-2,0.01
							c-6.89,6.12-17.48,9.23-31.64,9.23c-7.53,0-15.14-0.89-22.14-2.12c0.03-3.57,0.05-7.2,0.03-10.68
							c-0.01-1.26-0.13-2.49-0.33-3.69c19.08,3.65,41.91,4.82,47.78-7.04c8.35-16.88,4.95-55.72,1.49-79.21
							c0.4,0.08,0.79,0.18,1.2,0.23c0.57,0.07,1.16,0.11,1.76,0.11c1.27,0,2.6-0.16,3.98-0.49l1.92-0.45
							c1.64-0.38,3.28-1.14,4.82-2.16c3.23,21.12,7.81,62.62-1.48,85.46c-0.23,0.57-0.11,1.22,0.33,1.64
							c0.01,0.01,0.01,0.01,0.02,0.02c0.75,0.73,2,0.46,2.39-0.52c9.81-24.19,4.68-67.98,1.42-88.75
							C347.66,239.43,350,234.56,349.02,230.03z M298.31,260.58v-26.04c8.27,1.1,14.7,8.21,14.77,16.87
							c0.07,8.97-6.72,16.37-15.4,17.2C298.09,265.99,298.31,263.31,298.31,260.58z M238.3,310.39c2.84,0.57,5.76,0.92,8.76,0.97
							c3.67,0.07,7.25-0.27,10.7-0.95v11.53c0,5.42-4.36,9.83-9.73,9.83c-5.37,0-9.73-4.41-9.73-9.83V310.39z M176.23,478.03
							l-9.92,0.48c-3.27-72.67,7.93-119.44,33.32-139.02c6.73-5.19,13.47-7.65,19.34-8.68c-2.81,3.95-5.39,8.3-7.15,12.8
							c-2.02,1-4.08,2.26-6.16,3.86C190.06,359.5,172.35,391.91,176.23,478.03z M187.73,427.28v-45.64
							c5.53-16.93,12.85-26.47,19.74-31.78c0.99-0.76,1.97-1.43,2.95-2.03c-0.81,3.04-1.18,6.12-0.94,9.15
							c0.5,6.39,1.61,10.66,2.51,14.1c1.76,6.76,2.82,10.83-2.47,24.16c-2.76,6.94-6.47,19.04-10.19,32.04H187.73z M278.72,351.45
							c7.02,1.21,14.64,2.08,22.17,2.08c2.65,0,5.19-0.11,7.61-0.32v74.08h-5.97c-3.55-15.23-8.31-30.46-14.5-41.06
							c-0.6-1.02-2.09-0.96-2.6,0.11c0,0.01-0.01,0.02-0.01,0.03c-0.21,0.45-0.19,0.97,0.06,1.4c15.2,26.07,21.78,82.88,22.87,93.28
							H187.99c2.77-10.91,16.96-66.26,24.28-84.69c5.67-14.25,4.44-18.95,2.59-26.05c-0.91-3.49-1.94-7.45-2.42-13.57
							c-0.92-11.79,9-24.97,14.99-31.77c2.17-2.46,4.89-4.27,7.89-5.34v2.32c0,7.08,5.7,12.84,12.71,12.84
							c7.01,0,12.71-5.76,12.71-12.84v-3.04c8.56,1.91,15.02,9.62,15.06,18.83c0.05,10.3-0.17,21.82-0.37,29.67
							c-0.07,2.99,0.54,5.87,1.76,8.48c0.51,1.09,2.02,1.15,2.62,0.11c0.01-0.01,0.01-0.02,0.02-0.03c0.25-0.43,0.25-0.95,0.05-1.4
							c-1.01-2.17-1.52-4.58-1.46-7.08C278.53,363.02,278.65,357.38,278.72,351.45z M308.51,333.13c-8.72,0.99-19.93-0.1-30.84-2.26
							c-2.49-7.66-8.96-13.52-16.92-15.04v-6.11c18.1-4.78,32.24-19.51,36.35-38.04c4.31-0.22,8.25-1.82,11.41-4.37V333.13z
							 M323.57,325.64c-1.86,3.76-6.24,5.98-12.08,7.06v-68.35c2.88-3.52,4.61-8.04,4.57-12.97c-0.04-4.82-1.75-9.22-4.57-12.67
							v-6.89l5.26,7.49l0.06,0.11c1.91,3.41,4.59,5.9,7.75,7.33C328.06,269.68,331.78,309.05,323.57,325.64z M335.91,244.25
							l-1.92,0.45c-1.68,0.4-3.26,0.5-4.7,0.32c-5.56-0.71-8.59-4.74-9.89-7.08c-0.09-0.16-0.15-0.27-0.19-0.31l-7.65-10.91
							c-0.28-0.39-0.36-0.89-0.23-1.37c0.07-0.28,0.29-0.78,0.9-1.06c0.18-0.08,0.38-0.12,0.58-0.12c0.54,0,1.1,0.29,1.45,0.78
							l1.23,1.75l0.13,0.16c2.23,2.38,3.53,3.42,4.89,2.82c1.36-0.6,1.26-2.14,1.16-3.77l-5.43-23.74
							c-0.19-0.81,0.18-1.66,0.85-1.97c0.61-0.28,1.13-0.11,1.38,0.02c0.44,0.22,0.75,0.61,0.87,1.14l4.64,17.31l2.9-0.7
							l-4.19-20.39c-0.19-0.82,0.18-1.66,0.85-1.97c0.61-0.28,1.13-0.11,1.38,0.02c0.44,0.22,0.75,0.61,0.88,1.16
							c0.22,0.76,5.33,18.48,5.7,19.65l2.89-0.68l-2.31-16.1c-0.12-0.83,0.32-1.64,1.01-1.89c0.63-0.22,1.13-0.01,1.38,0.14
							c0.42,0.25,0.69,0.67,0.76,1.15l2.48,17.31l1.39-0.11c0.17-0.01,0.37-0.02,0.52-0.02l1.53,0.01l-0.23-11.31
							c-0.06-0.83,0.42-1.61,1.13-1.81c0.65-0.18,1.13,0.07,1.37,0.23c0.4,0.28,0.65,0.72,0.68,1.2l1.95,25.8l0.03,0.23
							C347.39,236.25,341.48,242.94,335.91,244.25z"/>
					</g>
				</g>
				<g>
					<path class="st12" d="M47.82,397.76h-3.16V131.99c0-7.81,6.38-14.16,14.21-14.16H439.6c7.84,0,14.21,6.35,14.21,14.16v263.85
						c0,0.92-0.71,1.67-1.58,1.67l0,0c-0.87,0-1.58-0.75-1.58-1.67V131.99c0-5.97-4.96-10.82-11.05-10.82H58.87
						c-6.09,0-11.05,4.85-11.05,10.82V397.76z"/>
				</g>
				<rect x="222.92" y="99.26" class="st12" width="52.63" height="21.91"/>
				<g>
					<path class="st3" d="M294.78,108.91h-91.09c-6.6,0-12-5.4-12-12V80.1c0-6.6,5.4-12,12-12h91.09c6.6,0,12,5.4,12,12v16.81
						C306.78,103.51,301.38,108.91,294.78,108.91z"/>
					<g>
						<path class="st12" d="M276.08,107.24h-71.76c-6.1,0-11.05-5.23-11.05-11.69v-14.1c0-6.45,4.95-11.69,11.05-11.69h9.91
							c0.87,0,1.58-0.75,1.58-1.67l0,0c0-0.92-0.71-1.67-1.58-1.67h-9.91c-7.85,0-14.21,6.73-14.21,15.03v14.1
							c0,8.3,6.36,15.03,14.21,15.03h71.76c0.87,0,1.58-0.75,1.58-1.67l0,0C277.66,107.98,276.95,107.24,276.08,107.24z"/>
						<path class="st12" d="M294.15,66.43h-66.23c-0.87,0-1.58,0.75-1.58,1.67l0,0c0,0.92,0.71,1.67,1.58,1.67h66.23
							c6.11,0,11.05,5.23,11.05,11.69v14.1c0,6.45-4.95,11.69-11.05,11.69h-4.39c-0.87,0-1.58,0.75-1.58,1.67l0,0
							c0,0.92,0.71,1.67,1.58,1.67h4.39c7.85,0,14.21-6.73,14.21-15.03v-14.1C308.36,73.15,302,66.43,294.15,66.43z"/>
					</g>
					<path class="st4" d="M263.14,88.92c0,8.12-6.23,14.7-13.9,14.7s-13.9-6.58-13.9-14.7s6.23-14.7,13.9-14.7
						S263.14,80.8,263.14,88.92z"/>
					<g>
						<path class="st12" d="M260.08,95.09c-2.11,4.14-6.27,6.94-11.04,6.86c-6.44-0.11-11.85-5.68-12.12-12.49
							c-0.29-7.43,5.35-13.58,12.31-13.58c4.52,0,8.47,2.6,10.62,6.45c0.27,0.48,0.73,0.79,1.25,0.79h0.35
							c1.1,0,1.78-1.26,1.23-2.27c-2.71-5.04-7.86-8.42-13.75-8.3c-8.04,0.16-14.77,7.07-15.16,15.56
							c-0.43,9.39,6.67,17.18,15.46,17.18c5.96,0,11.14-3.59,13.72-8.82c0.5-1.01-0.19-2.21-1.26-2.21h-0.34
							C260.81,94.25,260.34,94.58,260.08,95.09z"/>
					</g>
					<path class="st12" d="M254.68,89.24c0,3.18-2.43,5.75-5.44,5.75c-3,0-5.44-2.58-5.44-5.75c0-3.18,2.44-5.75,5.44-5.75
						C252.24,83.49,254.68,86.07,254.68,89.24z"/>
				</g>
				<g>
					<path class="st12" d="M416.61,162.67v76.78c0,0.92,0.71,1.67,1.58,1.67l0,0c0.87,0,1.58-0.75,1.58-1.67v-76.78
						c0-6.83-5.43-12.39-12.09-12.39H158.31c-0.87,0-1.58,0.75-1.58,1.67l0,0c0,0.92,0.71,1.67,1.58,1.67h249.37
						C412.6,153.61,416.61,157.67,416.61,162.67z"/>
					<path class="st12" d="M418.19,263.65c-0.87,0-1.58,0.75-1.58,1.67v111.91c0,6.46-5.23,11.72-11.67,11.72l-47.15,0.03
						c-0.87,0-1.58,0.75-1.58,1.67l0,0c0,0.92,0.71,1.67,1.58,1.67l47.15-0.03c8.17,0,14.83-6.76,14.83-15.06V265.32
						C419.77,264.4,419.06,263.65,418.19,263.65L418.19,263.65z"/>
					<path class="st12" d="M336.92,390.66c0-0.92-0.71-1.67-1.58-1.67l-241.79,0.15h-0.01c-3.13,0-6.07-1.23-8.28-3.46
						c-2.19-2.21-3.4-5.15-3.4-8.26V162.67c0-4.99,4.01-9.05,8.93-9.05h36.64c0.87,0,1.58-0.75,1.58-1.67l0,0
						c0-0.92-0.71-1.67-1.58-1.67H90.8c-6.67,0-12.09,5.56-12.09,12.39v214.76c0,4.04,1.55,7.83,4.37,10.68
						c2.8,2.83,6.51,4.38,10.46,4.38h0.01l241.79-0.15C336.21,392.33,336.92,391.58,336.92,390.66L336.92,390.66z"/>
				</g>
			</g>
			<g>
				<rect x="44.66" y="400.65" class="st12" width="3.16" height="31.35"/>
			</g>
			<g>
				<path class="st12" d="M453.82,432h-3.16v-29.68c0-0.92,0.71-1.67,1.58-1.67l0,0c0.87,0,1.58,0.75,1.58,1.67V432z"/>
			</g>
		</g>
	</g>
</g>
<g id="DESIGNED_BY_FREEPIK">
</g>
</svg>
